SplineFontDB: 3.0
FontName: JannonStM
FullName: Sorts Mill Jannon
FamilyName: Sorts Mill Jannon
Weight: Regular
Copyright: Copyright (C) 2010 Barry Schwartz
UComments: "small: cut 1000px high, no scaling.+AAoA-larger: cut 1200px high, scale by .95." 
Version: 001.000
ItalicAngle: 0
UnderlinePosition: -100
UnderlineWidth: 50
Ascent: 700
Descent: 300
LayerCount: 3
Layer: 0 0 "Back"  1
Layer: 1 0 "Fore"  0
Layer: 2 0 "backup"  0
XUID: [1021 658 797806517 9253483]
FSType: 0
OS2Version: 0
OS2_WeightWidthSlopeOnly: 0
OS2_UseTypoMetrics: 1
CreationTime: 1283672823
ModificationTime: 1287559942
OS2TypoAscent: 0
OS2TypoAOffset: 1
OS2TypoDescent: 0
OS2TypoDOffset: 1
OS2TypoLinegap: 90
OS2WinAscent: 0
OS2WinAOffset: 1
OS2WinDescent: 0
OS2WinDOffset: 1
HheadAscent: 0
HheadAOffset: 1
HheadDescent: 0
HheadDOffset: 1
OS2Vendor: 'PfEd'
Lookup: 3 0 0 "'aalt' Access All Alternates lookup 0"  {"'aalt' Access All Alternates lookup 0 subtable"  } ['aalt' ('DFLT' <'dflt' > ) ]
Lookup: 3 0 0 "'aalt' Access All Alternates in Latin lookup 0"  {"'aalt' Access All Alternates in Latin lookup 0 subtable"  } ['aalt' ('latn' <'ROM ' 'MOL ' 'TRK ' 'AZE ' 'CRT ' 'dflt' > ) ]
Lookup: 1 0 0 "romanian"  {"romanian subtable"  } ['locl' ('latn' <'ROM ' 'MOL ' > ) ]
Lookup: 1 0 0 "turkish"  {"turkish subtable"  } ['locl' ('latn' <'TRK ' 'AZE ' 'CRT ' > ) ]
Lookup: 3 0 0 "'salt' Stylistic Alternatives in Latin lookup 2"  {"'salt' Stylistic Alternatives in Latin lookup 2 subtable"  } ['salt' ('latn' <'dflt' 'ROM ' 'MOL ' 'TRK ' 'AZE ' 'CRT ' > 'DFLT' <'dflt' > ) ]
Lookup: 4 0 1 "'liga' Standard Ligatures in Latin lookup 3"  {"'liga' Standard Ligatures in Latin lookup 3 subtable"  } ['liga' ('latn' <'dflt' 'ROM ' 'MOL ' 'TRK ' 'AZE ' 'CRT ' > 'DFLT' <'dflt' > ) ]
Lookup: 4 0 0 "'dlig' Discretionary Ligatures in Latin lookup 4"  {"'dlig' Discretionary Ligatures in Latin lookup 4 subtable"  } ['dlig' ('latn' <'dflt' 'ROM ' 'MOL ' 'TRK ' 'AZE ' 'CRT ' > 'DFLT' <'dflt' > ) ]

StartChar: a
Encoding: 97 97 0
Width: 422
VWidth: 0
Flags: W
HStem: -9 58<74 167.836> 0 50<277 371.554> 376 40<152.914 262.5>
VStem: 25 81<31 119.673> 246 65<88.9403 198.038> 250 70<229.635 364.502>
AnchorPoint: "top" 200 459 basechar 0
AnchorPoint: "l;bl" 0 10 basechar 0
AnchorPoint: "l;x" 20 380 basechar 0
AnchorPoint: "l;o" 0 210 basechar 0
AnchorPoint: "r;bl" 422 10 basechar 0
AnchorPoint: "r;x" 382 380 basechar 0
AnchorPoint: "r;o" 392 210 basechar 0
LayerCount: 3
Fore
SplineSet
47 302 m 0x74
 47 361 174 416 241 416 c 0
 284 416 320 391 320 329 c 0x74
 320 276 311 120 311 103 c 0
 311 65 327 50 340 50 c 0
 376 50 384 92 400 92 c 0
 404 92 411 89 411 82 c 0
 411 60 374 0 308 0 c 0x78
 246 0 246 78 243 78 c 0
 240 78 184 -9 87 -9 c 0xb8
 61 -9 25 12 25 50 c 0
 25 153 139 195 230 226 c 0
 243 230 247 231 248 250 c 0
 249 265 250 282 250 299 c 0
 250 339 238 376 198 376 c 0
 123 376 122 272 74 272 c 0
 58 272 47 288 47 302 c 0x74
236 200 m 0
 210 200 106 156 106 90 c 0
 106 60 121 49 142 49 c 0
 204 49 245 95 245 155 c 0
 245 161 246 170 246 179 c 0xb8
 246 190 244 200 236 200 c 0
EndSplineSet
EndChar

StartChar: b
Encoding: 98 98 1
Width: 471
VWidth: 0
Flags: W
HStem: -11 34<170.339 304.979> 358 51<174.244 288.764> 656 20G<117.5 123.5>
VStem: 64 63<56.2284 350.578 368.637 601.875> 374 67<116.638 270.709>
AnchorPoint: "l;bl" 0 10 basechar 0
AnchorPoint: "l;x" 0 380 basechar 0
AnchorPoint: "l;o" 0 210 basechar 0
AnchorPoint: "r;bl" 431 10 basechar 0
AnchorPoint: "r;x" 451 380 basechar 0
AnchorPoint: "r;o" 471 210 basechar 0
AnchorPoint: "l;k;hi" 0 660 basechar 0
LayerCount: 3
Fore
SplineSet
441 208 m 0
 441 85 338 -11 222 -11 c 0
 163 -11 140 8 113 8 c 0
 85 8 94 -46 77 -46 c 0
 67 -46 61 -41 61 -24 c 0
 61 -6 64 89 64 129 c 0
 64 233 60 433 60 558 c 0
 60 594 50 600 29 608 c 2
 17 613 l 2
 10 616 -1 621 -1 627 c 0
 -1 630 3 634 12 637 c 0
 37 644 78 660 103 672 c 0
 107 674 116 676 119 676 c 0
 128 676 127 667 127 654 c 0
 127 559 129 469 129 373 c 0
 129 370 133 361 145 369 c 0
 199 407 228 409 263 409 c 0
 371 409 441 314 441 208 c 0
237 23 m 0
 325 23 374 88 374 188 c 0
 374 278 306 358 208 358 c 0
 135 358 127 344 127 299 c 0
 127 242 129 168 129 106 c 0
 129 45 192 23 237 23 c 0
EndSplineSet
EndChar

StartChar: c
Encoding: 99 99 2
Width: 411
VWidth: 0
Flags: W
HStem: -17 61<174.333 303.592> 392 41<166.342 282.48>
VStem: 30 71<123.475 292.911>
AnchorPoint: "cedilla" 226 -79 basechar 0
AnchorPoint: "top" 230 459 basechar 0
AnchorPoint: "l;bl" 20 10 basechar 0
AnchorPoint: "l;x" 20 380 basechar 0
AnchorPoint: "l;o" 0 210 basechar 0
AnchorPoint: "r;bl" 401 10 basechar 0
AnchorPoint: "r;x" 411 380 basechar 0
AnchorPoint: "r;o" 411 210 basechar 0
LayerCount: 3
Fore
SplineSet
232 392 m 0
 144 392 101 307 101 217 c 0
 101 122 159 44 248 44 c 0
 267 44 287 48 307 55 c 0
 337 67 355 86 363 99 c 0
 365 101 368 102 371 102 c 0
 378 102 381 98 381 89 c 0
 381 56 304 -17 226 -17 c 0
 123 -17 30 58 30 192 c 0
 30 315 119 433 254 433 c 0
 337 433 367 401 367 365 c 0
 367 348 352 341 342 341 c 0
 290 341 289 392 232 392 c 0
EndSplineSet
EndChar

StartChar: d
Encoding: 100 100 3
Width: 477
VWidth: 0
Flags: W
HStem: -18 21G<338.5 346> -1 48<181.124 303.792> 18 24<412.426 467.725> 380 27<171.352 286.047> 674 20G<370.5 387.5>
VStem: 30 63<134.381 284.136> 322 67<67.4082 355.532 397.428 649.61> 330 60<53.7426 297.595>
AnchorPoint: "right" 451 459 basechar 0
AnchorPoint: "l;bl" 20 10 basechar 0
AnchorPoint: "l;x" 20 380 basechar 0
AnchorPoint: "l;o" 0 210 basechar 0
AnchorPoint: "r;bl" 477 10 basechar 0
AnchorPoint: "r;x" 467 380 basechar 0
AnchorPoint: "r;hi" 467 660 basechar 0
AnchorPoint: "r;o" 467 210 basechar 0
LayerCount: 3
Fore
SplineSet
319 630 m 0x5e
 317 662 250 648 250 672 c 0
 250 681 257 682 267 682 c 0
 346 684 359 690 382 694 c 1
 393 694 394 688 394 680 c 2
 394 670 l 1
 391 610 389 418 389 260 c 0x5e
 389 195 389 136 390 94 c 0
 391 47 392 35 412 35 c 0
 421 35 435 38 453 42 c 0
 462 44 468 42 468 33 c 0
 468 25 464 22 451 18 c 0
 383 0 348 -18 344 -18 c 0xbd
 333 -18 331 -12 329 0 c 2
 324 30 l 1
 324 30 264 -1 218 -1 c 0
 102 -1 30 77 30 191 c 0
 30 286 103 407 235 407 c 0
 258 407 296 400 311 394 c 0
 319 390 322 399 322 416 c 2
 322 461 l 2
 322 526 319 617 319 630 c 0x5e
265 47 m 0
 328 47 330 67 330 115 c 2
 330 124 l 2x5d
 330 178 329 249 324 300 c 0
 319 352 288 380 230 380 c 0
 147 380 93 320 93 215 c 0
 93 110 181 47 265 47 c 0
EndSplineSet
EndChar

StartChar: e
Encoding: 101 101 4
Width: 413
VWidth: 0
Flags: W
HStem: -22 63<161.943 297.299> 261 29<107 285.953> 381 29<175.087 274.215>
VStem: 30 58<119.935 260.367> 306 77<277 329.895>
AnchorPoint: "top" 220 459 basechar 0
AnchorPoint: "l;bl" 20 10 basechar 0
AnchorPoint: "l;x" 20 380 basechar 0
AnchorPoint: "l;o" 0 210 basechar 0
AnchorPoint: "r;bl" 403 10 basechar 0
AnchorPoint: "r;x" 403 380 basechar 0
AnchorPoint: "r;o" 413 210 basechar 0
LayerCount: 3
Fore
SplineSet
212 -22 m 0
 97 -22 30 74 30 178 c 0
 30 298 105 410 225 410 c 0
 275 410 305 392 334 364 c 0
 360 339 383 297 383 284 c 0
 383 270 374 262 356 262 c 2
 104 261 l 2
 93 261 88 240 88 222 c 0
 88 126 131 41 247 41 c 0
 313 41 337 75 356 83 c 1
 365 88 368 80 368 73 c 0
 368 46 300 -22 212 -22 c 0
221 381 m 0
 167 381 107 317 107 291 c 1
 116 291 135 290 158 290 c 0
 219 290 306 291 306 329 c 0
 306 353 263 381 221 381 c 0
EndSplineSet
EndChar

StartChar: f
Encoding: 102 102 5
Width: 302
VWidth: 0
Flags: W
HStem: -2 29<16.0118 95.6891 180.752 259.989> 333 32<35.0964 85.2515> 351 42<173.872 270.916> 358 39<190.361 285.996> 645 43<215.899 327.653>
VStem: 105 67<32.6543 338.764 393.005 530.822>
AnchorPoint: "l;bl" 0 10 basechar 0
AnchorPoint: "l;x" 20 380 basechar 0
AnchorPoint: "l;o" 10 210 basechar 0
AnchorPoint: "r;bl" 277 10 basechar 0
AnchorPoint: "r;x" 302 380 basechar 0
AnchorPoint: "r;o" 297 210 basechar 0
LayerCount: 3
Fore
SplineSet
291 688 m 0xcc
 313 688 354 688 354 662 c 0
 354 658 349 646 346 641 c 0
 337 629 330 621 314 621 c 0
 295 621 270 645 250 645 c 0
 233 645 208 627 194 581 c 0
 182 542 173 487 173 410 c 0
 173 400 176 393 185 393 c 0xac
 200 393 253 396 272 397 c 0
 281 397 286 396 286 377 c 0
 286 363 282 358 272 358 c 0x9c
 249 357 218 355 189 351 c 0xac
 171 349 174 346 174 335 c 0
 173 252 172 170 172 87 c 0
 172 27 189 31 228 30 c 0
 245 30 260 25 260 12 c 0
 260 0 248 -3 237 -3 c 0
 208 -3 176 0 135 0 c 0
 97 0 56 -2 32 -2 c 0
 20 -2 16 3 16 13 c 0
 16 25 29 27 42 27 c 2
 52 27 l 2
 94 27 105 35 105 102 c 2
 104 322 l 2
 104 330 104 339 86 339 c 0
 70 339 56 333 46 333 c 0
 39 333 35 336 35 348 c 0
 35 357 50 363 56 365 c 0
 82 374 110 376 110 387 c 0
 110 479 125 558 161 610 c 0
 188 650 223 688 291 688 c 0xcc
EndSplineSet
EndChar

StartChar: g
Encoding: 103 103 6
Width: 425
VWidth: 0
Flags: W
HStem: -254 31<91.7716 242.588> -22 56<98.3206 327.68> 128 23<161.51 233.409> 341 59<341.002 423.472> 394 26<153.601 238.726>
VStem: -15 56<-188.536 -90.589> 26 60<49.1886 107.83> 48 67<190.825 352.462> 281 66<200.168 339.94> 351 51<-144.091 -46.2797>
AnchorPoint: "top" 205 459 basechar 0
AnchorPoint: "l;bl" 0 10 basechar 0
AnchorPoint: "l;x" 25 380 basechar 0
AnchorPoint: "l;o" 5 210 basechar 0
AnchorPoint: "l;lo" 0 -200 basechar 0
AnchorPoint: "r;bl" 415 10 basechar 0
AnchorPoint: "r;x" 425 380 basechar 0
AnchorPoint: "r;o" 415 210 basechar 0
AnchorPoint: "r;lo" 385 -200 basechar 0
LayerCount: 3
Fore
SplineSet
281 274 m 0xe9c0
 281 360 240 394 198 394 c 0
 145 394 115 354 115 288 c 0
 115 195 151 151 198 151 c 0
 252 151 281 210 281 274 c 0xe9c0
165 -22 m 2
 114 -22 41 -70 41 -137 c 0xe4c0
 41 -210 129 -223 170 -223 c 0
 263 -223 351 -172 351 -88 c 0
 351 -26 273 -22 199 -22 c 2
 165 -22 l 2
152 -254 m 0
 60 -254 -15 -223 -15 -152 c 0xf4c0
 -15 -102 26 -61 69 -38 c 0
 91 -26 103 -22 103 -16 c 0
 103 -12 98 -9 88 -2 c 0
 62 16 26 53 26 90 c 0xf2c0
 26 100 32 105 54 112 c 0
 86 123 111 128 111 138 c 0
 111 143 105 150 94 161 c 0
 65 190 48 218 48 277 c 0
 48 352 106 420 198 420 c 0xe9c0
 248 420 292 398 301 398 c 2
 395 400 l 2
 417 400 425 387 425 363 c 0
 425 352 418 341 410 341 c 2
 352 341 l 2
 344 341 341 340 341 334 c 0
 341 326 347 313 347 285 c 0
 347 205 296 128 205 128 c 2
 142 128 l 2
 128 128 86 94 86 76 c 0xf2c0
 86 54 128 34 159 34 c 0
 182 34 261 40 268 40 c 0
 339 40 402 22 402 -77 c 0
 402 -179 264 -254 152 -254 c 0
EndSplineSet
EndChar

StartChar: h
Encoding: 104 104 7
Width: 514
VWidth: 0
Flags: W
HStem: -3 28<13.3054 76.5469 279.046 340.52 419.367 497.862> -3 15<206.75 218.16> 371 45<219.096 326.882> 604 22<26.2938 67.1849> 645 20G<144 151>
VStem: 82 67<27.9153 337.001 353.017 573.785> 88 70<353.017 603.789> 348 69<27.9199 257.006> 355 68<68.0578 343.481>
AnchorPoint: "top" 245 670 basechar 0
AnchorPoint: "l;bl" 0 10 basechar 0
AnchorPoint: "l;x" 10 380 basechar 0
AnchorPoint: "l;k;hi" 10 660 basechar 0
AnchorPoint: "l;o" 10 210 basechar 0
AnchorPoint: "r;bl" 514 10 basechar 0
AnchorPoint: "r;x" 504 380 basechar 0
AnchorPoint: "r;o" 504 210 basechar 0
LayerCount: 3
Fore
SplineSet
423 260 m 0x7a80
 423 196 417 141 417 59 c 0
 417 39 421 25 438 25 c 2
 471 25 l 2xb9
 486 25 498 23 498 9 c 0
 498 -4 487 -5 479 -5 c 0
 468 -5 425 -3 382 -3 c 0
 340 -3 313 -5 298 -5 c 0
 286 -5 279 0 279 10 c 0
 279 19 286 23 301 24 c 0
 332 26 345 29 348 70 c 0x79
 353 140 355 224 355 296 c 0
 355 341 308 371 260 371 c 0
 215 371 149 331 149 309 c 2
 146 49 l 2
 146 21 216 25 220 12 c 0
 224 1 212 -3 202 -3 c 0
 192 -3 146 0 118 0 c 0
 81 0 25 -2 21 -2 c 0
 14 -2 13 6 13 9 c 0
 13 14 18 19 30 20 c 0
 49 21 82 26 82 58 c 0x7c80
 82 215 88 449 88 580 c 0
 88 596 75 604 63 604 c 2
 40 604 l 2
 31 604 26 607 26 612 c 0
 26 618 29 624 35 626 c 0
 83 640 140 665 148 665 c 0
 154 665 158 663 158 655 c 0
 158 639 152 459 152 396 c 0
 152 376 152 353 154 353 c 0
 164 353 221 416 301 416 c 0
 325 416 343 412 359 405 c 0
 408 383 423 358 423 260 c 0x7a80
EndSplineSet
EndChar

StartChar: i
Encoding: 105 105 8
Width: 272
VWidth: 0
Flags: W
HStem: -1 27<26.0094 92.6339 176.516 245.751> 342 28<47.0058 95.013> 581 80<112.109 185.211>
VStem: 105 63<30.8226 302.875> 107 82<586.355 656.15>
AnchorPoint: "l;bl" 0 10 basechar 0
AnchorPoint: "l;x" 0 380 basechar 0
AnchorPoint: "l;o" 0 210 basechar 0
AnchorPoint: "r;bl" 272 10 basechar 0
AnchorPoint: "r;x" 257 380 basechar 0
AnchorPoint: "r;o" 257 210 basechar 0
LayerCount: 3
Fore
SplineSet
107 622 m 4xe8
 107 645 126 661 149 661 c 4
 172 661 189 644 189 622 c 4
 189 593 172 581 149 581 c 4
 126 581 107 599 107 622 c 4xe8
178 417 m 0
 178 408 168 235 168 77 c 0
 168 39 178 28 211 28 c 2
 227 28 l 2
 239 28 246 25 246 17 c 0
 246 7 244 0 228 0 c 2
 46 -1 l 2
 35 -1 26 0 26 13 c 0
 26 25 39 26 43 26 c 2
 68 26 l 2
 86 26 100 38 102 76 c 0
 105 141 105 222 105 288 c 0
 105 318 103 335 66 342 c 0
 55 344 47 349 47 356 c 0
 47 361 52 368 66 370 c 0
 105 376 126 398 146 421 c 0
 152 429 161 436 168 436 c 0xf0
 174 436 178 431 178 417 c 0
EndSplineSet
AlternateSubs2: "'aalt' Access All Alternates in Latin lookup 0 subtable" i.TRK
Substitution2: "turkish subtable" i.TRK
EndChar

StartChar: j
Encoding: 106 106 9
Width: 217
VWidth: 0
Flags: W
HStem: -234 21G<16 24> 567 82<39.0117 108.672>
VStem: 33 82<572.48 643.759> 81 69<-97.6011 419>
AnchorPoint: "l;bl" 0 10 basechar 0
AnchorPoint: "l;x" 0 380 basechar 0
AnchorPoint: "l;o" 0 210 basechar 0
AnchorPoint: "l;lo" 0 -200 basechar 0
AnchorPoint: "r;bl" 217 10 basechar 0
AnchorPoint: "r;x" 217 380 basechar 0
AnchorPoint: "r;o" 217 210 basechar 0
AnchorPoint: "r;lo" 117 -200 basechar 0
LayerCount: 3
Fore
SplineSet
75 649 m 0xe0
 99 649 115 631 115 613 c 0
 115 590 100 567 72 567 c 0
 48 567 33 586 33 605 c 0
 33 627 49 649 75 649 c 0xe0
150 419 m 0xd0
 150 295 148 59 146 -1 c 0
 141 -123 83 -200 42 -226 c 0
 35 -230 27 -234 21 -234 c 0
 11 -234 7 -230 7 -224 c 0
 7 -220 9 -213 14 -209 c 0
 30 -194 49 -177 59 -150 c 0
 69 -123 78 -95 79 -23 c 0
 80 53 81 276 81 289 c 0
 81 328 80 345 53 353 c 0
 41 357 25 361 25 372 c 0
 25 375 26 380 38 385 c 0
 50 390 69 397 81 404 c 0
 99 414 112 425 121 432 c 0
 127 436 132 439 137 439 c 0
 144 439 150 433 150 419 c 0xd0
EndSplineSet
EndChar

StartChar: k
Encoding: 107 107 10
Width: 506
VWidth: 0
Flags: W
HStem: 0 30<21.4087 84.0474 162.43 212.907 258.007 306.995 420.765 500.993> 188 24<159.732 184.923> 369 24<291.007 336.905> 374 31<415.125 490.891> 619 25<36.312 77.3478> 653 20G<156 163>
VStem: 89 69<30.5938 187.99 212.006 465.599> 93 73<300.664 618.569>
DStem2: 252 210 178 184 0.700468 -0.713684<-18.9675 158.97> 180 220 251 241 0.803001 0.595977<54.0989 206.953>
AnchorPoint: "l;bl" 0 10 basechar 0
AnchorPoint: "l;x" 20 380 basechar 0
AnchorPoint: "l;k;hi" 20 660 basechar 0
AnchorPoint: "l;o" 20 210 basechar 0
AnchorPoint: "r;bl" 506 10 basechar 0
AnchorPoint: "r;x" 506 380 basechar 0
AnchorPoint: "r;o" 466 210 basechar 0
LayerCount: 3
Fore
SplineSet
53 26 m 0xde
 83 28 89 47 89 77 c 0xde
 89 188 93 539 93 574 c 0
 93 613 80 619 65 619 c 2
 53 619 l 2
 40 619 36 624 36 629 c 0
 36 635 41 641 53 644 c 2
 133 667 l 2
 144 670 153 673 159 673 c 0
 167 673 172 668 172 653 c 0
 172 641 168 599 166 538 c 0xdd
 163 447 158 246 158 232 c 0
 158 220 160 212 165 212 c 0
 168 212 173 215 180 220 c 0
 233 258 270 289 324 336 c 0
 332 343 337 350 337 356 c 0
 337 363 329 368 308 369 c 0
 299 369 291 373 291 381 c 0
 291 388 300 393 306 393 c 0xee
 404 398 462 405 475 405 c 0
 485 405 491 401 491 392 c 0
 491 377 484 376 473 374 c 0
 421 366 402 354 379 336 c 2
 251 241 l 2
 245 236 242 232 242 227 c 0
 242 222 246 216 252 210 c 2
 358 102 l 2
 391 68 427 30 462 30 c 2
 477 30 l 2
 491 30 501 24 501 15 c 0
 501 4 497 0 479 0 c 0
 468 0 399 2 377 2 c 0
 334 2 312 0 271 0 c 0
 261 0 258 6 258 15 c 0
 258 25 268 28 282 28 c 2
 286 28 l 2
 300 28 307 33 307 41 c 0
 307 46 305 52 299 58 c 0
 254 110 200 164 178 184 c 0
 175 187 173 188 171 188 c 0
 163 188 158 174 158 168 c 2
 159 80 l 2
 159 42 162 34 185 29 c 0
 199 26 213 23 213 14 c 0
 213 1 205 0 193 0 c 0
 170 0 134 2 116 2 c 0
 78 2 61 0 37 0 c 0
 25 0 21 4 21 12 c 0
 21 25 37 25 53 26 c 0xde
EndSplineSet
EndChar

StartChar: l
Encoding: 108 108 11
Width: 256
VWidth: 0
Flags: W
HStem: -5 34<7.04913 87.2564> 0 36<168.98 242.744> 659 20G<158 164.5>
VStem: 96 78<36.8129 661>
AnchorPoint: "right" 230 459 basechar 0
AnchorPoint: "top" 125 670 basechar 0
AnchorPoint: "l;bl" 0 10 basechar 0
AnchorPoint: "l;x" 20 380 basechar 0
AnchorPoint: "l;k;hi" 20 660 basechar 0
AnchorPoint: "l;o" 20 210 basechar 0
AnchorPoint: "r;bl" 256 10 basechar 0
AnchorPoint: "r;x" 251 380 basechar 0
AnchorPoint: "r;hi" 251 660 basechar 0
AnchorPoint: "r;o" 251 210 basechar 0
LayerCount: 3
Fore
SplineSet
96 583 m 0xb0
 96 610 88 613 60 623 c 0
 48 627 41 632 41 638 c 0
 41 643 46 649 57 652 c 0
 72 656 93 661 110 666 c 0
 135 673 156 679 160 679 c 0
 169 679 174 671 174 661 c 0
 171 467 168 447 168 64 c 0
 168 39 179 39 202 36 c 0
 223 33 243 33 243 15 c 0
 243 3 233 0 222 0 c 0x70
 199 0 196 2 138 2 c 0
 113 2 41 -5 31 -5 c 0
 14 -5 7 0 7 11 c 0
 7 27 24 28 36 29 c 0
 90 32 94 49 94 74 c 0
 96 185 96 190 96 583 c 0xb0
EndSplineSet
EndChar

StartChar: m
Encoding: 109 109 12
Width: 746
VWidth: 0
Flags: W
HStem: -1 24<16.0464 81.3636 277.078 329.448 419.929 478.965 518.128 578.781 668.569 727.951> 378 47<226.286 323.866 462.686 567.201>
VStem: 95 66<29.5634 339.147> 344 66<30.5934 349.219> 594 69<30.1191 349.172>
AnchorPoint: "l;bl" 0 10 basechar 0
AnchorPoint: "l;x" 5 380 basechar 0
AnchorPoint: "l;o" 5 210 basechar 0
AnchorPoint: "r;bl" 746 10 basechar 0
AnchorPoint: "r;x" 731 380 basechar 0
AnchorPoint: "r;o" 746 210 basechar 0
LayerCount: 3
Fore
SplineSet
164 1 m 0
 120 1 75 -2 44 -2 c 0
 20 -2 16 4 16 12 c 0
 16 21 32 22 48 23 c 0
 62 24 90 30 91 55 c 0
 93 89 95 127 95 172 c 2
 95 256 l 2
 95 284 95 311 94 333 c 0
 92 380 30 355 30 378 c 0
 30 387 42 390 68 393 c 0
 99 397 123 414 139 435 c 0
 145 443 153 454 163 454 c 0
 168 454 171 450 171 439 c 0
 171 431 168 396 168 391 c 0
 168 377 170 372 174 372 c 0
 179 372 186 377 193 383 c 0
 217 402 261 425 313 425 c 0
 351 425 386 409 406 375 c 0
 411 367 408 362 418 371 c 0
 444 394 480 423 547 423 c 0
 623 423 661 379 663 292 c 0
 663 282 663 272 663 262 c 0
 663 196 659 127 659 60 c 0
 659 31 681 27 696 25 c 0
 715 23 728 21 728 10 c 0
 728 -1 711 -3 702 -3 c 0
 695 -3 657 -1 621 -1 c 2
 538 -1 l 2
 525 -1 518 3 518 13 c 0
 518 21 528 22 536 23 c 0
 582 26 588 34 590 78 c 0
 593 124 594 199 594 218 c 2
 594 229 l 2
 594 305 592 379 508 379 c 0
 463 379 413 353 413 306 c 2
 413 275 l 2
 413 187 410 96 410 63 c 0
 410 30 426 31 452 26 c 0
 467 23 479 23 479 12 c 0
 479 -1 468 -1 460 -1 c 0
 445 -1 403 2 368 2 c 0
 336 2 331 1 299 1 c 0
 289 1 277 2 277 12 c 0
 277 19 284 23 297 24 c 0
 335 28 344 45 344 81 c 0
 344 102 343 143 343 170 c 0
 343 210 342 256 340 294 c 0
 337 341 331 378 265 378 c 0
 216 378 165 345 164 288 c 0
 163 214 161 142 161 66 c 0
 161 3 235 39 235 11 c 0
 235 5 226 0 208 0 c 0
 194 0 180 1 164 1 c 0
EndSplineSet
EndChar

StartChar: n
Encoding: 110 110 13
Width: 496
VWidth: 0
Flags: W
HStem: -2 28<26.2197 82.0057 153.984 233.799 282.041 350.986 422.057 480.737> 368 50<212.764 338.158> 409 20G<140.5 148>
VStem: 88 67<28.0551 326.761> 356 64<28.7501 350.051>
AnchorPoint: "top" 270 459 basechar 0
AnchorPoint: "l;bl" 0 10 basechar 0
AnchorPoint: "l;x" 20 380 basechar 0
AnchorPoint: "l;o" 0 210 basechar 0
AnchorPoint: "r;bl" 496 10 basechar 0
AnchorPoint: "r;x" 486 380 basechar 0
AnchorPoint: "r;o" 486 210 basechar 0
LayerCount: 3
Fore
SplineSet
314 27 m 0xd8
 347 27 356 31 356 75 c 2
 356 202 l 2
 356 233 356 264 354 307 c 0
 352 355 313 368 271 368 c 0xd8
 237 368 204 362 180 348 c 0
 166 340 155 328 155 313 c 0
 154 235 153 158 151 82 c 0
 151 72 150 64 150 54 c 0
 150 30 173 28 198 25 c 0
 224 22 234 19 234 10 c 0
 234 2 230 -2 215 -2 c 0
 179 -2 148 1 112 1 c 0
 76 1 54 -2 46 -2 c 0
 35 -2 26 1 26 10 c 0
 26 21 38 22 62 26 c 0
 73 28 84 33 85 53 c 0
 87 103 87 164 88 216 c 2
 89 304 l 2
 89 321 74 325 62 328 c 0
 47 331 38 337 38 343 c 0
 38 348 45 354 60 357 c 0
 94 364 112 388 127 412 c 0
 131 418 137 429 144 429 c 0xb8
 152 429 155 425 155 415 c 0
 155 411 154 398 154 373 c 0
 154 364 156 361 159 361 c 0
 164 361 175 369 181 374 c 0
 210 397 240 418 298 418 c 0
 350 418 426 403 426 323 c 0
 426 237 420 109 420 52 c 0
 420 40 424 31 439 29 c 0
 458 26 481 29 481 15 c 0
 481 0 467 -1 460 -1 c 0
 416 -1 399 0 384 0 c 0
 351 0 324 -2 304 -2 c 0
 288 -2 282 5 282 11 c 0
 282 26 296 27 314 27 c 0xd8
EndSplineSet
EndChar

StartChar: o
Encoding: 111 111 14
Width: 495
VWidth: 0
Flags: W
HStem: -21 30<190.575 306.484> 400 28<186.666 291.92>
VStem: 30 75<101.641 307.85> 383 82<104.009 303.043>
AnchorPoint: "top" 245 459 basechar 0
AnchorPoint: "l;bl" 20 10 basechar 0
AnchorPoint: "l;x" 20 380 basechar 0
AnchorPoint: "l;o" 0 210 basechar 0
AnchorPoint: "r;bl" 475 10 basechar 0
AnchorPoint: "r;x" 475 380 basechar 0
AnchorPoint: "r;o" 495 210 basechar 0
LayerCount: 3
Fore
SplineSet
240 -21 m 0
 137 -21 30 46 30 201 c 0
 30 334 116 428 252 428 c 0
 364 428 465 359 465 212 c 0
 465 46 349 -21 240 -21 c 0
246 9 m 0
 365 9 383 132 383 203 c 0
 383 308 320 400 242 400 c 0
 162 400 105 330 105 224 c 0
 105 102 156 9 246 9 c 0
EndSplineSet
EndChar

StartChar: p
Encoding: 112 112 15
Width: 506
VWidth: 0
Flags: HMW
HStem: -265 30<158.176 246.991> -2 32<185.572 337.51> 368 27<4.0291 66.9392> 370 54<197.747 321.057>
VStem: 82 69<-228.367 11.6457 54.5028 357.373> 124 31<428.722 472.361> 412 64<112.859 269.526>
AnchorPoint: "l;bl" 0 10 basechar 0
AnchorPoint: "l;k;x" -5 380 basechar 0
AnchorPoint: "l;o" 0 210 basechar 0
AnchorPoint: "l;lo" 0 -200 basechar 0
AnchorPoint: "r;bl" 466 10 basechar 0
AnchorPoint: "r;x" 486 380 basechar 0
AnchorPoint: "r;o" 506 210 basechar 0
LayerCount: 3
Fore
SplineSet
265 -2 m 0xd6
 217 -2 182 7 167 14 c 0
 156 19 151 15 151 10 c 2
 153 -206 l 2
 153 -224 169 -233 217 -235 c 0
 235 -236 247 -239 247 -250 c 0
 247 -256 241 -265 223 -265 c 0
 190 -264 160 -261 128 -261 c 0
 97 -261 73 -266 40 -266 c 0
 23 -266 14 -263 14 -252 c 0
 14 -230 82 -260 82 -182 c 0
 82 -75 79 186 78 320 c 0
 78 362 54 367 29 368 c 0
 14 369 4 374 4 381 c 0
 4 387 10 394 24 395 c 0xea
 78 400 113 421 124 453 c 0
 127 462 134 473 143 473 c 0
 150 473 155 467 155 454 c 0
 155 441 150 418 150 403 c 0
 150 384 157 382 163 382 c 0
 166 382 170 384 175 388 c 0
 212 415 247 424 286 424 c 0
 381 424 476 362 476 217 c 0
 476 97 404 -2 265 -2 c 0xd6
240 370 m 0xd2
 178 370 153 356 150 312 c 0
 149 292 148 261 148 230 c 0
 148 169 150 79 166 61 c 0
 185 40 219 30 272 30 c 0
 371 30 412 111 412 174 c 0
 412 273 349 370 240 370 c 0xd2
EndSplineSet
EndChar

StartChar: q
Encoding: 113 113 16
Width: 490
VWidth: 0
Flags: W
HStem: -255 32<275.055 344.844 422.008 511.954> 19 26<290.413 343.371> 374 36<179.689 298.738> 400 20G<405 422.5>
VStem: 30 72<128.398 289.94> 346 76<-220.537 19.1391 46.2587 334.307>
AnchorPoint: "l;bl" 30 10 basechar 0
AnchorPoint: "l;x" 30 380 basechar 0
AnchorPoint: "l;o" 0 210 basechar 0
AnchorPoint: "r;bl" 490 10 basechar 0
AnchorPoint: "r;x" 490 380 basechar 0
AnchorPoint: "r;o" 490 210 basechar 0
AnchorPoint: "r;k;lo" 505 -200 basechar 0
LayerCount: 3
Fore
SplineSet
251 410 m 0xec
 323 410 373 370 382 370 c 0
 398 370 392 420 418 420 c 0xdc
 427 420 429 410 429 403 c 0
 429 394 424 336 424 314 c 2
 421 49 l 2
 421 8 422 -57 422 -73 c 0
 422 -113 419 -151 419 -190 c 0
 419 -212 427 -220 455 -222 c 2
 477 -223 l 2
 499 -224 512 -228 512 -240 c 0
 512 -254 505 -259 495 -259 c 0
 471 -259 388 -253 356 -253 c 0
 328 -253 301 -255 293 -255 c 0
 277 -255 275 -247 275 -238 c 0
 276 -224 288 -223 302 -223 c 2
 317 -223 l 2
 335 -223 347 -218 347 -191 c 2
 346 9 l 2
 346 23 332 22 324 19 c 0
 292 7 258 -8 225 -8 c 0
 114 -8 30 80 30 187 c 0
 30 356 165 410 251 410 c 0xec
102 216 m 0
 102 114 171 45 290 45 c 0
 343 45 346 46 346 86 c 2
 346 192 l 1
 345 234 348 285 336 315 c 0
 322 349 281 374 240 374 c 0xec
 175 374 102 313 102 216 c 0
EndSplineSet
EndChar

StartChar: r
Encoding: 114 114 17
Width: 363
VWidth: 0
Flags: W
HStem: -1 28<26.3576 90.5858 171.317 257.491> 353 65<227.34 319.582>
VStem: 97 66<36.0186 323.667>
AnchorPoint: "top" 205 459 basechar 0
AnchorPoint: "l;bl" 0 10 basechar 0
AnchorPoint: "l;x" 0 380 basechar 0
AnchorPoint: "l;o" 0 210 basechar 0
AnchorPoint: "r;bl" 343 10 basechar 0
AnchorPoint: "r;x" 363 380 basechar 0
AnchorPoint: "r;o" 343 210 basechar 0
LayerCount: 3
Fore
SplineSet
304 324 m 0
 296 324 287 326 280 329 c 0
 262 337 248 353 236 353 c 0
 216 353 202 345 189 333 c 0
 171 316 165 311 164 287 c 0
 163 264 163 239 163 213 c 0
 163 162 164 106 164 60 c 0
 164 37 177 36 208 33 c 2
 238 30 l 2
 251 29 258 25 258 17 c 0
 258 7 251 0 232 0 c 0
 228 0 181 3 139 3 c 0
 108 3 62 -1 42 -1 c 0
 29 -1 26 4 26 10 c 0
 26 23 40 26 54 27 c 2
 65 28 l 2
 89 30 94 40 94 62 c 2
 97 267 l 1
 97 288 l 2
 97 303 96 317 91 324 c 0
 76 341 31 331 31 347 c 0
 31 357 39 359 52 364 c 0
 99 380 124 411 142 435 c 0
 145 440 150 442 154 442 c 0
 160 442 165 437 165 426 c 0
 165 413 161 397 161 370 c 0
 161 352 167 352 178 360 c 2
 208 383 l 2
 230 400 263 418 295 418 c 0
 334 418 354 393 354 368 c 0
 354 346 337 324 304 324 c 0
EndSplineSet
EndChar

StartChar: s
Encoding: 115 115 18
Width: 335
VWidth: 0
Flags: W
HStem: -15 33<110.77 214.578> 386 28<113.186 210.668>
VStem: 40 53<282.158 370.181> 40 27<69.5251 124.863> 247 62<46.5147 130.096>
AnchorPoint: "cedilla" 155 -79 mark 0
AnchorPoint: "top" 175 459 basechar 0
AnchorPoint: "l;bl" 0 10 basechar 0
AnchorPoint: "l;x" 5 380 basechar 0
AnchorPoint: "l;o" 0 210 basechar 0
AnchorPoint: "r;bl" 335 10 basechar 0
AnchorPoint: "r;x" 330 380 basechar 0
AnchorPoint: "r;o" 335 210 basechar 0
LayerCount: 3
Fore
SplineSet
309 114 m 0xe8
 309 47 252 -15 150 -15 c 0
 135 -15 91 -11 72 -4 c 0
 50 4 40 11 40 23 c 2
 40 100 l 2
 40 114 46 125 52 125 c 0
 61 125 64 113 67 103 c 0xd8
 84 40 123 18 169 18 c 0
 207 18 247 52 247 92 c 0
 247 132 185 159 131 188 c 0
 82 214 40 246 40 302 c 0
 40 367 84 414 169 414 c 0
 188 414 225 409 253 401 c 0
 273 395 278 383 278 368 c 2
 279 334 l 2
 280 315 275 305 268 305 c 0
 263 305 257 311 253 321 c 0
 239 357 207 386 158 386 c 0
 117 386 93 362 93 330 c 0
 93 288 133 264 182 239 c 0
 240 209 309 183 309 114 c 0xe8
EndSplineSet
EndChar

StartChar: t
Encoding: 116 116 19
Width: 317
VWidth: 0
Flags: HMW
HStem: -11 53<165.796 257.73> 355 54<167.528 302.223> 355 46<157.037 282.287>
VStem: 81 72<53.0595 328.244> 91 64<108.77 351.957>
AnchorPoint: "right" 230 459 basechar 0
AnchorPoint: "cedilla" 181 -79 basechar 0
AnchorPoint: "l;bl" 5 10 basechar 0
AnchorPoint: "l;x" 5 380 basechar 0
AnchorPoint: "l;o" 0 210 basechar 0
AnchorPoint: "r;bl" 317 10 basechar 0
AnchorPoint: "r;x" 312 380 basechar 0
AnchorPoint: "r;o" 317 210 basechar 0
LayerCount: 3
Fore
SplineSet
76 352 m 0xc8
 67 352 53 350 48 350 c 0
 37 350 31 354 31 361 c 0
 31 374 47 379 57 384 c 0
 94 402 112 416 133 452 c 2
 140 464 l 2
 144 472 150 479 156 479 c 0
 161 479 165 474 165 463 c 0
 165 449 157 417 157 410 c 0
 157 404 158 401 167 401 c 0xa8
 177 401 269 409 283 409 c 0
 298 409 303 398 303 389 c 0
 303 362 294 355 280 355 c 2
 176 355 l 2
 163 355 155 351 155 341 c 0xc8
 154 272 153 196 153 130 c 0
 153 72 164 42 210 42 c 0
 255 42 284 75 295 75 c 0
 301 75 303 71 303 65 c 0
 303 35 245 -11 181 -11 c 0
 100 -11 81 33 81 103 c 0xd0
 81 227 91 293 91 330 c 0
 91 348 88 352 76 352 c 0xc8
EndSplineSet
EndChar

StartChar: u
Encoding: 117 117 20
Width: 500
VWidth: 0
Flags: W
HStem: -22 21G<339 347> -13 55<172.909 272.49> 366 28<14.2167 50>
VStem: 75 72<66.8647 362.078> 332 71<62.8893 300.583> 333 78<133.422 356.998>
AnchorPoint: "top" 225 459 basechar 0
AnchorPoint: "l;bl" 30 10 basechar 0
AnchorPoint: "l;x" 0 380 basechar 0
AnchorPoint: "l;o" 10 210 basechar 0
AnchorPoint: "r;bl" 500 10 basechar 0
AnchorPoint: "r;x" 480 380 basechar 0
AnchorPoint: "r;o" 480 210 basechar 0
LayerCount: 3
Fore
SplineSet
50 363 m 2x74
 29 366 l 2
 18 368 14 373 14 378 c 0
 14 386 22 394 45 394 c 2
 135 395 l 2
 155 395 158 383 158 376 c 0
 158 364 147 336 147 169 c 0
 147 104 151 42 232 42 c 0
 272 42 332 62 332 91 c 0x78
 332 160 333 247 333 320 c 0
 333 388 243 345 243 380 c 0
 243 390 255 396 268 396 c 2
 328 396 l 2
 367 396 381 397 393 397 c 0
 404 397 411 387 411 375 c 0x74
 411 355 403 288 403 66 c 0
 403 43 416 39 432 39 c 2
 470 39 l 2
 476 39 485 39 485 29 c 0
 485 14 461 10 397 -7 c 0
 387 -10 351 -22 343 -22 c 0xb8
 335 -22 333 -17 333 -9 c 2
 333 30 l 2
 333 45 323 39 317 35 c 0
 282 11 237 -13 193 -13 c 0
 90 -13 75 59 75 133 c 0
 75 200 78 302 78 331 c 0
 78 354 69 360 50 363 c 2x74
EndSplineSet
EndChar

StartChar: v
Encoding: 118 118 21
Width: 481
VWidth: 0
Flags: W
HStem: -17 21G<237.5 250> 364 33<407.757 471.98>
AnchorPoint: "l;bl" 80 10 basechar 0
AnchorPoint: "l;x" 0 380 basechar 0
AnchorPoint: "l;o" 40 210 basechar 0
AnchorPoint: "r;bl" 401 10 basechar 0
AnchorPoint: "r;x" 481 380 basechar 0
AnchorPoint: "r;o" 441 210 basechar 0
LayerCount: 3
Fore
SplineSet
345 337 m 0
 345 374 283 344 283 378 c 0
 283 392 301 396 314 396 c 0
 351 396 364 394 387 394 c 0
 411 394 432 397 455 397 c 0
 465 397 472 390 472 381 c 0
 472 368 460 366 443 364 c 0
 407 359 393 334 382 305 c 0
 374 284 365 258 359 241 c 0
 332 169 292 75 271 23 c 0
 260 -5 256 -17 244 -17 c 0
 231 -17 217 24 209 42 c 2
 85 319 l 2
 62 370 9 362 9 384 c 0
 9 392 15 397 29 397 c 2
 33 397 l 1
 75 395 80 394 115 394 c 2
 201 394 l 2
 213 394 226 391 226 381 c 0
 226 349 162 372 162 342 c 0
 162 330 201 231 248 129 c 0
 254 116 259 104 265 104 c 0
 268 104 272 108 275 117 c 0
 302 190 345 317 345 337 c 0
EndSplineSet
EndChar

StartChar: w
Encoding: 119 119 22
Width: 766
VWidth: 0
Flags: W
HStem: -10 21G<230 241 517 529> 367 30<164.597 231.566 443.551 509.986 570.217 631.703 693.032 756.761> 375 27<10.0647 62.5463 290.327 338.929>
VStem: 348 95<294.277 365.669> 633 124<330.5 389.5>
AnchorPoint: "top" 387 459 basechar 0
AnchorPoint: "l;bl" 80 10 basechar 0
AnchorPoint: "l;x" 0 380 basechar 0
AnchorPoint: "l;o" 40 210 basechar 0
AnchorPoint: "r;bl" 686 10 basechar 0
AnchorPoint: "r;x" 766 380 basechar 0
AnchorPoint: "r;o" 726 210 basechar 0
LayerCount: 3
Fore
SplineSet
510 382 m 0xd8
 510 372 491 369 473 367 c 0
 455 365 443 363 443 347 c 0
 443 336 504 181 534 120 c 0
 540 107 546 105 553 120 c 0
 586 187 633 316 633 345 c 0
 633 354 627 367 604 370 c 0
 589 372 570 371 570 384 c 0
 570 399 585 399 595 399 c 0
 621 399 646 396 673 396 c 0
 697 396 729 397 740 397 c 0xd8
 749 397 757 394 757 385 c 0
 757 372 748 368 728 365 c 0
 688 359 680 345 658 289 c 0
 620 192 590 116 552 31 c 0
 539 2 536 -10 522 -10 c 0
 512 -10 505 -5 494 24 c 0
 467 96 430 181 393 261 c 0
 384 281 380 292 375 292 c 0
 371 292 368 285 361 267 c 2
 268 34 l 2
 253 -3 246 -13 236 -13 c 0
 224 -13 221 -2 208 26 c 0
 161 132 122 233 78 337 c 0
 65 367 51 372 40 375 c 0
 20 381 9 383 9 393 c 0
 9 401 17 402 25 402 c 0xb8
 34 402 93 398 110 398 c 0
 152 398 194 399 207 399 c 0
 215 399 232 398 232 385 c 0
 232 372 215 371 198 369 c 0
 170 366 161 351 161 340 c 0
 161 329 166 314 171 299 c 0
 187 253 217 175 249 108 c 0
 255 96 260 92 265 104 c 0
 292 171 348 316 348 343 c 0
 348 354 343 366 312 372 c 0
 299 375 290 375 290 386 c 0
 290 397 303 398 310 398 c 0
 314 398 354 395 387 395 c 0
 414 395 450 397 478 397 c 0
 491 397 510 393 510 382 c 0xd8
EndSplineSet
EndChar

StartChar: x
Encoding: 120 120 23
Width: 483
VWidth: 0
Flags: W
HStem: -1 28<16.2101 56 162.426 212.971 410.425 465.381> 372 29<26.012 60 408.451 473.974>
VStem: 213 72<178.812 224.25>
DStem2: 127 72 169 64 0.62302 0.782206<0.907059 127.701 224.313 359.786> 250 261 130 312 0.582347 -0.81294<-109.064 12.3516 82.1803 214.616>
AnchorPoint: "l;bl" 0 10 basechar 0
AnchorPoint: "l;x" 15 380 basechar 0
AnchorPoint: "l;o" 20 210 basechar 0
AnchorPoint: "r;bl" 483 10 basechar 0
AnchorPoint: "r;x" 483 380 basechar 0
AnchorPoint: "r;o" 473 210 basechar 0
LayerCount: 3
Fore
SplineSet
266 14 m 0
 266 35 310 21 310 39 c 0
 310 59 270 111 247 143 c 0
 239 155 235 153 225 142 c 0
 202 115 185 89 169 64 c 0
 164 57 162 51 162 45 c 0
 162 35 169 28 187 27 c 0
 203 26 213 24 213 14 c 0
 213 3 205 -1 187 -1 c 0
 164 -1 137 1 114 1 c 0
 90 1 54 -1 31 -1 c 0
 21 -1 16 4 16 10 c 0
 16 23 24 24 39 27 c 2
 56 30 l 2
 92 36 105 47 127 72 c 2
 201 160 l 2
 209 169 213 177 213 185 c 0
 213 191 211 197 206 204 c 2
 130 312 l 2
 112 338 91 365 60 370 c 2
 47 372 l 2
 30 375 26 379 26 386 c 0
 26 397 35 401 47 401 c 2
 201 400 l 2
 227 400 234 393 234 387 c 0
 234 365 194 384 194 356 c 0
 194 336 217 308 250 261 c 0
 257 251 265 252 274 263 c 0
 328 330 341 352 341 362 c 0
 341 376 297 364 297 387 c 0
 297 395 305 403 324 403 c 0
 335 403 365 401 388 401 c 0
 399 401 436 403 451 403 c 0
 465 403 474 396 474 387 c 0
 474 380 468 373 454 370 c 0
 431 366 418 367 396 349 c 0
 364 322 326 277 292 234 c 0
 287 228 285 222 285 217 c 0
 285 206 293 197 302 185 c 2
 399 53 l 2
 414 33 425 31 449 25 c 0
 462 22 466 17 466 8 c 0
 466 -3 452 -3 443 -3 c 0
 421 -3 401 0 364 0 c 2
 289 0 l 2
 280 0 266 1 266 14 c 0
EndSplineSet
EndChar

StartChar: y
Encoding: 121 121 24
Width: 491
VWidth: 0
Flags: W
HStem: -248 79<30.1326 117.11> 369 28<9.04901 71.7356 166.925 220.906 288.013 351.334 418.959 481.991>
AnchorPoint: "top" 248 459 basechar 0
AnchorPoint: "l;bl" 80 10 basechar 0
AnchorPoint: "l;x" 0 380 basechar 0
AnchorPoint: "l;hi" 0 660 basechar 0
AnchorPoint: "l;o" 40 210 basechar 0
AnchorPoint: "l;lo" 20 -200 basechar 0
AnchorPoint: "r;bl" 371 10 basechar 0
AnchorPoint: "r;x" 491 380 basechar 0
AnchorPoint: "r;hi" 491 660 basechar 0
AnchorPoint: "r;o" 431 210 basechar 0
LayerCount: 3
Fore
SplineSet
70 -248 m 0
 39 -248 25 -226 25 -207 c 0
 25 -187 41 -169 72 -169 c 0
 85 -169 95 -171 103 -171 c 0
 111 -171 117 -169 123 -159 c 0
 161 -99 208 -8 208 -2 c 0
 208 1 180 70 173 89 c 2
 88 324 l 2
 76 358 65 365 42 368 c 0
 24 370 9 372 9 384 c 0
 9 397 26 398 34 398 c 0
 67 398 118 396 127 396 c 0
 151 396 177 397 201 397 c 0
 214 397 221 391 221 384 c 0
 221 377 213 371 198 369 c 0
 179 366 166 366 166 348 c 0
 166 327 207 222 244 120 c 0
 246 114 249 112 252 112 c 0
 256 112 260 118 264 126 c 0
 290 179 325 261 342 312 c 0
 347 326 352 340 352 350 c 0
 352 360 346 367 329 367 c 2
 316 367 l 2
 306 367 288 369 288 383 c 0
 288 393 297 400 315 400 c 0
 329 400 358 397 389 397 c 0
 416 397 444 398 456 398 c 0
 473 398 482 392 482 383 c 0
 482 368 469 366 449 364 c 0
 417 361 400 344 391 324 c 0
 316 159 260 19 171 -144 c 0
 150 -183 121 -248 70 -248 c 0
EndSplineSet
EndChar

StartChar: z
Encoding: 122 122 25
Width: 398
VWidth: 0
Flags: W
HStem: 0 42<150 308.619> 0 35<131.005 272> 362 39<101.346 247.999> 388 20G<335 359.5>
DStem2: 64 75 134 52 0.569641 0.821894<12.7653 337.095>
AnchorPoint: "top" 218 459 basechar 0
AnchorPoint: "l;bl" 0 10 basechar 0
AnchorPoint: "l;x" 0 380 basechar 0
AnchorPoint: "l;o" 0 210 basechar 0
AnchorPoint: "r;bl" 398 10 basechar 0
AnchorPoint: "r;x" 398 380 basechar 0
AnchorPoint: "r;o" 398 210 basechar 0
LayerCount: 3
Fore
SplineSet
101 450 m 0x60
 101 439 100 429 100 422 c 0
 100 408 105 401 133 401 c 0x60
 163 401 316 408 354 408 c 0
 365 408 372 402 372 393 c 0
 372 386 359 368 347 354 c 0
 307 304 187 128 134 52 c 0
 132 49 131 46 131 44 c 0
 131 38 138 35 150 35 c 2x50
 272 42 l 2x80
 304 43 310 62 324 96 c 0
 332 116 340 145 354 145 c 0
 360 145 366 137 366 122 c 0
 366 108 360 72 360 56 c 0
 360 47 361 34 361 24 c 0
 361 12 361 0 348 0 c 2
 69 0 l 2
 26 0 26 8 26 15 c 0
 26 26 49 50 64 75 c 0
 106 143 200 277 236 331 c 0
 240 337 248 350 248 358 c 0
 248 362 246 365 239 365 c 2
 159 362 l 2
 101 360 81 358 59 302 c 0
 55 294 49 291 44 291 c 0
 37 291 30 298 30 311 c 0
 30 332 59 398 72 444 c 0
 75 456 85 463 92 463 c 0
 97 463 101 459 101 450 c 0x60
EndSplineSet
EndChar

StartChar: A
Encoding: 65 65 26
Width: 709
VWidth: 0
Flags: W
HStem: -8 43<25.0073 98.6747> 0 38<56 99.0164 163.004 252.664 398.046 486.759 584.061 683.24> 294 44<272.994 399.999> 652 20G<363.5 379>
VStem: 25 138<6.5 59>
DStem2: 100 59 167 80 0.385185 0.922839<21.7593 285.508> 458 431 424 270 0.30782 -0.951445<110.436 361.309>
AnchorPoint: "top" 370 670 basechar 0
AnchorPoint: "l;bl" 0 10 basechar 0
AnchorPoint: "l;x" 80 380 basechar 0
AnchorPoint: "l;hi" 160 660 basechar 0
AnchorPoint: "l;o" 40 210 basechar 0
AnchorPoint: "r;bl" 709 10 basechar 0
AnchorPoint: "r;x" 629 380 basechar 0
AnchorPoint: "r;hi" 569 660 basechar 0
AnchorPoint: "r;o" 669 210 basechar 0
LayerCount: 3
Fore
SplineSet
273 357 m 0x38
 273 355 265 338 280 338 c 2
 390 338 l 2
 398 338 400 346 400 347 c 0
 400 354 343 527 341 527 c 0
 337 527 273 364 273 357 c 0x38
433 37 m 2
 444 37 l 2
 466 37 487 40 487 60 c 0
 487 73 472 116 456 168 c 0
 444 206 433 245 424 270 c 0
 416 292 415 294 402 294 c 2
 263 294 l 2
 249 294 247 293 240 276 c 2
 221 226 l 2
 208 190 178 118 167 80 c 0
 164 70 163 62 163 56 c 0
 163 44 169 39 186 38 c 2
 216 36 l 2
 235 35 253 30 253 16 c 0
 253 6 246 -3 228 -3 c 0
 207 -3 174 0 144 0 c 0x78
 104 0 64 -8 50 -8 c 0
 32 -8 25 -1 25 14 c 0
 25 27 35 31 56 35 c 2xb8
 76 38 l 2
 86 39 95 48 100 59 c 2
 340 634 l 2
 349 655 356 672 371 672 c 0
 387 672 390 652 393 642 c 0
 414 567 434 505 458 431 c 0
 494 316 543 167 580 64 c 0
 590 37 623 37 644 34 c 0
 657 32 684 31 684 15 c 0
 684 6 676 0 650 0 c 0x78
 620 0 558 2 537 2 c 0
 478 2 440 -2 424 -2 c 0
 404 -2 398 6 398 18 c 0
 398 35 414 37 433 37 c 2
EndSplineSet
EndChar

StartChar: B
Encoding: 66 66 27
Width: 585
VWidth: 0
Flags: W
HStem: -2 35<10.0659 108.609> 0 44<213.194 391.63> 346 30<207.046 337.937> 611 38<18.6389 112.158> 618 40<206.146 345.189>
VStem: 118 89<55.1657 345.765 376.009 608.429> 418 2<375 502> 453 92<122.168 274.083>
AnchorPoint: "l;bl" 0 10 basechar 0
AnchorPoint: "l;x" 0 380 basechar 0
AnchorPoint: "l;hi" 0 660 basechar 0
AnchorPoint: "l;o" 0 210 basechar 0
AnchorPoint: "r;bl" 585 10 basechar 0
AnchorPoint: "r;x" 585 380 basechar 0
AnchorPoint: "r;hi" 585 660 basechar 0
AnchorPoint: "r;o" 585 210 basechar 0
LayerCount: 3
Fore
SplineSet
418 502 m 0x2f
 418 580 330 618 252 618 c 2
 228 618 l 2
 214 618 206 614 206 594 c 2
 205 401 l 2
 205 388 206 376 216 376 c 0
 321 376 418 390 418 502 c 0x2f
118 575 m 2
 118 611 92 611 68 611 c 2
 37 611 l 2
 24 611 17 612 17 622 c 0
 17 634 24 645 70 649 c 0xb7
 133 654 233 658 273 658 c 0
 409 658 508 613 508 509 c 0
 508 411 420 378 420 375 c 0
 420 373 545 362 545 215 c 0
 545 98 460 27 361 8 c 0
 325 2 284 0 241 0 c 0x6f
 217 0 178 2 154 2 c 0
 110 2 83 -1 40 -2 c 0
 20 -2 10 3 10 17 c 0
 10 30 20 33 35 33 c 2
 56 33 l 2xa7
 105 33 118 53 118 80 c 2
 118 575 l 2
208 79 m 0
 208 51 262 44 294 44 c 0x67
 416 44 453 109 453 193 c 0
 453 253 422 309 366 329 c 0
 332 341 262 346 240 346 c 0
 209 346 207 342 207 335 c 0
 207 257 208 161 208 79 c 0
EndSplineSet
EndChar

StartChar: C
Encoding: 67 67 28
Width: 678
VWidth: 0
Flags: W
HStem: -13 48<281.752 490.414> 626 42<295.903 483.408>
VStem: 40 100<196.006 436.108> 532 34<551.396 582.894>
AnchorPoint: "top" 385 670 basechar 0
AnchorPoint: "cedilla" 361 -79 basechar 0
AnchorPoint: "l;bl" 0 10 basechar 0
AnchorPoint: "l;x" 0 380 basechar 0
AnchorPoint: "l;hi" 0 660 basechar 0
AnchorPoint: "l;o" 0 210 basechar 0
AnchorPoint: "r;bl" 678 10 basechar 0
AnchorPoint: "r;x" 658 380 basechar 0
AnchorPoint: "r;hi" 678 660 basechar 0
AnchorPoint: "r;o" 678 210 basechar 0
LayerCount: 3
Fore
SplineSet
595 174 m 0
 603 174 608 168 608 156 c 0
 608 138 599 103 596 62 c 0
 594 40 577 35 546 21 c 0
 473 -12 391 -13 356 -13 c 0
 155 -13 40 141 40 310 c 0
 40 472 145 668 396 668 c 0
 464 668 506 659 542 644 c 0
 558 638 563 630 566 611 c 0
 569 596 577 559 577 551 c 0
 577 540 569 536 562 536 c 0
 551 536 538 557 532 565 c 0
 513 591 468 626 394 626 c 0
 235 626 140 491 140 345 c 0
 140 108 261 35 386 35 c 0
 446 35 473 46 499 62 c 0
 527 79 545 91 566 134 c 2
 575 152 l 2
 581 162 586 174 595 174 c 0
EndSplineSet
EndChar

StartChar: D
Encoding: 68 68 29
Width: 769
VWidth: 0
Flags: W
HStem: -4 41<30.8697 121.041 206.366 459.905> 614 41<32.0095 124.711 211 384.472>
VStem: 122 87<66.0925 612.191> 612 102<210.255 426.593>
AnchorPoint: "l;bl" 0 10 basechar 0
AnchorPoint: "l;x" 0 380 basechar 0
AnchorPoint: "l;hi" 0 660 basechar 0
AnchorPoint: "l;o" 0 210 basechar 0
AnchorPoint: "r;bl" 769 10 basechar 0
AnchorPoint: "r;x" 769 380 basechar 0
AnchorPoint: "r;hi" 769 660 basechar 0
AnchorPoint: "r;o" 769 210 basechar 0
LayerCount: 3
Fore
SplineSet
30 12 m 0
 30 29 55 29 84 34 c 0
 117 39 122 43 122 74 c 0
 122 89 118 119 118 152 c 0
 118 276 120 475 125 581 c 1
 125 588 l 2
 125 613 115 610 64 617 c 0
 45 620 32 622 32 635 c 0
 32 650 44 653 61 653 c 0
 92 653 142 651 162 651 c 0
 216 651 229 655 282 655 c 0
 378 655 463 649 530 617 c 0
 642 563 714 472 714 315 c 0
 714 243 665 59 494 15 c 0
 440 1 417 -4 325 -4 c 0
 280 -4 208 2 166 2 c 0
 124 2 81 -5 66 -5 c 0
 35 -5 30 2 30 12 c 0
373 37 m 0
 432 37 483 64 524 99 c 0
 587 153 612 232 612 310 c 0
 612 527 430 614 235 614 c 0
 213 614 211 606 211 594 c 0
 209 467 209 338 209 211 c 0
 209 168 209 110 219 82 c 0
 232 47 305 37 373 37 c 0
EndSplineSet
EndChar

StartChar: E
Encoding: 69 69 30
Width: 619
VWidth: 0
Flags: W
HStem: -2 38<5.15141 101.484> 0 45<199.824 506.693> 327 34<203.52 423.013> 611 44<249.748 491.331> 619 40<207.757 358.006> 629 36<28.1145 124.004>
VStem: 108 91<45.7832 320.742> 119 82<361.217 615.189> 433 35<213.193 318.713> 513 32<508.052 578.947> 546 33<129 154.301>
AnchorPoint: "top" 320 670 basechar 0
AnchorPoint: "l;bl" 0 10 basechar 0
AnchorPoint: "l;x" 0 380 basechar 0
AnchorPoint: "l;hi" 0 660 basechar 0
AnchorPoint: "l;o" 0 210 basechar 0
AnchorPoint: "r;bl" 619 10 basechar 0
AnchorPoint: "r;x" 619 380 basechar 0
AnchorPoint: "r;hi" 619 660 basechar 0
AnchorPoint: "r;o" 619 210 basechar 0
LayerCount: 3
Fore
SplineSet
525 655 m 0x31e0
 541 655 545 639 545 627 c 2
 545 526 l 2
 545 516 538 508 528 508 c 0
 517 508 514 518 513 522 c 0
 502 611 470 605 431 611 c 0x31e0
 403 615 284 619 248 619 c 0
 229 619 207 616 207 593 c 0
 207 526 201 475 201 405 c 0x29e0
 201 366 209 361 229 361 c 2
 351 361 l 2
 424 361 424 362 431 391 c 0
 436 410 439 453 456 453 c 0
 467 453 470 445 470 438 c 0
 470 424 465 381 465 344 c 0
 465 262 468 241 468 228 c 0
 468 220 464 212 456 212 c 0
 435 212 435 247 433 269 c 0
 430 298 427 324 395 325 c 2
 226 327 l 2
 203 327 199 315 199 302 c 2
 199 108 l 2
 199 90 199 75 200 65 c 0
 201 51 214 45 227 45 c 2
 417 45 l 2
 489 45 513 58 540 116 c 2
 546 129 l 2
 551 140 558 155 565 155 c 0
 575 155 579 147 579 133 c 0
 579 110 570 80 567 62 c 0
 563 39 560 17 559 8 c 0
 558 -1 548 -3 540 -3 c 0
 496 -3 452 0 409 0 c 2
 145 0 l 2x6ae0
 96 0 53 -2 29 -2 c 0
 18 -2 5 0 5 11 c 0
 5 33 9 36 23 36 c 2
 74 36 l 2
 94 36 102 45 108 82 c 0xa2e0
 113 112 117 263 119 397 c 0
 120 497 125 590 125 604 c 0
 125 626 103 629 77 629 c 2
 49 629 l 2
 37 629 28 638 28 649 c 0
 28 657 32 665 51 665 c 0xa5e0
 59 665 69 664 82 663 c 0
 104 661 132 659 154 659 c 0x29e0
 250 659 427 655 525 655 c 0x31e0
EndSplineSet
EndChar

StartChar: F
Encoding: 70 70 31
Width: 574
VWidth: 0
Flags: HMW
HStem: 3 35<210.602 307.726> 314 36<205.216 425.355> 614 41<206.969 488.9> 625 27<32.0205 117.189>
VStem: 127 78<40.8036 313.965 350.062 607.933> 442 26<227.318 299.956 372.035 441.954> 520 24<511.772 574.686>
AnchorPoint: "l;bl" 0 10 basechar 0
AnchorPoint: "l;x" 0 380 basechar 0
AnchorPoint: "l;hi" 0 660 basechar 0
AnchorPoint: "l;o" 0 210 basechar 0
AnchorPoint: "r;bl" 494 10 basechar 0
AnchorPoint: "r;x" 574 380 basechar 0
AnchorPoint: "r;hi" 574 660 basechar 0
AnchorPoint: "r;o" 534 210 basechar 0
LayerCount: 3
Fore
SplineSet
209 66 m 0x6e
 209 44 225 39 244 38 c 2
 264 37 l 2
 284 36 308 34 308 18 c 0
 308 4 298 1 280 1 c 0
 273 1 219 3 168 3 c 0
 116 3 74 -4 48 -4 c 0
 37 -4 30 2 30 11 c 0
 30 27 60 25 86 32 c 0
 118 40 126 50 126 70 c 0
 126 207 127 449 127 563 c 2
 127 582 l 2
 127 626 94 622 52 625 c 0
 39 625 32 629 32 639 c 0
 32 651 46 652 66 652 c 2
 89 652 l 2x5e
 231 652 374 654 517 655 c 0
 533 655 541 647 541 635 c 2
 544 529 l 2
 544 516 540 511 535 511 c 0
 529 511 521 520 520 533 c 0
 516 573 503 593 470 601 c 0
 419 613 380 614 340 614 c 0
 312 614 288 613 251 611 c 0
 212 608 206 603 206 584 c 2
 207 495 l 2
 207 451 205 407 205 369 c 0
 205 354 211 350 222 350 c 2
 364 352 l 2
 428 353 435 374 438 397 c 2
 442 426 l 2
 443 435 446 442 454 442 c 0
 462 442 465 436 465 424 c 0
 465 410 461 369 461 332 c 0
 461 298 468 253 468 240 c 0
 468 232 464 227 458 227 c 0
 447 227 444 236 443 250 c 2
 442 263 l 2
 438 307 422 313 373 313 c 2
 236 314 l 2
 209 314 203 314 203 296 c 0
 203 282 203 268 204 252 c 0
 206 182 209 97 209 66 c 0x6e
EndSplineSet
EndChar

StartChar: G
Encoding: 71 71 32
Width: 751
VWidth: 0
Flags: W
HStem: -18 39<304.412 507.227> 268 37<417.092 539.266 630 740.831> 638 41<303.158 510.372>
VStem: 40 91<209.146 447.193> 545 85<49.5366 260.458> 593 34<494.316 559.566>
AnchorPoint: "top" 405 670 basechar 0
AnchorPoint: "l;bl" 0 10 basechar 0
AnchorPoint: "l;x" 0 380 basechar 0
AnchorPoint: "l;hi" 0 660 basechar 0
AnchorPoint: "l;o" 0 210 basechar 0
AnchorPoint: "r;bl" 751 10 basechar 0
AnchorPoint: "r;x" 751 380 basechar 0
AnchorPoint: "r;hi" 751 660 basechar 0
AnchorPoint: "r;o" 751 210 basechar 0
LayerCount: 3
Fore
SplineSet
131 344 m 0xf4
 131 139 249 21 404 21 c 0
 485 21 538 48 540 72 c 0
 543 112 545 179 545 230 c 0
 545 266 507 265 472 268 c 0
 445 270 417 270 417 288 c 0
 417 300 425 305 435 305 c 2
 722 305 l 2
 739 305 741 294 741 288 c 0
 741 273 715 272 688 271 c 0
 659 270 631 269 630 250 c 2xf8
 624 57 l 2
 623 36 615 32 588 21 c 0
 543 3 467 -18 381 -18 c 0
 139 -18 40 146 40 325 c 0
 40 502 168 679 430 679 c 0
 496 679 567 660 608 634 c 0
 620 627 623 617 623 608 c 2
 623 566 l 2
 623 546 627 522 627 509 c 0
 627 501 624 494 614 494 c 0
 602 494 599 499 593 522 c 0
 575 587 512 638 419 638 c 0
 190 638 131 465 131 344 c 0xf4
EndSplineSet
EndChar

StartChar: H
Encoding: 72 72 33
Width: 762
VWidth: 0
Flags: W
HStem: -2 33<30.5858 104.156 442.117 535.103> 303 49<200 542.471> 613 37<40.0233 114.504 209.002 295.681 497.571 543.402 631.431 701.982> 620 35<464.009 519>
VStem: 112 88<37.3398 302.975 352.009 612.031> 118 90<351.984 611.407> 545 84<44.7637 302.71 351.371 616.199>
AnchorPoint: "top" 378 670 basechar 0
AnchorPoint: "l;bl" 0 10 basechar 0
AnchorPoint: "l;x" 0 380 basechar 0
AnchorPoint: "l;hi" 0 660 basechar 0
AnchorPoint: "l;o" 0 210 basechar 0
AnchorPoint: "r;bl" 762 10 basechar 0
AnchorPoint: "r;x" 762 380 basechar 0
AnchorPoint: "r;hi" 762 660 basechar 0
AnchorPoint: "r;o" 762 210 basechar 0
LayerCount: 3
Fore
SplineSet
200 62 m 0xea
 200 16 294 47 294 15 c 0
 294 -1 282 -3 264 -3 c 0
 257 -3 213 0 162 0 c 0
 110 0 79 -2 53 -2 c 0
 35 -2 30 2 30 11 c 0
 30 27 53 26 74 31 c 0
 92 35 112 46 112 68 c 0xea
 112 84 112 219 114 348 c 0
 116 434 118 511 118 547 c 2
 118 566 l 2
 118 593 113 611 92 612 c 2
 60 613 l 2
 48 613 40 618 40 631 c 0
 40 647 58 650 82 650 c 0
 108 650 135 649 161 649 c 0
 204 649 263 653 273 653 c 0
 282 653 296 652 296 634 c 0
 296 617 268 616 250 615 c 2
 231 614 l 2
 212 613 210 610 208 584 c 0xe6
 203 515 203 459 200 376 c 0
 200 374 200 372 200 370 c 0
 200 355 203 352 223 352 c 2
 516 351 l 2
 539 351 543 358 544 394 c 0
 545 426 545 456 545 482 c 0
 545 534 544 571 544 580 c 0
 544 606 541 614 519 617 c 2
 494 620 l 2
 476 622 464 626 464 637 c 0
 464 651 477 655 492 655 c 0xda
 503 655 564 650 586 650 c 0
 598 650 647 649 673 649 c 0
 697 649 702 641 702 632 c 0
 702 618 677 618 658 617 c 0
 635 616 631 610 631 582 c 0
 631 509 629 434 629 347 c 0
 629 236 628 131 628 80 c 0
 628 20 732 42 732 13 c 0
 732 0 718 0 700 0 c 0
 693 0 639 2 588 2 c 0
 536 2 483 -6 457 -6 c 0
 446 -6 441 -1 441 8 c 0
 441 23 454 25 473 26 c 2
 490 27 l 2
 506 28 539 32 541 66 c 0
 543 107 545 174 545 242 c 2
 545 286 l 2
 545 302 535 303 508 303 c 2
 227 303 l 2
 203 303 199 302 199 287 c 0
 199 255 202 222 202 191 c 0
 202 135 200 86 200 62 c 0xea
EndSplineSet
EndChar

StartChar: I
Encoding: 73 73 34
Width: 330
VWidth: 0
Flags: W
HStem: -6 34<10.0349 103.904 245.625 304.578> 616 38<15.8558 114.653 213.545 303.99>
VStem: 109 90<41.4682 321> 118 86<332.342 607.72>
AnchorPoint: "top" 160 670 basechar 0
AnchorPoint: "l;bl" 0 10 basechar 0
AnchorPoint: "l;x" 0 380 basechar 0
AnchorPoint: "l;hi" 0 660 basechar 0
AnchorPoint: "l;o" 0 210 basechar 0
AnchorPoint: "r;bl" 330 10 basechar 0
AnchorPoint: "r;x" 330 380 basechar 0
AnchorPoint: "r;hi" 330 660 basechar 0
AnchorPoint: "r;o" 330 210 basechar 0
LayerCount: 3
Fore
SplineSet
275 616 m 0xd0
 226 614 204 611 204 552 c 0xd0
 204 415 199 218 199 68 c 0
 199 46 219 40 243 36 c 2
 264 33 l 2
 284 30 305 26 305 14 c 0
 305 3 293 0 276 0 c 0
 269 0 217 2 166 2 c 0
 114 2 54 -6 28 -6 c 0
 17 -6 10 1 10 10 c 0
 10 25 22 27 38 28 c 2
 66 30 l 2
 97 32 107 34 109 65 c 0xe0
 111 94 118 547 118 580 c 0
 118 614 89 618 60 619 c 0
 37 620 15 623 15 640 c 0
 15 654 25 657 39 657 c 0
 68 657 78 652 164 652 c 0
 233 652 253 654 268 654 c 0
 290 654 304 650 304 635 c 0
 304 619 291 617 275 616 c 0xd0
EndSplineSet
EndChar

StartChar: J
Encoding: 74 74 35
Width: 326
VWidth: 0
Flags: W
HStem: -243 38<-15.9968 74.8098> 616 42<5.35758 115.34> 623 39<213.448 295.818>
VStem: -100 79<-200.169 -141.401> 118 93<320.382 612.903> 127 89<-102.072 371.144>
AnchorPoint: "top" 150 670 basechar 0
AnchorPoint: "l;bl" 0 10 basechar 0
AnchorPoint: "l;x" 0 380 basechar 0
AnchorPoint: "l;hi" 0 660 basechar 0
AnchorPoint: "l;o" 0 210 basechar 0
AnchorPoint: "l;k;lo" -100 -200 basechar 0
AnchorPoint: "r;bl" 326 10 basechar 0
AnchorPoint: "r;x" 326 380 basechar 0
AnchorPoint: "r;hi" 326 660 basechar 0
AnchorPoint: "r;o" 326 210 basechar 0
LayerCount: 3
Fore
SplineSet
-32 -65 m 0xb4
 -6 -65 17 -83 17 -112 c 0
 17 -143 -21 -145 -21 -171 c 0
 -21 -194 1 -205 27 -205 c 0
 94 -205 120 -120 123 -54 c 0
 126 2 127 60 127 121 c 0xb4
 127 269 120 429 118 580 c 0
 118 606 101 616 78 616 c 2
 31 616 l 2
 15 616 5 621 5 633 c 0
 5 646 15 658 34 658 c 2
 122 658 l 2xd8
 176 658 257 662 279 662 c 0
 291 662 296 653 296 645 c 0
 296 626 271 625 252 623 c 0
 229 620 211 622 211 584 c 0xb8
 211 429 216 219 216 82 c 0
 216 -55 196 -118 164 -164 c 0
 130 -213 72 -243 14 -243 c 0
 -50 -243 -100 -198 -100 -148 c 0
 -100 -102 -70 -65 -32 -65 c 0xb4
EndSplineSet
EndChar

StartChar: K
Encoding: 75 75 36
Width: 685
VWidth: 0
Flags: HMW
HStem: 0 39<15.2725 115.733 209.857 312.985 354.017 446.99 590.434 679.803> 312 36<207.023 238.915> 610 41<218.602 293.818 371.267 447.527> 621 39<546.694 644.883>
VStem: 115 91<45.9822 311.996 348.004 454.513> 126 92<365.617 601>
DStem2: 323 335 236 298 0.66629 -0.745693<-36.6562 292.657> 256 380 319 388 0.716521 0.697565<19.119 286.271>
AnchorPoint: "l;bl" 0 10 basechar 0
AnchorPoint: "l;x" 0 380 basechar 0
AnchorPoint: "l;hi" 0 660 basechar 0
AnchorPoint: "l;o" 0 210 basechar 0
AnchorPoint: "r;bl" 685 10 basechar 0
AnchorPoint: "r;x" 605 380 basechar 0
AnchorPoint: "r;hi" 685 660 basechar 0
AnchorPoint: "r;o" 645 210 basechar 0
LayerCount: 3
Fore
SplineSet
354 20 m 0xd8
 354 36 378 38 404 39 c 0
 434 40 447 43 447 53 c 0
 447 60 441 69 429 82 c 2
 236 298 l 2
 230 304 221 312 215 312 c 0
 210 312 207 307 207 294 c 2
 206 83 l 2
 206 48 215 44 273 40 c 0
 292 39 313 35 313 20 c 0
 313 0 304 0 286 0 c 2
 170 0 l 2
 116 0 79 -2 51 -2 c 0
 39 -2 15 1 15 16 c 0
 15 37 31 39 51 39 c 2
 87 39 l 2
 101 39 116 45 116 62 c 0
 116 72 115 126 115 201 c 0xd8
 115 323 126 569 126 585 c 0
 126 600 98 603 77 605 c 0
 49 607 25 607 25 622 c 0
 25 639 35 644 59 644 c 0
 97 644 133 645 169 646 c 0
 201 647 257 651 266 651 c 0
 284 651 294 642 294 633 c 0
 294 618 281 613 263 610 c 0
 235 606 218 598 218 586 c 0xe4
 216 527 206 376 206 365 c 0
 206 353 209 348 214 348 c 0
 225 348 244 368 256 380 c 0
 284 407 343 472 423 553 c 0
 429 559 448 576 448 595 c 0
 448 603 443 608 428 609 c 0
 394 611 371 610 371 634 c 0
 371 640 373 651 406 652 c 0
 426 653 485 653 498 654 c 0
 532 656 611 660 624 660 c 0
 641 660 645 650 645 642 c 0
 645 626 627 624 610 621 c 0
 555 613 534 597 508 572 c 0
 484 548 459 526 429 497 c 2
 319 388 l 2
 305 374 299 368 299 363 c 0
 299 357 308 351 323 335 c 0
 382 273 555 82 590 53 c 0
 599 46 625 41 638 41 c 0
 663 40 680 41 680 24 c 0
 680 0 671 -2 650 -2 c 0
 613 -2 600 0 528 0 c 2
 379 0 l 2
 376 0 354 0 354 20 c 0xd8
EndSplineSet
EndChar

StartChar: L
Encoding: 76 76 37
Width: 589
VWidth: 0
Flags: W
HStem: 0 38<211.097 433.553> 616 32<16.3406 119.86 215.393 280.25> 624 33<261 331.267>
VStem: 122 84<42.0008 613.928>
AnchorPoint: "right" 360 459 basechar 0
AnchorPoint: "top" 170 670 basechar 0
AnchorPoint: "l;bl" 0 10 basechar 0
AnchorPoint: "l;x" 0 380 basechar 0
AnchorPoint: "l;hi" 0 660 basechar 0
AnchorPoint: "l;o" 0 210 basechar 0
AnchorPoint: "r;bl" 589 10 basechar 0
AnchorPoint: "r;x" 549 380 basechar 0
AnchorPoint: "r;o" 589 210 basechar 0
LayerCount: 3
Fore
SplineSet
209 69 m 0xb0
 209 60 214 38 232 38 c 0
 255 38 423 44 465 58 c 0
 530 79 538 171 556 171 c 0
 565 171 569 162 569 148 c 0
 569 132 566 111 564 91 c 0
 562 63 561 43 561 21 c 0
 561 5 546 0 528 0 c 2
 166 0 l 2
 114 0 50 -6 24 -6 c 0
 13 -6 0 -3 0 7 c 0
 0 39 119 13 119 73 c 0
 119 102 122 545 122 578 c 0
 122 609 118 613 86 616 c 2
 56 618 l 2
 34 619 16 620 16 635 c 0
 16 649 26 650 32 650 c 0
 53 650 61 648 136 648 c 0xd0
 247 648 293 657 309 657 c 0
 325 657 332 652 332 645 c 0
 332 625 303 626 283 624 c 2
 261 622 l 2
 217 618 207 611 207 530 c 2
 206 357 l 2
 206 240 206 116 209 69 c 0xb0
EndSplineSet
EndChar

StartChar: M
Encoding: 77 77 38
Width: 917
VWidth: -2
Flags: W
HStem: 0 33<20.0712 110.504 179.471 297.155 595.298 693.562 800.292 906.607> 612 36<783.291 895.391> 619 34<33.3103 136.775>
VStem: 116 51<43.3986 293.828> 137 37<491 599> 699 79<333.347 520.996> 702 88<43.1695 323.25>
DStem2: 225 645 199 491 0.454907 -0.890539<93.2257 553.949> 502 196 472 27 0.396027 0.918239<-51.4957 373.574>
AnchorPoint: "l;bl" 0 10 basechar 0
AnchorPoint: "l;x" 0 380 basechar 0
AnchorPoint: "l;hi" 0 660 basechar 0
AnchorPoint: "l;o" 0 210 basechar 0
AnchorPoint: "r;bl" 917 10 basechar 0
AnchorPoint: "r;x" 917 380 basechar 0
AnchorPoint: "r;hi" 917 660 basechar 0
AnchorPoint: "r;o" 917 210 basechar 0
LayerCount: 3
Fore
SplineSet
435 29 m 2xc4
 199 491 l 2
 196 496 187 518 181 518 c 0
 177 518 175 510 174 491 c 0xcc
 169 405 167 183 167 110 c 0
 167 46 175 41 229 35 c 0
 265 31 298 33 298 11 c 0
 298 -1 290 -2 277 -2 c 0
 244 -2 195 2 149 2 c 0
 117 2 62 0 40 0 c 0
 31 0 20 0 20 15 c 0
 20 33 39 32 60 33 c 0
 113 36 114 44 116 85 c 0xd0
 121 222 137 586 137 599 c 0
 137 613 125 612 89 619 c 0
 60 625 33 624 33 638 c 0
 33 650 43 653 61 653 c 2
 203 653 l 2xa8
 209 653 221 652 225 645 c 0
 301 497 371 366 449 198 c 0
 463 167 469 151 476 151 c 0
 482 151 489 166 502 196 c 2
 669 583 l 2
 675 597 683 618 691 635 c 0
 697 647 698 649 707 649 c 0
 737 648 755 648 780 648 c 2
 814 648 l 2
 857 648 869 649 875 649 c 0
 888 649 897 643 897 636 c 0
 897 618 861 616 829 612 c 0
 808 609 789 605 783 597 c 0
 779 591 778 581 778 570 c 0xcc
 778 506 790 142 790 72 c 0
 790 42 818 40 862 33 c 0
 887 29 907 26 907 14 c 0
 907 2 899 0 874 0 c 0
 863 0 806 2 750 2 c 0
 694 2 640 -5 631 -5 c 0
 602 -5 595 1 595 14 c 0
 595 30 621 30 647 32 c 0
 681 34 702 42 702 80 c 2xc2
 702 80 701 384 699 498 c 0
 699 515 696 521 692 521 c 0
 687 521 681 512 676 500 c 2
 472 27 l 2
 466 13 461 7 455 7 c 0
 449 7 442 15 435 29 c 2xc4
EndSplineSet
EndChar

StartChar: N
Encoding: 78 78 39
Width: 751
VWidth: 0
Flags: W
HStem: -27 21G<617 628> -1 33<23.0145 118.808 172.819 285.802> 620 38<15.0782 107.363> 632 34<469.157 579.695 643.377 725.945>
VStem: 115 39<348.284 506.996> 124 44<37.3789 266.363> 588 48<364.801 620.712> 600 39<129.007 383.589>
DStem2: 177 629 182 486 0.636047 -0.771651<82.8481 651.568>
AnchorPoint: "top" 380 670 basechar 0
AnchorPoint: "l;bl" 0 10 basechar 0
AnchorPoint: "l;x" 0 380 basechar 0
AnchorPoint: "l;hi" 0 660 basechar 0
AnchorPoint: "l;o" 0 210 basechar 0
AnchorPoint: "r;bl" 751 10 basechar 0
AnchorPoint: "r;x" 751 380 basechar 0
AnchorPoint: "r;hi" 751 660 basechar 0
AnchorPoint: "r;o" 751 210 basechar 0
LayerCount: 3
Fore
SplineSet
177 629 m 0xe8
 307 480 424 340 542 188 c 2
 571 151 l 2
 583 136 591 129 595 129 c 0
 600 129 600 139 600 158 c 2
 600 179 l 2xe9
 600 378 594 473 588 574 c 0
 585 628 580 626 508 632 c 0
 487 634 469 636 469 651 c 0
 469 657 473 666 491 666 c 0
 498 666 556 663 597 663 c 0
 648 663 675 665 698 665 c 0
 707 665 726 664 726 648 c 0
 726 636 716 632 703 631 c 2
 673 629 l 2
 662 628 651 628 643 621 c 0
 636 615 636 600 636 572 c 0xd2
 636 499 635 429 635 358 c 0
 635 239 636 120 639 -3 c 0
 639 -27 630 -27 626 -27 c 0
 608 -27 603 -14 509 98 c 2
 182 486 l 2
 172 498 164 507 159 507 c 0
 155 507 154 502 154 489 c 2
 154 482 l 1xd9
 158 379 164 129 168 62 c 0
 170 34 204 34 227 33 c 0
 262 31 286 33 286 13 c 0
 286 0 275 -1 260 -1 c 0
 230 -1 189 1 146 1 c 0
 114 1 74 -1 52 -1 c 0
 43 -1 23 0 23 15 c 0
 23 33 41 31 62 32 c 0
 124 36 124 44 124 85 c 0xd4
 124 217 118 457 115 548 c 0
 113 610 108 613 67 620 c 0
 42 624 15 620 15 640 c 0
 15 657 30 658 40 658 c 2
 70 658 l 2
 88 658 107 660 125 660 c 0
 148 660 154 655 177 629 c 0xe8
EndSplineSet
EndChar

StartChar: O
Encoding: 79 79 40
Width: 790
VWidth: 0
Flags: W
HStem: -21 39<309.64 482.326> 620 44<284.945 464.087>
VStem: 40 105<201.957 449.119> 625 105<187.277 430.026>
AnchorPoint: "top" 380 670 basechar 0
AnchorPoint: "l;bl" 0 10 basechar 0
AnchorPoint: "l;x" 0 380 basechar 0
AnchorPoint: "l;hi" 0 660 basechar 0
AnchorPoint: "l;o" 0 210 basechar 0
AnchorPoint: "r;bl" 750 10 basechar 0
AnchorPoint: "r;x" 790 380 basechar 0
AnchorPoint: "r;hi" 790 660 basechar 0
AnchorPoint: "r;o" 790 210 basechar 0
LayerCount: 3
Fore
SplineSet
730 320 m 0
 730 92 574 -21 378 -21 c 0
 198 -21 40 80 40 324 c 0
 40 546 208 664 384 664 c 0
 574 664 730 535 730 320 c 0
145 340 m 0
 145 133 267 18 395 18 c 0
 527 18 625 127 625 296 c 0
 625 490 508 620 379 620 c 0
 225 620 145 487 145 340 c 0
EndSplineSet
EndChar

StartChar: P
Encoding: 80 80 41
Width: 558
VWidth: 0
Flags: W
HStem: -6 21G<34 54> 2 36<211.604 296.642> 266 47<243.593 377.278> 618 42<213.494 353.971>
VStem: 111 99<41.7617 291.097> 124 84<350.151 615.152> 435 93<380.363 541.997>
AnchorPoint: "l;bl" 0 10 basechar 0
AnchorPoint: "l;x" 0 380 basechar 0
AnchorPoint: "l;hi" 0 660 basechar 0
AnchorPoint: "l;o" 0 210 basechar 0
AnchorPoint: "r;bl" 478 10 basechar 0
AnchorPoint: "r;x" 558 380 basechar 0
AnchorPoint: "r;hi" 558 660 basechar 0
AnchorPoint: "r;o" 518 210 basechar 0
LayerCount: 3
Fore
SplineSet
212 558 m 0x36
 211 540 208 442 208 375 c 0
 208 341 210 330 221 324 c 0
 237 316 277 313 296 313 c 0
 385 313 435 367 435 463 c 0
 435 554 368 618 266 618 c 0
 206 618 214 612 212 558 c 0x36
20 10 m 0
 20 46 111 15 111 60 c 0xba
 111 89 124 563 124 596 c 0xb6
 124 638 24 606 24 641 c 0
 24 658 36 661 51 661 c 0
 73 661 135 657 167 657 c 0
 218 657 256 660 318 660 c 0
 398 660 528 638 528 484 c 0
 528 387 473 266 328 266 c 0
 294 266 263 279 243 288 c 0
 229 295 221 300 216 300 c 0
 211 300 210 293 210 277 c 2
 210 66 l 2
 210 40 233 42 258 38 c 0
 288 34 322 32 322 14 c 0
 322 -2 315 -7 297 -7 c 0
 290 -7 242 2 166 2 c 0x7a
 112 2 67 -6 41 -6 c 0xba
 27 -6 20 0 20 10 c 0
EndSplineSet
EndChar

StartChar: Q
Encoding: 81 81 42
Width: 784
VWidth: 0
Flags: W
HStem: -236 56<640.648 751.647> 629 40<272.025 461.119>
VStem: 40 91<211.303 449.182> 624 93<189.028 443.587>
AnchorPoint: "l;bl" 0 10 basechar 0
AnchorPoint: "l;x" 0 380 basechar 0
AnchorPoint: "l;hi" 0 660 basechar 0
AnchorPoint: "l;o" 0 210 basechar 0
AnchorPoint: "r;bl" 784 10 basechar 0
AnchorPoint: "r;x" 784 380 basechar 0
AnchorPoint: "r;hi" 784 660 basechar 0
AnchorPoint: "r;o" 784 210 basechar 0
AnchorPoint: "r;k;lo" 804 -200 basechar 0
LayerCount: 3
Fore
SplineSet
376 18 m 0
 509 18 624 124 624 296 c 0
 624 494 530 629 361 629 c 0
 205 629 131 483 131 335 c 0
 131 159 255 18 376 18 c 0
374 669 m 0
 595 669 717 534 717 321 c 0
 717 71 539 17 454 2 c 0
 431 -2 423 -7 423 -13 c 0
 423 -22 440 -33 459 -46 c 0
 538 -101 645 -180 722 -180 c 0
 761 -180 770 -171 782 -171 c 0
 790 -171 794 -177 794 -184 c 0
 794 -191 787 -199 778 -202 c 0
 748 -215 714 -236 662 -236 c 0
 522 -236 448 -120 308 -20 c 0
 296 -12 286 -1 270 4 c 0
 142 45 40 146 40 310 c 0
 40 546 187 669 374 669 c 0
EndSplineSet
AlternateSubs2: "'aalt' Access All Alternates lookup 0 subtable" Q.001 Q.002
AlternateSubs2: "'aalt' Access All Alternates in Latin lookup 0 subtable" Q.001 Q.002
AlternateSubs2: "'salt' Stylistic Alternatives in Latin lookup 2 subtable" Q.001 Q.002
EndChar

StartChar: R
Encoding: 82 82 43
Width: 661
VWidth: 0
Flags: W
HStem: -3 35<20.0145 113.768 258 317.948 608.857 655.971> 4 28<38.9407 112.396> 325 24<210.089 278.278> 621 35<36.2808 124.064 211.671 316.698>
VStem: 117 91<42.0524 310.268> 128 80<320.55 325 349.227 618.424> 401 90<408.709 556.561>
AnchorPoint: "top" 275 670 basechar 0
AnchorPoint: "l;bl" 0 10 basechar 0
AnchorPoint: "l;x" 0 380 basechar 0
AnchorPoint: "l;hi" 0 660 basechar 0
AnchorPoint: "l;o" 0 210 basechar 0
AnchorPoint: "r;bl" 661 10 basechar 0
AnchorPoint: "r;x" 581 380 basechar 0
AnchorPoint: "r;hi" 541 660 basechar 0
AnchorPoint: "r;o" 621 210 basechar 0
LayerCount: 3
Fore
SplineSet
208 292 m 2xba
 208 70 l 2
 208 43 228 42 258 36 c 2
 280 32 l 2
 300 28 318 24 318 14 c 0
 318 -2 308 -3 296 -3 c 0xba
 289 -3 219 4 168 4 c 0x7a
 82 4 58 -1 38 -1 c 0
 24 -1 20 6 20 15 c 0
 20 29 40 28 54 29 c 2
 88 32 l 2
 108 34 114 43 117 62 c 0xba
 120 87 128 450 128 564 c 0xb6
 128 612 125 621 76 621 c 2
 63 621 l 2
 48 621 35 622 35 633 c 0
 35 654 72 656 110 656 c 2
 164 656 l 2
 189 656 230 659 246 659 c 0
 379 659 491 626 491 496 c 0
 491 413 451 370 388 346 c 0
 366 338 358 337 358 333 c 0
 358 330 363 325 371 313 c 0
 418 246 465 168 508 96 c 0
 532 57 543 49 593 39 c 2
 630 32 l 2
 646 29 656 24 656 14 c 0
 656 -1 647 -2 631 -2 c 0
 585 -2 548 0 502 0 c 0
 453 0 440 21 430 41 c 2
 298 292 l 2
 290 306 275 325 252 325 c 2
 229 325 l 2
 211 325 208 315 208 292 c 2xba
211 594 m 0
 211 576 209 443 209 376 c 0
 209 351 212 349 242 349 c 0
 331 349 401 385 401 485 c 0
 401 574 328 619 230 619 c 0
 211 619 211 602 211 594 c 0
EndSplineSet
EndChar

StartChar: S
Encoding: 83 83 44
Width: 512
VWidth: 0
Flags: W
HStem: -19 45<167.19 343.087> 629 44<174.895 317.081>
VStem: 62 30<107.609 192.939> 71 59<463.331 581.81> 362 34<502.731 576.958> 398 54<86.0647 204.176>
AnchorPoint: "top" 250 670 basechar 0
AnchorPoint: "cedilla" 256 -79 basechar 0
AnchorPoint: "l;bl" 0 10 basechar 0
AnchorPoint: "l;x" 0 380 basechar 0
AnchorPoint: "l;hi" 0 660 basechar 0
AnchorPoint: "l;o" 0 210 basechar 0
AnchorPoint: "r;bl" 512 10 basechar 0
AnchorPoint: "r;x" 512 380 basechar 0
AnchorPoint: "r;hi" 512 660 basechar 0
AnchorPoint: "r;o" 512 210 basechar 0
LayerCount: 3
Fore
SplineSet
130 514 m 0xdc
 130 452 208 419 288 378 c 0
 370 336 452 284 452 174 c 0
 452 78 380 -19 250 -19 c 0
 193 -19 124 -4 93 6 c 0
 67 14 60 15 60 25 c 0
 60 51 62 74 62 96 c 2
 62 160 l 2
 62 172 64 193 76 193 c 0
 91 193 90 172 92 158 c 0xec
 97 123 105 106 123 83 c 0
 152 46 206 26 266 26 c 0
 351 26 398 86 398 142 c 0
 398 230 296 264 208 310 c 0
 133 349 71 409 71 500 c 0
 71 594 148 673 263 673 c 0
 312 673 348 663 386 648 c 0
 395 644 396 635 396 624 c 0
 396 613 395 601 395 590 c 0
 395 565 396 534 396 527 c 0
 396 509 394 501 386 501 c 0
 370 501 365 522 362 536 c 0
 346 604 296 629 247 629 c 0
 191 629 130 596 130 514 c 0xdc
EndSplineSet
EndChar

StartChar: T
Encoding: 84 84 45
Width: 629
VWidth: 0
Flags: W
HStem: -8 43<163.578 257.245> 0 38<351.137 470.861> 604 52<85.7942 266.374> 604 44<358.56 539.167> 666 20G<53 72.5 570.5 588>
VStem: 10 39<501.347 564.87> 262 89<39.826 325.292> 270 82<325.292 603.863>
AnchorPoint: "top" 310 670 basechar 0
AnchorPoint: "cedilla" 306 -79 basechar 0
AnchorPoint: "l;bl" 130 10 basechar 0
AnchorPoint: "l;x" 70 380 basechar 0
AnchorPoint: "l;hi" 0 660 basechar 0
AnchorPoint: "l;o" 90 210 basechar 0
AnchorPoint: "r;bl" 504 10 basechar 0
AnchorPoint: "r;x" 564 380 basechar 0
AnchorPoint: "r;hi" 629 660 basechar 0
AnchorPoint: "r;o" 544 210 basechar 0
LayerCount: 3
Fore
SplineSet
351 68 m 0x1e
 351 40 351 40 387 38 c 2x5e
 435 35 l 2x8e
 455 34 471 32 471 17 c 0
 471 3 459 -1 442 -1 c 0
 435 -1 357 0 306 0 c 0x4e
 254 0 208 -8 182 -8 c 0
 171 -8 162 -2 162 7 c 0
 162 27 196 30 220 35 c 0
 243 40 260 40 262 78 c 0x8e
 268 191 270 437 270 571 c 0
 270 604 264 604 253 604 c 0
 198 604 140 604 98 589 c 0
 75 580 59 555 49 534 c 0
 40 516 35 500 25 500 c 0
 11 500 10 509 10 516 c 0
 10 549 22 587 36 640 c 0
 38 647 44 686 62 686 c 0
 83 686 83 656 96 656 c 0xad
 246 655 544 648 544 648 c 2
 570 648 561 684 580 684 c 0
 596 684 600 663 600 647 c 0
 600 636 598 611 598 603 c 0
 598 586 604 539 604 527 c 0
 604 520 602 504 590 504 c 0
 558 504 580 566 533 585 c 0
 503 597 390 604 379 604 c 0
 353 604 352 597 352 565 c 0x1d
 352 421 351 182 351 68 c 0x1e
EndSplineSet
EndChar

StartChar: U
Encoding: 85 85 46
Width: 730
VWidth: 0
Flags: W
HStem: -25 52<268.528 492.98> 619 45<197.478 303.562 449.124 561.394 629.938 708.858>
VStem: 104 91<105.961 615.385> 577 44<123.151 604.607>
AnchorPoint: "top" 375 670 basechar 0
AnchorPoint: "l;bl" 60 10 basechar 0
AnchorPoint: "l;x" 20 380 basechar 0
AnchorPoint: "l;hi" 0 660 basechar 0
AnchorPoint: "l;o" 20 210 basechar 0
AnchorPoint: "r;bl" 670 10 basechar 0
AnchorPoint: "r;x" 710 380 basechar 0
AnchorPoint: "r;hi" 730 660 basechar 0
AnchorPoint: "r;o" 710 210 basechar 0
LayerCount: 3
Fore
SplineSet
484 664 m 0
 498 664 529 659 583 659 c 0
 613 659 680 666 684 666 c 0
 703 666 710 659 710 648 c 0
 710 628 690 622 666 619 c 0
 629 614 629 609 627 562 c 0
 624 486 625 387 621 313 c 0
 618 251 616 191 607 145 c 0
 583 24 501 -25 361 -25 c 0
 259 -25 104 -5 104 188 c 0
 104 322 105 455 106 589 c 0
 106 636 20 604 20 640 c 0
 20 650 31 660 50 660 c 0
 70 660 98 657 131 657 c 0
 177 657 250 663 268 663 c 0
 292 663 304 657 304 637 c 0
 304 617 280 616 236 616 c 0
 200 616 194 615 194 568 c 2
 195 243 l 2
 195 115 219 27 369 27 c 0
 466 27 529 43 558 130 c 0
 572 171 577 228 577 306 c 2
 577 420 l 2
 577 458 575 497 574 531 c 0
 572 602 563 613 505 619 c 2
 495 620 l 2
 468 622 449 622 449 643 c 0
 449 659 465 664 484 664 c 0
EndSplineSet
EndChar

StartChar: V
Encoding: 86 86 47
Width: 718
VWidth: 0
Flags: W
HStem: -12 21G<341.5 352.5> 622 41<10.2573 94.9173 206.048 311.44 608.356 707.21>
DStem2: 222 545 104 584 0.364013 -0.931394<-58.5979 430>
AnchorPoint: "l;bl" 160 10 basechar 0
AnchorPoint: "l;x" 40 380 basechar 0
AnchorPoint: "l;hi" 0 660 basechar 0
AnchorPoint: "l;o" 80 210 basechar 0
AnchorPoint: "r;bl" 558 10 basechar 0
AnchorPoint: "r;x" 678 380 basechar 0
AnchorPoint: "r;hi" 718 660 basechar 0
AnchorPoint: "r;o" 638 210 basechar 0
LayerCount: 3
Fore
SplineSet
312 648 m 0
 312 637 307 630 292 628 c 0
 272 625 206 633 206 602 c 0
 206 595 211 575 222 545 c 0
 258 447 331 251 368 159 c 0
 372 150 376 145 380 145 c 0
 384 145 388 149 392 159 c 0
 427 241 555 572 555 604 c 0
 555 642 450 615 450 645 c 0
 450 664 466 669 485 669 c 0
 514 669 540 665 574 665 c 0
 652 665 666 666 679 666 c 0
 697 666 708 662 708 647 c 0
 708 631 686 628 668 626 c 0
 630 622 613 625 592 567 c 0
 559 473 399 92 371 13 c 0
 364 -7 356 -12 349 -12 c 0
 334 -12 327 12 317 39 c 0
 304 76 291 113 277 148 c 2
 104 584 l 2
 94 610 81 617 68 622 c 0
 50 629 10 624 10 645 c 0
 10 662 50 663 60 663 c 2
 155 663 l 2
 181 663 264 668 290 668 c 0
 303 668 312 661 312 648 c 0
EndSplineSet
EndChar

StartChar: W
Encoding: 87 87 48
Width: 911
VWidth: 0
Flags: W
HStem: -10 21G<303.5 314 585 596.5> 625 38<10.105 76.6094 477.067 550.254 841.687 900.503>
VStem: 780 121<592 654.5>
DStem2: 640 188 620 23 0.37052 0.928824<-32.9362 427.739>
AnchorPoint: "top" 455 670 basechar 0
AnchorPoint: "l;bl" 160 10 basechar 0
AnchorPoint: "l;x" 40 380 basechar 0
AnchorPoint: "l;hi" 0 660 basechar 0
AnchorPoint: "l;o" 90 210 basechar 0
AnchorPoint: "r;bl" 751 10 basechar 0
AnchorPoint: "r;x" 871 380 basechar 0
AnchorPoint: "r;hi" 911 660 basechar 0
AnchorPoint: "r;o" 821 210 basechar 0
LayerCount: 3
Fore
SplineSet
251 650 m 0
 251 613 179 646 179 606 c 0
 179 596 275 315 324 195 c 0
 332 177 338 165 345 165 c 0
 350 165 355 172 362 189 c 0
 376 222 406 292 434 366 c 0
 441 384 445 392 445 400 c 0
 445 407 442 416 435 434 c 2
 380 590 l 2
 361 645 298 618 298 650 c 0
 298 664 309 667 319 667 c 0
 349 667 383 662 433 662 c 0
 495 662 506 665 525 665 c 0
 538 665 551 662 551 649 c 0
 551 635 538 632 521 631 c 0
 500 630 477 627 477 604 c 0
 477 574 563 306 605 185 c 0
 611 168 616 160 621 160 c 0
 627 160 632 170 640 188 c 0
 665 241 713 377 746 482 c 0
 765 543 780 575 780 609 c 0
 780 639 687 619 687 649 c 0
 687 659 695 668 713 668 c 0
 742 668 763 666 797 666 c 2
 862 666 l 2
 889 666 901 661 901 648 c 0
 901 638 894 632 884 630 c 0
 845 622 844 616 831 580 c 0
 777 430 656 117 620 23 c 0
 609 -5 601 -10 592 -10 c 0
 578 -10 559 57 556 66 c 2
 485 284 l 2
 474 317 468 333 462 333 c 0
 456 333 450 317 437 286 c 0
 391 173 348 57 335 19 c 0
 326 -7 318 -7 310 -7 c 0
 297 -7 289 17 280 49 c 0
 270 83 258 113 254 124 c 2
 87 588 l 2
 76 619 52 622 34 625 c 0
 18 627 10 634 10 646 c 0
 10 655 19 663 35 663 c 2
 136 663 l 2
 162 663 200 666 226 666 c 0
 239 666 251 663 251 650 c 0
EndSplineSet
EndChar

StartChar: X
Encoding: 88 88 49
Width: 730
VWidth: 0
Flags: W
HStem: 1 36<10.0783 109.104 184.007 278.907 624.998 719.438> 623 39<42.0163 129.618 427.093 506.87 585.048 692.977>
DStem2: 148 100 202 89 0.592618 0.805484<-14.5685 77.6744 228.604 260.349 593.107 615.955> 348 447 299 354 0.566529 -0.824042<-184.947 42.8636 134.946 400.865>
AnchorPoint: "l;bl" 0 10 basechar 0
AnchorPoint: "l;x" 80 380 basechar 0
AnchorPoint: "l;hi" 0 660 basechar 0
AnchorPoint: "l;o" 40 210 basechar 0
AnchorPoint: "r;bl" 730 10 basechar 0
AnchorPoint: "r;x" 650 380 basechar 0
AnchorPoint: "r;hi" 730 660 basechar 0
AnchorPoint: "r;o" 690 210 basechar 0
LayerCount: 3
Fore
SplineSet
299 354 m 2
 130 606 l 2
 122 618 104 619 92 620 c 2
 78 621 l 2
 44 623 42 631 42 644 c 0
 42 659 59 664 76 664 c 0
 108 664 150 662 208 662 c 2
 300 662 l 2
 317 662 327 655 327 645 c 0
 327 609 252 635 252 606 c 0
 252 594 257 589 348 447 c 0
 362 425 369 414 376 414 c 0
 383 414 390 425 406 447 c 2
 496 573 l 2
 502 582 507 592 507 601 c 0
 507 612 500 621 483 622 c 0
 459 624 427 618 427 641 c 0
 427 654 440 659 461 659 c 2
 562 659 l 2
 597 659 648 662 662 662 c 0
 676 662 693 658 693 642 c 0
 693 620 661 625 638 623 c 0
 594 619 598 620 574 591 c 0
 530 537 439 422 409 388 c 0
 405 383 403 377 403 372 c 0
 403 363 408 354 414 345 c 2
 579 111 l 2
 615 60 628 42 672 38 c 0
 700 35 720 37 720 14 c 0
 720 -3 688 -4 675 -4 c 0
 647 -4 577 -1 533 -1 c 0
 515 -1 463 -3 433 -3 c 0
 412 -3 406 4 406 18 c 0
 406 53 488 16 488 56 c 0
 488 70 398 204 365 258 c 0
 356 273 349 280 343 280 c 0
 336 280 329 273 319 258 c 0
 286 210 228 122 202 89 c 0
 191 75 184 64 184 55 c 0
 184 43 193 38 223 37 c 0
 247 36 279 36 279 18 c 0
 279 4 248 1 222 1 c 0
 210 1 187 2 154 2 c 0
 119 2 80 0 47 0 c 0
 25 0 10 7 10 18 c 0
 10 38 37 38 66 41 c 0
 111 45 117 60 148 100 c 2
 306 303 l 2
 314 312 317 318 317 323 c 0
 317 330 311 337 299 354 c 2
EndSplineSet
EndChar

StartChar: Y
Encoding: 89 89 50
Width: 690
VWidth: 0
Flags: W
HStem: -2 45<170.556 297.434 389.083 505.964> 620 44<10.0109 95.9688 214.02 308.939 406.035 503.988 575.887 679.936>
VStem: 298 89<46.3319 341.438>
AnchorPoint: "top" 360 670 basechar 0
AnchorPoint: "l;bl" 100 10 basechar 0
AnchorPoint: "l;x" 90 380 basechar 0
AnchorPoint: "l;hi" 0 660 basechar 0
AnchorPoint: "l;o" 90 210 basechar 0
AnchorPoint: "r;bl" 580 10 basechar 0
AnchorPoint: "r;x" 590 380 basechar 0
AnchorPoint: "r;hi" 690 660 basechar 0
AnchorPoint: "r;o" 590 210 basechar 0
LayerCount: 3
Fore
SplineSet
309 643 m 0
 309 625 288 623 265 621 c 0
 242 619 214 621 214 605 c 0
 214 589 299 470 338 398 c 0
 353 370 365 355 372 355 c 0
 378 355 384 368 397 393 c 0
 430 455 504 593 504 601 c 0
 504 614 488 619 473 620 c 0
 452 622 406 617 406 641 c 0
 406 654 418 664 439 664 c 0
 488 664 528 661 552 661 c 0
 574 661 626 665 644 665 c 0
 658 665 680 661 680 643 c 0
 680 621 656 621 634 618 c 0
 591 612 591 617 567 588 c 0
 531 544 427 371 392 317 c 0
 388 311 387 300 387 290 c 2
 387 87 l 2
 387 43 401 47 436 43 c 0
 465 40 506 45 506 21 c 0
 506 11 501 -2 465 -2 c 0
 440 -2 427 1 342 1 c 0
 264 1 204 -5 191 -5 c 0
 181 -5 169 -4 169 13 c 0
 169 30 184 38 210 40 c 2
 249 43 l 2
 276 45 298 43 298 72 c 2
 300 283 l 2
 300 311 294 317 283 333 c 2
 93 603 l 2
 84 615 66 619 54 620 c 0
 14 624 10 631 10 642 c 0
 10 658 25 664 42 664 c 0
 74 664 99 662 157 662 c 0
 192 662 232 663 267 663 c 0
 292 663 309 657 309 643 c 0
EndSplineSet
EndChar

StartChar: Z
Encoding: 90 90 51
Width: 697
VWidth: 0
Flags: W
HStem: 0 64<415.1 589.356> 0 44<180.005 314.9> 613 45<137.641 503.996> 663 20G<95.5 110.5>
DStem2: 40 32 185 66 0.638018 0.770022<107.913 732.533>
AnchorPoint: "top" 360 670 basechar 0
AnchorPoint: "l;bl" 0 10 basechar 0
AnchorPoint: "l;x" 40 380 basechar 0
AnchorPoint: "l;hi" 0 660 basechar 0
AnchorPoint: "l;o" 20 210 basechar 0
AnchorPoint: "r;bl" 697 10 basechar 0
AnchorPoint: "r;x" 677 380 basechar 0
AnchorPoint: "r;hi" 697 660 basechar 0
AnchorPoint: "r;o" 697 210 basechar 0
LayerCount: 3
Fore
SplineSet
40 32 m 2x70
 500 588 l 2
 503 591 504 596 504 599 c 0
 504 607 498 613 487 613 c 2
 276 610 l 2
 172 609 111 603 75 558 c 0
 62 542 56 530 46 530 c 0
 34 530 34 539 34 541 c 0
 35 571 53 596 72 642 c 0
 79 658 90 683 101 683 c 0
 120 683 106 651 137 651 c 0
 150 651 207 653 237 653 c 2
 625 658 l 2
 646 658 655 651 655 641 c 0
 655 636 653 631 649 626 c 2
 185 66 l 2
 182 63 180 59 180 56 c 0
 180 49 187 44 198 44 c 2x70
 532 64 l 2xb0
 583 67 606 93 627 147 c 0
 639 176 649 176 656 176 c 0
 661 176 667 170 667 159 c 0
 667 132 652 105 649 56 c 2
 647 24 l 2
 646 14 641 0 629 0 c 2
 62 0 l 2
 40 0 30 4 30 12 c 0
 30 17 33 24 40 32 c 2x70
EndSplineSet
EndChar

StartChar: comma
Encoding: 44 44 53
Width: 266
VWidth: 0
Flags: W
HStem: -166 21<53.026 79.7943> 0 83<63.875 142.045>
VStem: 144 57<-89.1365 1.36545>
AnchorPoint: "l;o" 20 210 basechar 0
AnchorPoint: "l;bl" 0 10 basechar 0
AnchorPoint: "r;bl" 266 10 basechar 0
AnchorPoint: "r;o" 266 210 basechar 0
AnchorPoint: "l;lo" 0 -200 basechar 0
AnchorPoint: "r;lo" 266 -200 basechar 0
LayerCount: 3
Fore
SplineSet
90 0 m 0
 67 0 55 19 55 37 c 0
 55 59 77 83 112 83 c 0
 155 83 201 60 201 -20 c 0
 201 -106 109 -166 64 -166 c 0
 58 -166 53 -161 53 -156 c 0
 53 -151 57 -147 61 -145 c 0
 101 -128 144 -91 144 -33 c 0
 144 -24 137 2 119 2 c 0
 113 2 107 0 90 0 c 0
EndSplineSet
EndChar

StartChar: period
Encoding: 46 46 54
Width: 215
VWidth: 0
Flags: W
HStem: -13 94<63.3939 142.606>
VStem: 56 94<-5.60614 73.6061>
AnchorPoint: "l;bl" 0 10 basechar 0
AnchorPoint: "l;o" 20 210 basechar 0
AnchorPoint: "r;bl" 215 10 basechar 0
AnchorPoint: "r;o" 215 210 basechar 0
LayerCount: 3
Fore
SplineSet
56 34 m 0
 56 60 77 81 103 81 c 0
 129 81 150 60 150 34 c 0
 150 8 129 -13 103 -13 c 0
 77 -13 56 8 56 34 c 0
EndSplineSet
EndChar

StartChar: hyphen
Encoding: 45 45 55
Width: 334
VWidth: 250
Flags: W
HStem: 187 54<36.1974 297.692>
VStem: 36 262<187 241>
AnchorPoint: "l;bl" 20 10 basechar 0
AnchorPoint: "l;x" 20 380 basechar 0
AnchorPoint: "l;o" 0 210 basechar 0
AnchorPoint: "r;bl" 314 10 basechar 0
AnchorPoint: "r;x" 314 380 basechar 0
AnchorPoint: "r;o" 334 210 basechar 0
LayerCount: 3
Fore
SplineSet
52 241 m 2
 282 241 l 2
 294 241 298 227 298 213 c 0
 298 199 294 187 282 187 c 2
 52 187 l 2
 39 187 36 200 36 215 c 0
 36 229 40 241 52 241 c 2
EndSplineSet
EndChar

StartChar: endash
Encoding: 8211 8211 56
Width: 470
VWidth: 250
Flags: W
HStem: 189 50<5.04044 464.918>
AnchorPoint: "r;o" 470 210 basechar 0
AnchorPoint: "r;x" 450 380 basechar 0
AnchorPoint: "r;bl" 450 10 basechar 0
AnchorPoint: "l;o" 0 210 basechar 0
AnchorPoint: "l;x" 20 380 basechar 0
AnchorPoint: "l;bl" 20 10 basechar 0
LayerCount: 3
Fore
SplineSet
19 239 m 2
 451 239 l 2
 463 239 465 227 465 213 c 0
 465 199 463 189 451 189 c 2
 19 189 l 2
 6 189 5 200 5 215 c 0
 5 229 7 239 19 239 c 2
EndSplineSet
EndChar

StartChar: emdash
Encoding: 8212 8212 57
Width: 770
VWidth: 250
Flags: W
HStem: 189 50<5.04044 764.918>
AnchorPoint: "l;bl" 20 10 basechar 0
AnchorPoint: "l;x" 20 380 basechar 0
AnchorPoint: "l;o" 0 210 basechar 0
AnchorPoint: "r;bl" 750 10 basechar 0
AnchorPoint: "r;x" 750 380 basechar 0
AnchorPoint: "r;o" 770 210 basechar 0
LayerCount: 3
Fore
SplineSet
19 239 m 2
 751 239 l 2
 763 239 765 227 765 213 c 0
 765 199 763 189 751 189 c 2
 19 189 l 2
 6 189 5 200 5 215 c 0
 5 229 7 239 19 239 c 2
EndSplineSet
EndChar

StartChar: semicolon
Encoding: 59 59 58
Width: 266
VWidth: 250
Flags: W
HStem: -166 21<53.026 79.7943> 0 83<63.875 142.045> 305 94<103.394 182.606>
VStem: 96 94<312.394 391.606> 144 57<-89.1365 1.36545>
AnchorPoint: "l;bl" 0 10 basechar 0
AnchorPoint: "l;x" 0 380 basechar 0
AnchorPoint: "l;o" 0 210 basechar 0
AnchorPoint: "l;lo" 0 -200 basechar 0
AnchorPoint: "r;bl" 266 10 basechar 0
AnchorPoint: "r;x" 266 380 basechar 0
AnchorPoint: "r;o" 266 210 basechar 0
AnchorPoint: "r;lo" 266 -200 basechar 0
LayerCount: 3
Fore
SplineSet
90 0 m 0xe8
 67 0 55 19 55 37 c 0
 55 59 77 83 112 83 c 0
 155 83 201 60 201 -20 c 0
 201 -106 109 -166 64 -166 c 0
 58 -166 53 -161 53 -156 c 0
 53 -151 57 -147 61 -145 c 0
 101 -128 144 -91 144 -33 c 0
 144 -24 137 2 119 2 c 0
 113 2 107 0 90 0 c 0xe8
96 352 m 0xf0
 96 378 117 399 143 399 c 0
 169 399 190 378 190 352 c 0
 190 326 169 305 143 305 c 0
 117 305 96 326 96 352 c 0xf0
EndSplineSet
EndChar

StartChar: colon
Encoding: 58 58 59
Width: 215
VWidth: 250
Flags: W
HStem: -13 94<63.3939 142.606> 305 94<63.3939 142.606>
VStem: 56 94<-5.60614 73.6061 312.394 391.606>
AnchorPoint: "l;bl" 0 10 basechar 0
AnchorPoint: "l;x" 0 380 basechar 0
AnchorPoint: "l;o" 0 210 basechar 0
AnchorPoint: "r;bl" 215 10 basechar 0
AnchorPoint: "r;x" 215 380 basechar 0
AnchorPoint: "r;o" 215 210 basechar 0
LayerCount: 3
Fore
SplineSet
56 352 m 0
 56 378 77 399 103 399 c 0
 129 399 150 378 150 352 c 0
 150 326 129 305 103 305 c 0
 77 305 56 326 56 352 c 0
56 34 m 0
 56 60 77 81 103 81 c 0
 129 81 150 60 150 34 c 0
 150 8 129 -13 103 -13 c 0
 77 -13 56 8 56 34 c 0
EndSplineSet
EndChar

StartChar: question
Encoding: 63 63 60
Width: 383
VWidth: 250
Flags: W
HStem: -13 94<147.394 226.606> 240 57<147.891 241.488> 564 38<125.5 222.643>
VStem: 103 43<154.582 274.5> 140 94<-5.60614 73.6061> 285 58<336.494 474.015>
AnchorPoint: "l;bl" 0 10 basechar 0
AnchorPoint: "l;x" 0 380 basechar 0
AnchorPoint: "l;hi" 0 660 basechar 0
AnchorPoint: "l;o" 0 210 basechar 0
AnchorPoint: "l;lo" 0 -200 basechar 0
AnchorPoint: "r;bl" 383 10 basechar 0
AnchorPoint: "r;x" 383 380 basechar 0
AnchorPoint: "r;hi" 383 660 basechar 0
AnchorPoint: "r;o" 383 210 basechar 0
AnchorPoint: "r;lo" 383 -200 basechar 0
LayerCount: 3
Fore
SplineSet
80 555 m 0xf4
 80 585 109 602 142 602 c 0
 268 602 343 485 343 366 c 0
 343 274 266 240 160 240 c 0
 150 240 146 221 146 211 c 0
 146 177 157 152 163 137 c 0
 167 128 166 120 155 120 c 0
 151 120 147 121 144 124 c 0
 111 159 103 226 103 258 c 0
 103 291 130 293 168 297 c 0
 267 308 285 350 285 410 c 0
 285 490 233 564 191 564 c 0
 155 564 139 521 113 521 c 0
 96 521 80 535 80 555 c 0xf4
140 34 m 0xec
 140 60 161 81 187 81 c 0
 213 81 234 60 234 34 c 0
 234 8 213 -13 187 -13 c 0
 161 -13 140 8 140 34 c 0xec
EndSplineSet
EndChar

StartChar: exclam
Encoding: 33 33 61
Width: 258
VWidth: 0
Flags: W
HStem: -13 94<107.394 186.606> 629 20G<135.5 170>
VStem: 100 94<-5.60614 73.6061 378.341 613.375> 128 36<147.091 377.897>
AnchorPoint: "l;bl" 0 10 basechar 0
AnchorPoint: "l;x" 0 380 basechar 0
AnchorPoint: "l;hi" 0 660 basechar 0
AnchorPoint: "l;o" 0 210 basechar 0
AnchorPoint: "l;lo" 0 -200 basechar 0
AnchorPoint: "r;bl" 258 10 basechar 0
AnchorPoint: "r;x" 258 380 basechar 0
AnchorPoint: "r;hi" 258 660 basechar 0
AnchorPoint: "r;o" 258 210 basechar 0
AnchorPoint: "r;lo" 258 -200 basechar 0
LayerCount: 3
Fore
SplineSet
106 563 m 2xd0
 106 609 112 649 159 649 c 0
 181 649 198 634 198 614 c 0
 198 601 190 566 189 554 c 0
 174 429 169 363 164 177 c 0
 164 161 163 147 148 147 c 0
 132 147 129 160 128 177 c 0
 119 320 106 464 106 546 c 2
 106 563 l 2xd0
100 34 m 0xe0
 100 60 121 81 147 81 c 0
 173 81 194 60 194 34 c 0
 194 8 173 -13 147 -13 c 0
 121 -13 100 8 100 34 c 0xe0
EndSplineSet
EndChar

StartChar: parenleft
Encoding: 40 40 62
Width: 421
VWidth: 250
Flags: W
VStem: 40 47<124.317 387.117>
AnchorPoint: "l;bl" 0 10 basechar 0
AnchorPoint: "l;x" 0 380 basechar 0
AnchorPoint: "l;hi" 0 660 basechar 0
AnchorPoint: "l;o" 0 210 basechar 0
AnchorPoint: "l;lo" 0 -200 basechar 0
AnchorPoint: "r;bl" 421 10 basechar 0
AnchorPoint: "r;x" 421 380 basechar 0
AnchorPoint: "r;hi" 421 660 basechar 0
AnchorPoint: "r;o" 421 210 basechar 0
AnchorPoint: "r;lo" 421 -200 basechar 0
LayerCount: 3
Fore
SplineSet
87 266 m 0
 87 64 208 -91 395 -158 c 0
 402 -160 404 -167 404 -175 c 0
 404 -188 397 -205 386 -205 c 0
 376 -205 329 -180 310 -170 c 0
 129 -78 40 76 40 271 c 0
 40 487 198 646 344 708 c 0
 368 718 383 726 397 726 c 0
 406 726 411 710 411 696 c 0
 411 679 397 676 382 671 c 0
 261 629 87 480 87 266 c 0
EndSplineSet
EndChar

StartChar: parenright
Encoding: 41 41 63
Width: 421
VWidth: 250
Flags: W
VStem: 334 47<124.317 387.117>
AnchorPoint: "l;bl" 0 10 basechar 0
AnchorPoint: "l;x" 0 380 basechar 0
AnchorPoint: "l;hi" 0 660 basechar 0
AnchorPoint: "l;o" 0 210 basechar 0
AnchorPoint: "l;lo" 0 -200 basechar 0
AnchorPoint: "r;bl" 421 10 basechar 0
AnchorPoint: "r;x" 421 380 basechar 0
AnchorPoint: "r;hi" 421 660 basechar 0
AnchorPoint: "r;o" 421 210 basechar 0
AnchorPoint: "r;lo" 421 -200 basechar 0
LayerCount: 3
Fore
SplineSet
334 266 m 0
 334 480 160 629 39 671 c 0
 24 676 10 679 10 696 c 0
 10 710 15 726 24 726 c 0
 38 726 53 718 77 708 c 0
 223 646 381 487 381 271 c 0
 381 76 292 -78 111 -170 c 0
 92 -180 45 -205 35 -205 c 0
 24 -205 17 -188 17 -175 c 0
 17 -167 19 -160 26 -158 c 0
 213 -91 334 64 334 266 c 0
EndSplineSet
EndChar

StartChar: quotedbl
Encoding: 34 34 64
Width: 323
VWidth: 250
Flags: W
HStem: 497 191<77.7188 115.195 207.719 245.195>
VStem: 60 73<504.086 685.561> 77 39<497.009 642.421> 190 73<504.086 685.561> 207 39<497.009 642.421>
AnchorPoint: "l;x" 0 380 basechar 0
AnchorPoint: "l;hi" 0 660 basechar 0
AnchorPoint: "l;o" 0 210 basechar 0
AnchorPoint: "r;x" 323 380 basechar 0
AnchorPoint: "r;hi" 323 660 basechar 0
AnchorPoint: "r;o" 323 210 basechar 0
LayerCount: 3
Fore
SplineSet
263 643 m 0x90
 263 632 246 534 246 525 c 0
 246 509 241 497 227 497 c 0
 210 497 207 510 207 525 c 0x88
 207 534 190 636 190 643 c 0
 190 664 195 688 227 688 c 0
 259 688 263 663 263 643 c 0x90
133 643 m 0xc0
 133 632 116 534 116 525 c 0
 116 509 111 497 97 497 c 0
 80 497 77 510 77 525 c 0xa0
 77 534 60 636 60 643 c 0
 60 664 65 688 97 688 c 0
 129 688 133 663 133 643 c 0xc0
EndSplineSet
EndChar

StartChar: numbersign
Encoding: 35 35 65
Width: 476
VWidth: 488
Flags: W
HStem: 121 42<30.0001 121.999 172.451 277.913 327.028 445.98> 305 42<30.0175 147.998 199.001 303 354.001 445.89>
VStem: 122 42<-35.5 120.692> 129 43<163 295.956> 148 42<168.29 305> 157 42<347 497.532> 278 42<-34.4978 121> 312 42<347 504.36>
AnchorPoint: "l;bl" 0 10 basechar 0
AnchorPoint: "l;x" 0 380 basechar 0
AnchorPoint: "l;hi" 0 660 basechar 0
AnchorPoint: "l;o" 0 210 basechar 0
AnchorPoint: "l;lo" 0 -200 basechar 0
AnchorPoint: "r;bl" 476 10 basechar 0
AnchorPoint: "r;x" 476 380 basechar 0
AnchorPoint: "r;hi" 476 660 basechar 0
AnchorPoint: "r;o" 476 210 basechar 0
AnchorPoint: "r;lo" 476 -200 basechar 0
LayerCount: 3
Fore
SplineSet
30 139 m 0xe2
 30 140 30 141 30 142 c 0
 30 156 30 163 44 163 c 2
 126 163 l 2
 128 163 129 163 129 165 c 0xd0
 135 210 148 295 148 300 c 0
 148 304 145 305 141 305 c 2
 46 305 l 2
 36 305 30 307 30 325 c 0
 30 339 33 347 46 347 c 2
 148 347 l 2xc8
 154 347 157 349 157 354 c 0
 183 540 180 538 183 543 c 0
 187 549 191 550 205 550 c 0
 212 550 225 549 225 538 c 0
 225 532 199 358 199 352 c 0
 199 348 200 347 205 347 c 2
 303 347 l 2
 307 347 311 348 312 354 c 0
 338 540 337 540 340 544 c 0
 344 550 351 550 363 550 c 0
 371 550 379 550 379 540 c 0
 379 531 354 361 354 352 c 0xc5
 354 349 355 347 359 347 c 2
 428 347 l 2
 442 347 446 339 446 322 c 0
 446 307 440 305 431 305 c 2
 350 305 l 2
 346 305 346 302 345 299 c 1
 339 256 327 173 327 169 c 0
 327 165 329 163 334 163 c 2
 429 163 l 2
 439 163 446 161 446 143 c 0
 446 128 442 121 429 121 c 2
 331 121 l 2
 322 121 321 117 320 111 c 0
 295 -66 302 -66 274 -66 c 0
 260 -66 255 -60 255 -53 c 0
 255 -47 278 110 278 115 c 0
 278 120 275 121 271 121 c 2
 205 121 l 2
 166 121 165 119 164 113 c 0
 141 -58 141 -55 140 -58 c 0
 136 -64 131 -66 117 -66 c 0
 108 -66 99 -63 99 -53 c 0
 99 -47 122 109 122 114 c 0
 122 119 120 121 114 121 c 2
 44 121 l 2
 31 121 30 129 30 139 c 0xe2
172 168 m 0
 172 164 175 163 180 163 c 2
 275 163 l 2
 279 163 284 163 285 170 c 0
 298 265 303 292 303 300 c 0
 303 303 303 305 297 305 c 2
 199 305 l 2xc4
 193 305 191 302 190 298 c 0xc8
 184 255 172 173 172 168 c 0
EndSplineSet
EndChar

StartChar: dollar
Encoding: 36 36 66
Width: 524
VWidth: 250
Flags: W
HStem: 3 33<169.327 237.922> 625 35<179.229 229.858 276.435 314.669>
VStem: 30 93<69.0447 171.679> 67 65<450.563 573.058> 233 43<666.111 702.985> 241 33<-144.982 2.04275 40.204 278.195 401.002 610> 241 33<-118 2.04275 40.204 278.195 401.002 627.998> 407 57<102.691 213.843>
AnchorPoint: "l;bl" 0 10 basechar 0
AnchorPoint: "l;x" 0 380 basechar 0
AnchorPoint: "l;hi" 0 660 basechar 0
AnchorPoint: "l;o" 0 210 basechar 0
AnchorPoint: "l;lo" 0 -200 basechar 0
AnchorPoint: "r;bl" 524 10 basechar 0
AnchorPoint: "r;x" 524 380 basechar 0
AnchorPoint: "r;hi" 524 660 basechar 0
AnchorPoint: "r;o" 524 210 basechar 0
AnchorPoint: "r;lo" 524 -200 basechar 0
LayerCount: 3
Fore
SplineSet
303 666 m 0xd9
 355 665 456 635 456 564 c 0
 456 543 434 527 413 527 c 0
 361 527 353 593 315 619 c 0
 308 624 297 627 288 629 c 0
 273 632 270 624 270 610 c 2
 272 397 l 2
 272 384 275 385 301 374 c 0
 355 351 464 322 464 188 c 0
 464 67 360 23 307 9 c 0
 279 2 273 7 273 -6 c 2
 277 -118 l 2
 277 -139 270 -145 258 -145 c 0
 246 -145 238 -137 238 -116 c 2
 238 -15 l 2
 238 8 236 0 197 3 c 0
 137 8 30 40 30 134 c 0
 30 160 50 180 75 180 c 0
 108 180 122 152 123 121 c 0
 123 112 124 100 127 93 c 0
 139 60 191 37 227 36 c 0
 238 36 241 40 241 49 c 2
 241 277 l 2xe5
 241 303 237 296 194 316 c 0
 141 341 67 384 67 481 c 0
 67 599 152 649 198 660 c 0
 219 665 231 664 233 684 c 0
 234 697 244 703 255 703 c 0
 266 703 276 698 276 686 c 0
 276 667 279 666 303 666 c 0xd9
274 268 m 2
 274 58 l 2
 274 45 276 40 285 40 c 0
 289 40 295 42 303 44 c 0
 342 56 407 82 407 164 c 0
 407 217 348 251 309 269 c 0
 293 277 284 279 280 279 c 0
 276 279 274 277 274 268 c 2
213 625 m 0
 183 616 132 587 132 510 c 0xd1
 132 454 176 427 206 411 c 0
 220 404 227 401 231 401 c 0
 234 401 236 404 236 410 c 2
 235 620 l 2
 235 626 233 628 230 628 c 0
 227 628 222 628 213 625 c 0
EndSplineSet
EndChar

StartChar: percent
Encoding: 37 37 67
Width: 783
VWidth: 250
Flags: W
HStem: -165 24<505.82 571.299> 159 27<146.787 221.515> 209 28<550.134 627.818> 452 26<372.425 480.549> 524 30<190.913 272.8>
VStem: 40 72<218.849 396.036> 300 65<308.427 463.999> 393 74<-98.1559 75.8928> 657 66<-12.2791 185.513>
AnchorPoint: "l;bl" 0 10 basechar 0
AnchorPoint: "l;x" 0 380 basechar 0
AnchorPoint: "l;hi" 0 660 basechar 0
AnchorPoint: "l;o" 0 210 basechar 0
AnchorPoint: "l;lo" 0 -200 basechar 0
AnchorPoint: "r;bl" 783 10 basechar 0
AnchorPoint: "r;x" 783 380 basechar 0
AnchorPoint: "r;hi" 783 660 basechar 0
AnchorPoint: "r;o" 783 210 basechar 0
AnchorPoint: "r;lo" 783 -200 basechar 0
LayerCount: 3
Fore
SplineSet
592 209 m 0
 512 209 467 80 467 -23 c 0
 467 -74 488 -141 539 -141 c 0
 611 -141 657 15 657 121 c 0
 657 180 624 209 592 209 c 0
608 237 m 0
 681 237 723 181 723 92 c 0
 723 -30 630 -165 523 -165 c 0
 446 -165 393 -95 393 -14 c 0
 393 68 475 237 608 237 c 0
234 524 m 0
 154 524 112 398 112 295 c 0
 112 251 130 186 181 186 c 0
 267 186 300 333 300 439 c 0
 300 498 266 524 234 524 c 0
363 443 m 0
 365 433 365 421 365 410 c 0
 365 288 271 159 164 159 c 0
 87 159 40 223 40 304 c 0
 40 386 117 554 250 554 c 0
 282 554 307 540 328 523 c 0
 358 497 385 478 424 478 c 0
 504 478 588 565 638 613 c 0
 641 616 653 631 664 631 c 0
 674 631 678 626 678 619 c 0
 678 616 677 613 672 605 c 0
 662 589 636 559 607 513 c 2
 295 27 l 1
 209 -109 l 1
 182 -154 162 -182 148 -182 c 0
 128 -182 116 -170 116 -154 c 0
 116 -136 135 -115 162 -75 c 0
 255 63 463 346 543 478 c 0
 546 484 552 495 543 495 c 0
 536 495 475 452 427 452 c 0
 409 452 395 454 382 459 c 0
 372 462 369 464 365 464 c 0
 362 464 361 463 361 459 c 0
 361 455 362 452 363 443 c 0
EndSplineSet
EndChar

StartChar: ampersand
Encoding: 38 38 68
Width: 685
VWidth: 250
Flags: W
HStem: -9 48<153.942 281.892> -1 44<580.538 677.253> 122 90<394.859 428.847> 367 32<553.427 635.681> 549 30<212.568 299.947>
VStem: 30 72<90.7836 225.849> 125 62<418.736 528.484> 331 60<418.383 527.017>
DStem2: 251 369 220 291 0.739379 -0.673289<5.624 13.4146 33.2625 231.999 275.132 376.725> 366 125 375 99 0.532451 0.846461<-57.15 14.3457 103.562 253.522>
AnchorPoint: "l;bl" 0 10 basechar 0
AnchorPoint: "l;x" 0 380 basechar 0
AnchorPoint: "l;hi" 0 660 basechar 0
AnchorPoint: "l;o" 0 210 basechar 0
AnchorPoint: "r;bl" 685 10 basechar 0
AnchorPoint: "r;x" 685 380 basechar 0
AnchorPoint: "r;hi" 685 660 basechar 0
AnchorPoint: "r;o" 685 210 basechar 0
LayerCount: 3
Fore
SplineSet
263 579 m 0xbf
 338 579 391 541 391 478 c 0
 391 415 324 373 290 356 c 0
 279 350 274 348 274 345 c 0
 274 342 279 338 287 331 c 2
 404 225 l 2
 413 217 418 212 422 212 c 0
 426 212 430 217 437 227 c 0
 450 246 471 282 483 311 c 0
 489 326 493 337 493 345 c 0
 493 355 488 363 473 371 c 0
 468 374 464 378 464 385 c 0
 464 397 484 399 498 399 c 0
 508 399 524 398 537 398 c 0
 560 398 590 402 610 402 c 0
 626 402 636 398 636 387 c 0
 636 372 627 368 612 367 c 0
 590 365 571 362 557 354 c 0
 533 341 478 243 457 210 c 0
 451 200 448 194 448 189 c 0
 448 184 451 180 458 173 c 0
 487 146 556 81 609 43 c 0
 630 27 680 36 680 14 c 0
 680 6 672 -1 657 -1 c 0x7f
 625 -1 587 1 551 1 c 0
 503 1 464 0 437 0 c 0
 424 0 414 3 414 16 c 0
 414 37 468 30 468 47 c 0
 468 63 446 85 428 101 c 2
 415 112 l 2
 407 119 402 122 398 122 c 0
 392 122 388 115 375 99 c 0
 344 59 293 -9 192 -9 c 0
 88 -9 30 50 30 153 c 0
 30 243 118 294 162 314 c 0
 180 322 187 322 187 325 c 0
 187 328 179 333 168 349 c 0
 150 376 125 420 125 459 c 0
 125 545 196 579 263 579 c 0xbf
179 295 m 0
 149 275 102 233 102 163 c 0
 102 91 153 39 228 39 c 0xbf
 286 39 342 96 366 125 c 0
 374 135 377 139 377 142 c 0
 377 146 372 148 364 156 c 2
 220 291 l 2
 210 300 206 306 201 306 c 0
 197 306 191 303 179 295 c 0
257 549 m 0
 211 549 187 515 187 475 c 0
 187 435 231 388 251 369 c 0
 257 364 259 361 262 361 c 0
 265 361 268 364 275 369 c 0
 295 384 331 414 331 474 c 0
 331 515 299 549 257 549 c 0
EndSplineSet
EndChar

StartChar: quotesingle
Encoding: 39 39 69
Width: 193
VWidth: 250
Flags: W
HStem: 497 191<77.7188 115.195>
VStem: 60 73<504.086 685.561> 77 39<497.009 642.421>
AnchorPoint: "l;x" 0 380 basechar 0
AnchorPoint: "l;hi" 0 660 basechar 0
AnchorPoint: "l;o" 0 210 basechar 0
AnchorPoint: "r;x" 193 380 basechar 0
AnchorPoint: "r;hi" 193 660 basechar 0
AnchorPoint: "r;o" 193 210 basechar 0
LayerCount: 3
Fore
SplineSet
133 643 m 0xc0
 133 632 116 534 116 525 c 0
 116 509 111 497 97 497 c 0
 80 497 77 510 77 525 c 0xa0
 77 534 60 636 60 643 c 0
 60 664 65 688 97 688 c 0
 129 688 133 663 133 643 c 0xc0
EndSplineSet
EndChar

StartChar: zero
Encoding: 48 48 70
Width: 460
VWidth: 250
Flags: W
HStem: -17 32<164.726 314.009> 364 32<156.061 298.694>
VStem: 20 42<104.316 275.015> 397 42<94.6229 273.905>
AnchorPoint: "l;bl" 0 10 basechar 0
AnchorPoint: "l;x" 0 380 basechar 0
AnchorPoint: "l;hi" 0 660 basechar 0
AnchorPoint: "l;o" 0 210 basechar 0
AnchorPoint: "l;lo" 0 -200 basechar 0
AnchorPoint: "r;bl" 460 10 basechar 0
AnchorPoint: "r;x" 460 380 basechar 0
AnchorPoint: "r;hi" 460 660 basechar 0
AnchorPoint: "r;o" 460 210 basechar 0
AnchorPoint: "r;lo" 460 -200 basechar 0
LayerCount: 3
Fore
SplineSet
20 185 m 0
 20 316 110 396 241 396 c 0
 359 396 439 311 439 199 c 0
 439 67 363 -17 228 -17 c 0
 106 -17 20 60 20 185 c 0
242 15 m 0
 341 15 397 87 397 182 c 0
 397 280 340 364 222 364 c 0
 141 364 62 297 62 187 c 0
 62 88 138 15 242 15 c 0
EndSplineSet
EndChar

StartChar: one
Encoding: 49 49 71
Width: 460
VWidth: 250
Flags: W
HStem: 0 30<90.0044 188.148 266.121 365.954> 370 32<98.026 188.657 269.903 361.992>
VStem: 189 74<32.1976 365.363>
AnchorPoint: "l;bl" 0 10 basechar 0
AnchorPoint: "l;x" 0 380 basechar 0
AnchorPoint: "l;hi" 0 660 basechar 0
AnchorPoint: "l;o" 0 210 basechar 0
AnchorPoint: "l;lo" 0 -200 basechar 0
AnchorPoint: "r;bl" 460 10 basechar 0
AnchorPoint: "r;x" 460 380 basechar 0
AnchorPoint: "r;hi" 460 660 basechar 0
AnchorPoint: "r;o" 460 210 basechar 0
AnchorPoint: "r;lo" 460 -200 basechar 0
LayerCount: 3
Fore
SplineSet
349 402 m 0
 356 402 362 394 362 386 c 0
 362 373 351 370 341 370 c 2
 329 370 l 2
 302 370 268 370 268 346 c 0
 268 222 263 106 263 59 c 0
 263 40 275 31 297 31 c 0
 316 31 335 30 349 30 c 0
 359 30 366 24 366 14 c 0
 366 4 361 -2 351 -2 c 0
 297 -2 280 0 223 0 c 2
 104 0 l 2
 94 0 90 7 90 15 c 0
 90 22 96 30 104 30 c 2
 152 30 l 2
 172 30 188 31 189 50 c 0
 193 168 195 223 195 340 c 0
 195 370 138 370 109 374 c 0
 101 375 98 377 98 387 c 0
 98 397 107 400 113 400 c 0
 123 400 198 398 227 398 c 0
 258 398 341 402 349 402 c 0
EndSplineSet
EndChar

StartChar: two
Encoding: 50 50 72
Width: 460
VWidth: 250
Flags: W
HStem: 0 60<152.004 445.975> 357 59<90.483 193.587>
VStem: 219 64<220.612 331.638>
AnchorPoint: "l;bl" 0 10 basechar 0
AnchorPoint: "l;x" 0 380 basechar 0
AnchorPoint: "l;hi" 0 660 basechar 0
AnchorPoint: "l;o" 0 210 basechar 0
AnchorPoint: "l;lo" 0 -200 basechar 0
AnchorPoint: "r;bl" 460 10 basechar 0
AnchorPoint: "r;x" 460 380 basechar 0
AnchorPoint: "r;hi" 460 660 basechar 0
AnchorPoint: "r;o" 460 210 basechar 0
AnchorPoint: "r;lo" 460 -200 basechar 0
LayerCount: 3
Fore
SplineSet
219 267 m 0
 219 328 182 357 140 357 c 0
 111 357 85 343 69 325 c 0
 63 318 56 305 47 305 c 0
 40 305 35 309 35 318 c 0
 35 369 105 416 167 416 c 0
 223 416 283 394 283 309 c 0
 283 208 191 113 162 83 c 0
 157 77 152 71 152 67 c 0
 152 62 158 60 169 60 c 0
 180 60 336 63 429 63 c 0
 445 63 446 54 446 39 c 2
 446 24 l 2
 446 9 443 1 431 1 c 0
 385 0 344 0 304 0 c 2
 69 0 l 2
 58 0 51 1 51 9 c 0
 51 17 55 22 62 28 c 0
 101 61 120 70 154 116 c 0
 189 164 219 216 219 267 c 0
EndSplineSet
EndChar

StartChar: three
Encoding: 51 51 73
Width: 460
VWidth: 250
Flags: W
HStem: -251 33<55.1138 174.938> 361 55<100.41 211.499>
VStem: 241 69<232.745 332.125> 288 74<-101.557 48.0234>
AnchorPoint: "l;bl" 0 10 basechar 0
AnchorPoint: "l;x" 0 380 basechar 0
AnchorPoint: "l;hi" 0 660 basechar 0
AnchorPoint: "l;o" 0 210 basechar 0
AnchorPoint: "l;lo" 0 -200 basechar 0
AnchorPoint: "r;bl" 460 10 basechar 0
AnchorPoint: "r;x" 460 380 basechar 0
AnchorPoint: "r;hi" 460 660 basechar 0
AnchorPoint: "r;o" 460 210 basechar 0
AnchorPoint: "r;lo" 460 -200 basechar 0
LayerCount: 3
Fore
SplineSet
55 -233 m 0xd0
 55 -221 65 -218 71 -218 c 0
 80 -218 91 -219 106 -219 c 0
 202 -219 288 -126 288 -21 c 0xd0
 288 78 217 80 141 80 c 0
 132 80 128 85 128 91 c 0
 128 96 131 102 137 106 c 0
 198 144 241 206 241 284 c 0
 241 329 196 361 149 361 c 0
 131 361 112 356 96 347 c 0
 91 344 82 337 74 337 c 0
 67 337 61 342 61 348 c 0
 61 370 87 386 98 393 c 0
 130 413 168 416 187 416 c 0
 250 416 310 382 310 317 c 0xe0
 310 232 254 185 225 156 c 0
 218 149 214 145 214 142 c 0
 214 138 220 136 235 133 c 0
 315 119 362 66 362 -12 c 0
 362 -138 242 -251 99 -251 c 0
 81 -251 55 -250 55 -233 c 0xd0
EndSplineSet
EndChar

StartChar: four
Encoding: 52 52 74
Width: 460
VWidth: 250
Flags: W
HStem: -240 21G<282.5 290.5> 9 49<83.0044 277.871 334.003 429>
VStem: 20 63<14.5 71.5> 278 64<194.537 321.996> 278 56<-236.51 8.9375 60.1094 294.395>
AnchorPoint: "l;bl" 0 10 basechar 0
AnchorPoint: "l;x" 0 380 basechar 0
AnchorPoint: "l;hi" 0 660 basechar 0
AnchorPoint: "l;o" 0 210 basechar 0
AnchorPoint: "l;lo" 0 -200 basechar 0
AnchorPoint: "r;bl" 460 10 basechar 0
AnchorPoint: "r;x" 460 380 basechar 0
AnchorPoint: "r;hi" 460 660 basechar 0
AnchorPoint: "r;o" 460 210 basechar 0
AnchorPoint: "r;lo" 460 -200 basechar 0
LayerCount: 3
Fore
SplineSet
255 309 m 0xf0
 194 233 144 161 90 85 c 0
 86 79 83 74 83 69 c 0
 83 62 89 58 103 58 c 2
 250 58 l 2
 276 58 278 61 278 83 c 2xe8
 278 304 l 2
 278 317 275 322 271 322 c 0
 267 322 261 317 255 309 c 0xf0
334 75 m 0
 334 61 338 60 354 60 c 2
 415 60 l 2
 427 60 429 55 429 44 c 2
 429 27 l 2
 429 15 427 9 410 9 c 2
 354 9 l 2
 337 9 334 9 334 -6 c 2xe8
 333 -214 l 2
 333 -230 327 -234 316 -236 c 0
 304 -238 294 -240 287 -240 c 0
 278 -240 274 -237 274 -223 c 2
 280 -8 l 2
 280 8 276 9 263 9 c 2
 44 7 l 2
 26 7 20 11 20 18 c 0
 20 28 32 44 42 59 c 0
 140 210 220 320 320 438 c 0
 325 443 327 444 331 444 c 0
 337 444 342 441 342 425 c 0xf0
 342 312 337 188 334 75 c 0
EndSplineSet
EndChar

StartChar: five
Encoding: 53 53 75
Width: 460
VWidth: 250
Flags: W
HStem: -251 21<101.035 163.215> 330 65<187.094 334.25> 347 64<167.281 319.631>
VStem: 88 49<262.712 291.71> 298 66<-104.671 50.2402>
DStem2: 96 266 137 287 0.45253 0.891749<25.7409 113.372>
AnchorPoint: "l;bl" 0 10 basechar 0
AnchorPoint: "l;x" 0 380 basechar 0
AnchorPoint: "l;hi" 0 660 basechar 0
AnchorPoint: "l;o" 0 210 basechar 0
AnchorPoint: "l;lo" 0 -200 basechar 0
AnchorPoint: "r;bl" 460 10 basechar 0
AnchorPoint: "r;x" 460 380 basechar 0
AnchorPoint: "r;hi" 460 660 basechar 0
AnchorPoint: "r;o" 460 210 basechar 0
AnchorPoint: "r;lo" 460 -200 basechar 0
LayerCount: 3
Fore
SplineSet
120 -251 m 0xb8
 113 -251 101 -250 101 -240 c 0
 101 -235 104 -230 110 -230 c 0
 210 -230 298 -132 298 -33 c 0
 298 65 201 175 100 229 c 0
 92 233 88 237 88 246 c 0
 88 252 93 261 96 266 c 0
 110 290 126 326 144 364 c 0
 152 380 158 390 164 400 c 0
 169 409 179 411 187 411 c 0xb8
 189 411 192 410 194 410 c 0
 233 404 292 396 304 395 c 0
 312 394 312 394 320 394 c 0
 325 394 336 395 340 395 c 0
 351 395 353 386 348 377 c 2
 326 336 l 2
 323 331 318 329 312 330 c 0xd8
 275 333 215 344 192 347 c 0
 179 349 173 350 167 342 c 0
 151 318 147 309 137 287 c 0
 134 280 139 273 145 270 c 0
 233 221 364 111 364 -13 c 0
 364 -153 234 -251 120 -251 c 0xb8
EndSplineSet
EndChar

StartChar: six
Encoding: 54 54 76
Width: 460
VWidth: 250
Flags: W
HStem: -23 33<186.939 300.72> 272 54<160.169 291.176> 589 36<336.658 412.749>
VStem: 30 62<120.086 348.002> 362 43<72.3302 200.838>
AnchorPoint: "l;bl" 0 10 basechar 0
AnchorPoint: "l;x" 0 380 basechar 0
AnchorPoint: "l;hi" 0 660 basechar 0
AnchorPoint: "l;o" 0 210 basechar 0
AnchorPoint: "l;lo" 0 -200 basechar 0
AnchorPoint: "r;bl" 460 10 basechar 0
AnchorPoint: "r;x" 460 380 basechar 0
AnchorPoint: "r;hi" 460 660 basechar 0
AnchorPoint: "r;o" 460 210 basechar 0
AnchorPoint: "r;lo" 460 -200 basechar 0
LayerCount: 3
Fore
SplineSet
221 -23 m 0
 97 -23 30 86 30 235 c 0
 30 424 187 592 361 622 c 0
 368 623 378 625 388 625 c 0
 401 625 413 622 413 609 c 0
 413 598 399 593 383 589 c 0
 234 551 92 395 92 244 c 0
 92 130 138 10 251 10 c 0
 306 10 362 62 362 129 c 0
 362 213 290 272 212 272 c 0
 165 272 151 260 126 248 c 0
 121 246 118 255 121 263 c 0
 135 302 196 326 237 326 c 0
 322 326 405 280 405 170 c 0
 405 52 331 -23 221 -23 c 0
EndSplineSet
EndChar

StartChar: seven
Encoding: 55 55 77
Width: 460
VWidth: 250
Flags: W
HStem: 331 61<53.7279 374.995>
AnchorPoint: "l;bl" 0 10 basechar 0
AnchorPoint: "l;x" 0 380 basechar 0
AnchorPoint: "l;hi" 0 660 basechar 0
AnchorPoint: "l;o" 0 210 basechar 0
AnchorPoint: "l;lo" 0 -200 basechar 0
AnchorPoint: "r;bl" 460 10 basechar 0
AnchorPoint: "r;x" 460 380 basechar 0
AnchorPoint: "r;hi" 460 660 basechar 0
AnchorPoint: "r;o" 460 210 basechar 0
AnchorPoint: "r;lo" 460 -200 basechar 0
LayerCount: 3
Fore
SplineSet
429 376 m 0
 429 371 421 356 417 348 c 0
 309 136 222 -44 148 -204 c 0
 143 -215 131 -220 119 -220 c 0
 106 -220 93 -214 93 -204 c 0
 93 -202 93 -199 95 -196 c 2
 369 309 l 2
 373 316 375 321 375 324 c 0
 375 330 368 331 355 331 c 2
 73 326 l 2
 62 326 60 307 47 307 c 0
 39 307 37 313 37 320 c 0
 37 326 48 360 53 373 c 0
 58 385 63 390 81 390 c 0
 104 390 362 392 400 392 c 0
 423 392 429 390 429 376 c 0
EndSplineSet
Layer: 2
SplineSet
74 390 m 6
 408 392 l 6
 427 392 429 385 429 376 c 4
 429 371 421 356 417 348 c 4
 309 136 222 -44 148 -204 c 4
 143 -215 131 -220 119 -220 c 4
 106 -220 93 -214 93 -204 c 4
 93 -202 93 -199 95 -196 c 6
 369 309 l 6
 373 316 375 321 375 324 c 4
 375 330 368 331 355 331 c 6
 73 326 l 6
 62 326 60 307 47 307 c 4
 39 307 37 313 37 320 c 4
 37 325 43 344 45 351 c 6
 53 373 l 6
 57 386 68 390 74 390 c 6
EndSplineSet
EndChar

StartChar: eight
Encoding: 56 56 78
Width: 460
VWidth: 250
Flags: W
HStem: -19 33<178.789 295.871> 592 36<159.225 275.316>
VStem: 61 45<80.7684 219.187> 63 54<431.445 547.973> 328 51<413.09 544.57> 351 48<67.3321 187.839>
AnchorPoint: "l;bl" 0 10 basechar 0
AnchorPoint: "l;x" 0 380 basechar 0
AnchorPoint: "l;hi" 0 660 basechar 0
AnchorPoint: "l;o" 0 210 basechar 0
AnchorPoint: "l;lo" 0 -200 basechar 0
AnchorPoint: "r;bl" 460 10 basechar 0
AnchorPoint: "r;x" 460 380 basechar 0
AnchorPoint: "r;hi" 460 660 basechar 0
AnchorPoint: "r;o" 460 210 basechar 0
AnchorPoint: "r;lo" 460 -200 basechar 0
LayerCount: 3
Fore
SplineSet
399 154 m 0xc4
 399 57 331 -19 223 -19 c 0
 133 -19 61 51 61 142 c 0xe4
 61 222 124 271 154 293 c 0
 164 300 169 302 169 303 c 0
 169 304 165 306 156 312 c 0
 127 333 63 386 63 468 c 0
 63 558 137 628 227 628 c 0
 309 628 379 576 379 490 c 0xd8
 379 414 321 364 290 344 c 0
 279 337 274 333 274 331 c 0
 274 328 281 325 294 317 c 0
 331 296 399 252 399 154 c 0xc4
166 280 m 0
 143 261 106 212 106 156 c 0
 106 84 163 14 236 14 c 0
 305 14 351 67 351 128 c 0
 351 202 259 250 200 286 c 0
 192 291 188 293 185 293 c 0
 181 293 177 289 166 280 c 0
328 478 m 0xd8
 328 537 282 592 215 592 c 0
 153 592 117 544 117 488 c 0
 117 426 197 375 235 354 c 0
 247 347 251 343 255 343 c 0
 258 343 261 347 270 354 c 0
 290 370 328 410 328 478 c 0xd8
EndSplineSet
EndChar

StartChar: nine
Encoding: 57 57 79
Width: 460
VWidth: 250
Flags: W
HStem: -251 26<52.2285 100.881> 61 48<175.734 289.189> 389 26<162.051 258.637>
VStem: 50 48<188.181 324.198> 364 54<49.5173 275.954>
AnchorPoint: "l;bl" 0 10 basechar 0
AnchorPoint: "l;x" 0 380 basechar 0
AnchorPoint: "l;hi" 0 660 basechar 0
AnchorPoint: "l;o" 0 210 basechar 0
AnchorPoint: "l;lo" 0 -200 basechar 0
AnchorPoint: "r;bl" 460 10 basechar 0
AnchorPoint: "r;x" 460 380 basechar 0
AnchorPoint: "r;hi" 460 660 basechar 0
AnchorPoint: "r;o" 460 210 basechar 0
AnchorPoint: "r;lo" 460 -200 basechar 0
LayerCount: 3
Fore
SplineSet
220 415 m 0
 359 415 418 293 418 135 c 0
 418 6 349 -124 243 -195 c 0
 194 -229 115 -249 64 -251 c 0
 57 -251 52 -245 52 -240 c 0
 52 -231 62 -228 70 -225 c 0
 125 -207 190 -167 243 -112 c 0
 313 -40 364 67 364 163 c 0
 364 268 310 389 208 389 c 0
 145 389 98 328 98 265 c 0
 98 182 170 109 245 109 c 0
 284 109 309 122 323 139 c 0
 327 144 337 149 337 136 c 0
 337 128 331 115 321 106 c 0
 284 71 242 61 200 61 c 0
 116 61 50 129 50 234 c 0
 50 334 118 415 220 415 c 0
EndSplineSet
EndChar

StartChar: ae
Encoding: 230 230 80
Width: 648
VWidth: 0
Flags: W
HStem: -16 67<371.977 518.903> -11 54<74 176.77> 280 29<349.007 503.47> 290 28<418.5 529.044> 387 41<148.792 241.858 393.401 521.461>
VStem: 26 79<19 97.3829 269.303 323.174> 257 92<309.001 353.689> 257 71<92.2598 188.994 211.845 280.156> 534 82<305 353.724>
AnchorPoint: "r;o" 648 210 basechar 0
AnchorPoint: "r;x" 638 380 basechar 0
AnchorPoint: "r;bl" 638 10 basechar 0
AnchorPoint: "l;o" 0 210 basechar 0
AnchorPoint: "l;x" 10 380 basechar 0
AnchorPoint: "l;bl" 0 10 basechar 0
LayerCount: 3
Fore
SplineSet
238 189 m 0x4c80
 224 189 105 142 105 76 c 0
 105 53 125 43 147 43 c 0
 172 43 186 53 204 64 c 0
 230 79 254 101 254 132 c 2
 254 170 l 2
 254 181 246 189 238 189 c 0x4c80
31 278 m 0
 31 337 132 428 233 428 c 0
 270 428 312 404 325 359 c 1
 368 404 419 423 462 423 c 0
 506 423 541 411 570 382 c 0
 597 355 616 323 616 310 c 0
 616 300 608 291 590 290 c 2x5e80
 345 280 l 2
 334 280 328 262 328 244 c 2
 328 148 l 2
 328 91 382 51 453 51 c 0
 520 51 571 90 590 99 c 0
 599 103 611 99 606 83 c 0
 598 59 530 -16 426 -16 c 0xad80
 344 -16 300 10 272 57 c 0
 264 70 260 76 255 76 c 0
 250 76 244 70 234 59 c 0
 202 22 161 -11 87 -11 c 0
 61 -11 26 1 26 37 c 0
 26 124 154 189 240 213 c 0
 253 217 257 216 257 235 c 2x4d80
 257 319 l 2x4e80
 257 359 235 387 195 387 c 0
 149 387 120 357 111 328 c 0
 101 297 100 265 64 265 c 0
 48 265 31 267 31 278 c 0
361 342 m 0
 354 332 349 322 349 317 c 0
 349 310 359 309 366 309 c 0x2e80
 370 309 415 313 457 318 c 0
 497 323 534 323 534 341 c 0
 534 370 488 393 457 393 c 0
 419 393 378 367 361 342 c 0
EndSplineSet
EndChar

StartChar: oe
Encoding: 339 339 81
Width: 768
VWidth: 0
Flags: W
HStem: -21 34<186.187 305.188> -19 68<519.524 649.925> 282 27<469.007 602.981> 394 32<171.392 296.84 522.516 627.014>
VStem: 28 81<103.812 302.487> 380 72<127.471 278.188> 654 82<308 357.715>
AnchorPoint: "l;bl" 20 10 basechar 0
AnchorPoint: "l;x" 20 380 basechar 0
AnchorPoint: "l;o" 0 210 basechar 0
AnchorPoint: "r;bl" 758 10 basechar 0
AnchorPoint: "r;x" 758 380 basechar 0
AnchorPoint: "r;o" 768 210 basechar 0
LayerCount: 3
Fore
SplineSet
481 342 m 0x3e
 474 332 469 322 469 317 c 0
 469 310 479 309 486 309 c 0
 507 309 654 322 654 341 c 0
 654 370 608 394 577 394 c 0
 539 394 498 367 481 342 c 0x3e
243 13 m 0xbe
 355 13 380 132 380 203 c 0
 380 309 312 398 238 398 c 0
 162 398 109 337 109 232 c 0
 109 112 153 13 243 13 c 0xbe
238 -21 m 0
 135 -21 28 46 28 201 c 0
 28 334 121 428 250 428 c 0
 322 428 387 400 426 341 c 1
 461 391 513 426 582 426 c 0
 630 426 664 410 693 382 c 0
 719 357 736 326 736 313 c 0
 736 303 728 293 710 292 c 2
 465 282 l 2
 454 282 452 262 452 244 c 0
 452 148 481 49 599 49 c 0
 664 49 691 88 710 97 c 0
 719 101 726 90 724 83 c 0
 714 55 666 -19 562 -19 c 0x7e
 493 -19 446 13 416 59 c 1
 372 3 304 -21 238 -21 c 0
EndSplineSet
EndChar

StartChar: OE
Encoding: 338 338 82
Width: 970
VWidth: 0
Flags: W
HStem: -13 41<273.846 461.402> 0 45<563.523 826.049> 330 32<559.134 758.601> 618 38<268.518 450.388 554.823 826.943>
VStem: 40 83<199.081 461.734> 474 85<45.3674 330> 474 80<362.005 606.525> 780 29<244.812 319.351 384.121 469.991> 847 38<516.285 597.979> 892 38<130 161.716>
AnchorPoint: "l;bl" 0 10 basechar 0
AnchorPoint: "l;x" 0 380 basechar 0
AnchorPoint: "l;hi" 0 660 basechar 0
AnchorPoint: "l;o" 0 210 basechar 0
AnchorPoint: "r;bl" 970 10 basechar 0
AnchorPoint: "r;x" 970 380 basechar 0
AnchorPoint: "r;hi" 970 660 basechar 0
AnchorPoint: "r;o" 970 210 basechar 0
LayerCount: 3
Fore
SplineSet
810 354 m 0xbbc0
 810 320 812 261 812 261 c 2
 812 253 810 244 802 244 c 0
 790 244 784 247 782 269 c 0
 779 298 778 329 735 329 c 2
 580 330 l 2
 560 330 559 322 559 311 c 0
 559 231 563 211 563 80 c 0
 563 60 565 45 584 45 c 2
 696 47 l 2
 775 48 859 59 886 117 c 2
 892 130 l 2
 898 143 901 162 913 162 c 0
 928 162 930 146 930 133 c 0
 930 110 921 80 918 62 c 0
 914 39 913 27 912 18 c 0
 911 9 901 2 893 2 c 0
 849 2 801 4 758 4 c 2
 504 0 l 2x7dc0
 460 -1 385 -13 364 -13 c 0
 184 -13 40 80 40 324 c 0
 40 546 171 656 397 656 c 0
 422 656 457 654 489 654 c 0
 563 654 739 662 842 662 c 0
 858 662 872 655 873 643 c 2
 885 540 l 2
 887 523 878 516 869 516 c 0
 850 516 851 541 847 557 c 0
 834 607 813 621 745 621 c 2
 597 619 l 2
 578 619 554 616 554 593 c 2
 554 405 l 2
 554 369 557 362 574 362 c 0
 616 362 658 365 700 367 c 0
 763 370 773 378 778 422 c 2
 780 441 l 2
 782 457 783 470 794 470 c 0
 802 470 809 468 809 455 c 0
 809 437 810 384 810 354 c 0xbbc0
371 28 m 0xbdc0
 394 28 470 38 472 61 c 0
 474 80 474 149 474 231 c 0
 474 362 472 525 472 571 c 0
 472 618 419 618 372 618 c 0
 348 618 325 617 306 613 c 0
 193 590 123 471 123 339 c 0
 123 132 230 28 371 28 c 0xbdc0
EndSplineSet
EndChar

StartChar: AE
Encoding: 198 198 83
Width: 980
VWidth: 0
Flags: W
HStem: 0 45<561.801 710.234> 0 34<25.2884 93.5042 162.655 249.979 386.106 468.016> 266 40<321.991 471.958> 329 33<555.105 767.346> 617 43<378.073 451.992 554.149 834.305>
VStem: 25 137<6.5 65> 470 91<45.4098 271.438 306 308.654> 474 80<85.9908 271.625 306 328.873 362.005 552.995> 783 31<218.508 315.843 418 455.719> 856 40<500.307 593.032> 898 42<126 165.238>
AnchorPoint: "l;bl" 0 10 basechar 0
AnchorPoint: "l;x" 120 380 basechar 0
AnchorPoint: "l;hi" 200 660 basechar 0
AnchorPoint: "l;o" 70 210 basechar 0
AnchorPoint: "r;bl" 980 10 basechar 0
AnchorPoint: "r;x" 980 380 basechar 0
AnchorPoint: "r;hi" 980 660 basechar 0
AnchorPoint: "r;o" 980 210 basechar 0
LayerCount: 3
Fore
SplineSet
322 326 m 0x3de0
 322 324 309 306 324 306 c 2
 460 306 l 2
 468 306 472 318 472 319 c 0
 472 325 474 463 474 527 c 0
 474 546 472 553 469 553 c 0
 465 553 459 544 451 532 c 0
 410 470 322 331 322 326 c 0x3de0
470 58 m 0x7ee0
 472 74 474 175 474 248 c 0
 474 259 473 272 464 272 c 2
 297 266 l 2
 283 266 271 252 259 229 c 0
 226 168 162 74 162 56 c 0
 162 44 171 35 188 34 c 2
 214 32 l 2
 233 31 251 26 251 12 c 0
 251 2 244 -6 226 -6 c 0
 205 -6 174 0 144 0 c 0
 126 0 68 -5 54 -5 c 0
 36 -5 25 -1 25 14 c 0
 25 27 36 29 56 35 c 0
 95 46 99 49 133 103 c 2
 450 599 l 2
 451 601 452 602 452 604 c 0
 452 612 441 620 425 620 c 2
 406 620 l 2
 388 620 378 626 378 640 c 0
 378 655 389 660 414 660 c 0
 430 660 454 658 514 658 c 0
 588 658 758 660 861 660 c 0
 877 660 891 653 891 641 c 0
 893 603 896 566 896 528 c 0
 896 511 888 500 879 500 c 0
 858 500 860 527 856 543 c 0
 844 591 840 617 746 617 c 0
 691 617 635 617 581 615 c 0
 567 614 554 610 554 593 c 2
 554 405 l 2
 554 369 556 362 573 362 c 0
 615 362 670 365 712 367 c 0
 775 370 772 375 782 418 c 2
 787 440 l 2
 789 451 794 456 801 456 c 0
 809 456 816 450 816 438 c 0
 816 420 814 380 814 350 c 2
 814 235 l 2
 814 227 812 218 804 218 c 0
 793 218 784 222 783 243 c 2
 781 273 l 2
 779 300 773 329 735 329 c 2
 580 329 l 2
 560 329 554 322 554 311 c 0x7de0
 554 261 561 209 561 80 c 0
 561 60 565 45 584 45 c 2xbee0
 696 47 l 2
 775 48 862 48 892 113 c 2
 898 126 l 2
 904 139 912 168 926 168 c 0
 936 168 940 159 940 148 c 0
 940 134 932 83 929 62 c 0
 925 39 924 27 923 18 c 0
 922 9 912 2 904 2 c 0
 770 0 638 0 504 0 c 2
 398 0 l 2
 390 0 386 7 386 15 c 0
 386 23 390 31 399 32 c 0
 439 36 468 35 470 58 c 0x7ee0
EndSplineSet
EndChar

StartChar: quoteright
Encoding: 8217 8217 84
Width: 221
VWidth: 0
Flags: W
HStem: 507 170<70 107.693>
VStem: 91 60<552.662 629>
AnchorPoint: "l;o" 0 210 basechar 0
AnchorPoint: "l;hi" 0 660 basechar 0
AnchorPoint: "l;x" 0 380 basechar 0
AnchorPoint: "r;o" 221 210 basechar 0
AnchorPoint: "r;hi" 221 660 basechar 0
AnchorPoint: "r;x" 221 380 basechar 0
LayerCount: 3
Fore
SplineSet
91 677 m 0
 128 677 151 649 151 609 c 0
 151 560 91 507 75 507 c 0
 70 507 64 510 64 518 c 0
 64 529 77 541 85 554 c 0
 88 560 91 566 91 572 c 0
 91 587 79 595 68 603 c 0
 55 612 50 626 50 639 c 0
 50 659 64 677 91 677 c 0
EndSplineSet
EndChar

StartChar: quoteleft
Encoding: 8216 8216 85
Width: 221
VWidth: 0
Flags: W
HStem: 507 170<83.3073 121>
VStem: 40 60<555 631.338>
AnchorPoint: "l;x" 0 380 basechar 0
AnchorPoint: "l;hi" 0 660 basechar 0
AnchorPoint: "l;o" 0 210 basechar 0
AnchorPoint: "r;x" 221 380 basechar 0
AnchorPoint: "r;hi" 221 660 basechar 0
AnchorPoint: "r;o" 221 210 basechar 0
LayerCount: 3
Fore
SplineSet
100 507 m 0
 63 507 40 535 40 575 c 0
 40 624 100 677 116 677 c 0
 121 677 127 674 127 666 c 0
 127 655 114 643 106 630 c 0
 103 624 100 618 100 612 c 0
 100 597 112 589 123 581 c 0
 136 572 141 558 141 545 c 0
 141 525 127 507 100 507 c 0
EndSplineSet
EndChar

StartChar: quotedblleft
Encoding: 8220 8220 86
Width: 371
VWidth: 0
Flags: W
HStem: 507 170<83.3073 121 233.307 271>
VStem: 40 60<555 631.338> 190 60<555 631.338>
AnchorPoint: "l;x" 0 380 basechar 0
AnchorPoint: "l;hi" 0 660 basechar 0
AnchorPoint: "l;o" 0 210 basechar 0
AnchorPoint: "r;x" 371 380 basechar 0
AnchorPoint: "r;hi" 371 660 basechar 0
AnchorPoint: "r;o" 371 210 basechar 0
LayerCount: 3
Fore
SplineSet
250 507 m 0
 213 507 190 535 190 575 c 0
 190 624 250 677 266 677 c 0
 271 677 277 674 277 666 c 0
 277 655 264 643 256 630 c 0
 253 624 250 618 250 612 c 0
 250 597 262 589 273 581 c 0
 286 572 291 558 291 545 c 0
 291 525 277 507 250 507 c 0
100 507 m 0
 63 507 40 535 40 575 c 0
 40 624 100 677 116 677 c 0
 121 677 127 674 127 666 c 0
 127 655 114 643 106 630 c 0
 103 624 100 618 100 612 c 0
 100 597 112 589 123 581 c 0
 136 572 141 558 141 545 c 0
 141 525 127 507 100 507 c 0
EndSplineSet
EndChar

StartChar: quotedblright
Encoding: 8221 8221 87
Width: 371
VWidth: 0
Flags: W
HStem: 507 170<70 107.693 220 257.693>
VStem: 91 60<552.662 629> 241 60<552.662 629>
AnchorPoint: "l;x" 0 380 basechar 0
AnchorPoint: "l;hi" 0 660 basechar 0
AnchorPoint: "l;o" 0 210 basechar 0
AnchorPoint: "r;x" 371 380 basechar 0
AnchorPoint: "r;hi" 371 660 basechar 0
AnchorPoint: "r;o" 371 210 basechar 0
LayerCount: 3
Fore
SplineSet
91 677 m 0
 128 677 151 649 151 609 c 0
 151 560 91 507 75 507 c 0
 70 507 64 510 64 518 c 0
 64 529 77 541 85 554 c 0
 88 560 91 566 91 572 c 0
 91 587 79 595 68 603 c 0
 55 612 50 626 50 639 c 0
 50 659 64 677 91 677 c 0
241 677 m 0
 278 677 301 649 301 609 c 0
 301 560 241 507 225 507 c 0
 220 507 214 510 214 518 c 0
 214 529 227 541 235 554 c 0
 238 560 241 566 241 572 c 0
 241 587 229 595 218 603 c 0
 205 612 200 626 200 639 c 0
 200 659 214 677 241 677 c 0
EndSplineSet
EndChar

StartChar: bracketleft
Encoding: 91 91 88
Width: 333
VWidth: 0
Flags: W
HStem: -187 32<119.002 300.991> 666 34<130.001 312.996>
VStem: 80 39<-176.5 137.842> 90 40<-19.2156 667.906>
AnchorPoint: "l;bl" 0 10 basechar 0
AnchorPoint: "l;x" 0 380 basechar 0
AnchorPoint: "l;hi" 0 660 basechar 0
AnchorPoint: "l;o" 0 210 basechar 0
AnchorPoint: "l;lo" 0 -200 basechar 0
AnchorPoint: "r;bl" 333 10 basechar 0
AnchorPoint: "r;x" 333 380 basechar 0
AnchorPoint: "r;hi" 333 660 basechar 0
AnchorPoint: "r;o" 333 210 basechar 0
AnchorPoint: "r;lo" 333 -200 basechar 0
LayerCount: 3
Fore
SplineSet
90 688 m 2xd0
 90 698 92 702 109 702 c 2
 300 700 l 2
 311 700 313 699 313 683 c 0
 313 666 308 666 296 666 c 2
 144 668 l 2
 130 668 130 666 130 647 c 0xd0
 128 494 127 332 124 185 c 0
 121 77 122 0 119 -140 c 0
 119 -150 121 -155 145 -155 c 2
 282 -155 l 2
 298 -155 301 -156 301 -170 c 0
 301 -186 298 -189 285 -189 c 2
 116 -187 l 2
 88 -187 80 -186 80 -167 c 0xe0
 80 -158 84 10 86 100 c 0
 89 272 90 442 90 614 c 2
 90 688 l 2xd0
EndSplineSet
EndChar

StartChar: bracketright
Encoding: 93 93 89
Width: 330
VWidth: 0
Flags: W
HStem: -188 34<20.0073 202.997> 668 32<30.0061 211.998>
VStem: 203 40<-154.953 71.8013> 212 38<452.186 667.768>
AnchorPoint: "l;bl" 0 10 basechar 0
AnchorPoint: "l;x" 0 380 basechar 0
AnchorPoint: "l;hi" 0 660 basechar 0
AnchorPoint: "l;o" 0 210 basechar 0
AnchorPoint: "l;lo" 0 -200 basechar 0
AnchorPoint: "r;bl" 330 10 basechar 0
AnchorPoint: "r;x" 330 380 basechar 0
AnchorPoint: "r;hi" 330 660 basechar 0
AnchorPoint: "r;o" 330 210 basechar 0
AnchorPoint: "r;lo" 330 -200 basechar 0
LayerCount: 3
Fore
SplineSet
243 -175 m 2xe0
 243 -185 241 -189 224 -189 c 2
 41 -188 l 2
 30 -188 20 -187 20 -171 c 0
 20 -154 28 -154 40 -154 c 2
 189 -155 l 2
 203 -155 203 -153 203 -134 c 0xe0
 206 100 209 448 212 654 c 0
 212 663 209 668 186 668 c 2
 51 668 l 2
 35 668 30 669 30 683 c 0
 30 699 32 702 45 702 c 2
 215 700 l 2
 243 700 250 699 250 680 c 0xd0
 250 671 247 503 245 413 c 0
 243 284 243 154 243 25 c 2
 243 -175 l 2xe0
EndSplineSet
EndChar

StartChar: sterling
Encoding: 163 163 90
Width: 638
VWidth: 0
Flags: W
HStem: -262 54<460.677 543.372> -251 21G<28.5 55.5> 221 32<114.035 195.936 282.399 377.75> 643 34<405.734 482.586>
VStem: 207 75<254.141 356.845> 494 94<548.51 634.228> 561 24<-200.694 -133.141>
DStem2: 207 275 286 285 0.249232 0.968444<8.31365 321.691>
AnchorPoint: "l;bl" 0 10 basechar 0
AnchorPoint: "l;x" 0 380 basechar 0
AnchorPoint: "l;hi" 0 660 basechar 0
AnchorPoint: "l;o" 0 210 basechar 0
AnchorPoint: "l;lo" 0 -200 basechar 0
AnchorPoint: "r;bl" 638 10 basechar 0
AnchorPoint: "r;x" 638 380 basechar 0
AnchorPoint: "r;hi" 638 660 basechar 0
AnchorPoint: "r;o" 638 210 basechar 0
AnchorPoint: "r;lo" 638 -200 basechar 0
LayerCount: 3
Fore
SplineSet
461 677 m 0x7a
 524 677 588 649 588 577 c 0
 588 553 579 531 549 531 c 0
 509 531 507 573 494 608 c 0x7c
 487 628 471 643 445 643 c 0
 437 643 429 641 422 638 c 0
 400 628 381 603 364 569 c 0
 343 527 329 470 317 415 c 0
 306 364 297 329 286 285 c 0
 284 278 282 270 282 264 c 0
 282 257 284 254 295 254 c 2
 358 255 l 2
 371 255 378 254 378 242 c 0
 378 228 374 224 362 224 c 2
 290 223 l 2
 273 223 270 221 266 202 c 0
 255 141 233 72 212 7 c 0
 199 -31 172 -91 172 -98 c 0
 172 -106 180 -105 203 -109 c 0
 216 -111 225 -112 248 -118 c 0
 343 -142 512 -208 527 -208 c 0
 560 -208 561 -179 561 -160 c 0
 561 -115 487 -114 487 -70 c 0
 487 -47 506 -35 526 -35 c 0
 540 -35 555 -41 564 -51 c 0
 576 -64 585 -86 585 -116 c 2
 585 -150 l 2
 585 -182 583 -207 563 -226 c 0
 538 -249 498 -262 473 -262 c 0xba
 328 -262 254 -127 179 -127 c 0
 144 -127 143 -151 127 -176 c 0
 106 -210 72 -251 39 -251 c 0
 18 -251 10 -240 10 -228 c 0
 10 -220 13 -210 19 -202 c 0
 36 -177 70 -147 92 -134 c 0
 114 -121 135 -110 139 -98 c 0
 155 -50 165 14 174 72 c 0
 183 127 192 177 195 202 c 0
 195 206 196 209 196 212 c 0
 196 220 193 221 179 221 c 2
 143 221 l 2
 126 221 114 222 114 238 c 0
 114 251 125 253 139 253 c 2
 190 252 l 2
 205 252 204 256 207 275 c 0
 210 298 217 336 225 375 c 0
 249 501 306 677 461 677 c 0x7a
EndSplineSet
EndChar

StartChar: c_t
Encoding: 65536 -1 91
Width: 689
VWidth: 250
Flags: W
HStem: -17 61<175.333 304.592 536.999 618.35> 341 87<280.678 340.379> 350 34<404.402 458.605> 355 48<538.285 674.223> 596 39<310.7 468.751>
VStem: 31 71<123.475 294.604> 213 36<438.266 539.604> 453 72<52.8065 333.002> 463 64<133.101 351.957> 514 36<438.366 553.988>
AnchorPoint: "r;o" 689 210 basechar 0
AnchorPoint: "r;x" 684 380 basechar 0
AnchorPoint: "r;bl" 689 10 basechar 0
AnchorPoint: "l;o" 0 210 basechar 0
AnchorPoint: "l;x" 20 380 basechar 0
AnchorPoint: "l;bl" 20 10 basechar 0
LayerCount: 3
Fore
SplineSet
448 352 m 0xce80
 439 352 425 350 420 350 c 0
 409 350 403 354 403 361 c 0
 403 374 419 379 429 384 c 0xae80
 482 410 514 442 514 507 c 0
 514 558 459 596 403 596 c 0
 294 596 249 540 249 485 c 0
 249 450 259 436 292 428 c 0
 333 418 356 400 356 374 c 0
 356 357 334 341 324 341 c 0xce40
 272 341 283 392 233 392 c 0
 145 392 102 307 102 217 c 0
 102 122 160 44 249 44 c 0
 268 44 288 48 308 55 c 0
 338 67 356 86 364 99 c 0
 366 101 369 102 372 102 c 0
 379 102 382 98 382 89 c 0
 382 56 305 -17 227 -17 c 0
 124 -17 31 58 31 192 c 0
 31 301 102 407 213 429 c 0
 227 432 229 434 229 438 c 0
 229 442 224 448 220 459 c 0
 215 471 213 485 213 501 c 0
 213 580 291 635 399 635 c 0
 491 635 550 597 550 504 c 0
 550 479 547 453 542 431 c 0
 540 421 538 414 538 409 c 0
 538 402 551 403 561 403 c 0
 592 405 644 409 655 409 c 0
 670 409 675 398 675 389 c 0
 675 362 666 355 652 355 c 2
 548 355 l 2x9e40
 535 355 527 351 527 341 c 0xce80
 526 272 525 196 525 130 c 0
 525 72 536 42 582 42 c 0
 627 42 656 75 667 75 c 0
 673 75 675 71 675 65 c 0
 675 35 617 -11 553 -11 c 0
 472 -11 453 33 453 103 c 0xcf
 453 227 463 293 463 330 c 0
 463 348 460 352 448 352 c 0xce80
EndSplineSet
Ligature2: "'dlig' Discretionary Ligatures in Latin lookup 4 subtable" c t
LCarets2: 1 0 
EndChar

StartChar: s_t
Encoding: 65537 -1 92
Width: 643
VWidth: 250
Flags: W
HStem: -12 35<108.255 213.551> -11 53<491.796 583.73> 350 34<358.402 410.987> 355 48<492.285 628.223> 391 32<112.562 183.763> 596 39<261.586 424.798>
VStem: 26 32<75.8526 132.872> 40 53<288.278 378.081> 165 32<440.794 535.636> 241 60<47.233 135.847> 253 24<308.892 348.39> 407 72<52.8065 333.002> 417 64<133.101 351.957> 473 36<445.303 551.372>
AnchorPoint: "r;bl" 643 10 basechar 0
AnchorPoint: "r;x" 638 380 basechar 0
AnchorPoint: "r;o" 643 210 basechar 0
AnchorPoint: "l;o" 0 210 basechar 0
AnchorPoint: "l;x" 5 380 basechar 0
AnchorPoint: "l;bl" 0 10 basechar 0
LayerCount: 3
Fore
SplineSet
165 501 m 0xadc0
 165 580 245 635 353 635 c 0
 440 635 509 597 509 504 c 0xadc4
 509 479 501 453 496 431 c 0
 494 421 492 414 492 409 c 0
 492 402 505 403 515 403 c 0
 546 405 598 409 609 409 c 0
 624 409 629 398 629 389 c 0
 629 362 620 355 606 355 c 2
 502 355 l 2
 489 355 481 351 481 341 c 0x1488
 480 272 479 196 479 130 c 0
 479 72 490 42 536 42 c 0
 581 42 610 75 621 75 c 0
 627 75 629 71 629 65 c 0
 629 35 571 -11 507 -11 c 0
 426 -11 407 33 407 103 c 0x5490
 407 227 417 293 417 330 c 0x5488
 417 348 414 352 402 352 c 0
 393 352 379 350 374 350 c 0
 363 350 357 354 357 361 c 0
 357 374 373 379 383 384 c 0
 436 410 473 450 473 507 c 0
 473 558 413 596 357 596 c 0
 248 596 197 540 197 485 c 0
 197 450 220 417 253 408 c 0
 273 403 278 398 278 383 c 0
 278 369 277 346 277 332 c 0
 277 315 273 308 268 308 c 0
 263 308 258 315 253 326 c 0
 239 362 207 391 158 391 c 0
 117 391 93 367 93 335 c 0x6da4
 93 293 133 269 182 244 c 0
 240 214 301 187 301 118 c 0
 301 51 252 -12 150 -12 c 0
 135 -12 91 -6 72 1 c 0
 50 9 34 23 33 35 c 0
 31 62 26 104 26 112 c 0xaec0
 26 126 32 133 40 133 c 0xad80
 48 133 53 129 58 112 c 0xae80
 75 49 123 23 169 23 c 0
 207 23 241 56 241 96 c 0
 241 136 185 160 131 189 c 0
 82 215 40 251 40 307 c 0
 40 379 82 423 170 423 c 0
 180 423 185 423 185 428 c 0
 185 432 182 439 177 449 c 0
 172 460 165 476 165 501 c 0xadc0
EndSplineSet
Ligature2: "'dlig' Discretionary Ligatures in Latin lookup 4 subtable" s t
LCarets2: 1 0 
EndChar

StartChar: Q.001
Encoding: 65538 -1 93
Width: 749
VWidth: 0
Flags: W
HStem: -229 67<1078.31 1281.28> 22 26<294.214 414.457> 650 34<269.338 421.182>
VStem: 40 88<248.91 475.693> 597 92<227.322 445.521>
DStem2: 592 26 515 -33 0.934353 -0.35635<-79.5256 535.215> 1351 -128 1403 -135 0.866694 0.49884<-74.6753 61.6035>
AnchorPoint: "l;bl" 0 10 basechar 0
AnchorPoint: "l;x" 0 380 basechar 0
AnchorPoint: "l;hi" 0 660 basechar 0
AnchorPoint: "l;o" 0 210 basechar 0
AnchorPoint: "r;bl" 749 10 basechar 0
AnchorPoint: "r;x" 749 380 basechar 0
AnchorPoint: "r;hi" 749 660 basechar 0
AnchorPoint: "r;o" 749 210 basechar 0
LayerCount: 3
Fore
SplineSet
515 -33 m 0
 476 -16 438 2 387 21 c 0
 385 22 383 22 381 22 c 0
 376 22 370 20 344 20 c 0
 145 20 40 180 40 345 c 0
 40 567 194 684 381 684 c 0
 588 684 689 522 689 351 c 0
 689 185 600 120 554 86 c 0
 531 69 519 64 519 58 c 0
 519 54 543 42 592 26 c 0
 701 -10 800 -46 911 -86 c 0
 982 -111 1125 -162 1200 -162 c 0
 1255 -162 1325 -141 1351 -128 c 0
 1366 -120 1383 -109 1394 -102 c 0
 1397 -100 1401 -98 1405 -98 c 0
 1411 -98 1419 -102 1419 -111 c 0
 1419 -119 1409 -130 1403 -135 c 0
 1365 -167 1315 -195 1271 -211 c 0
 1242 -222 1202 -229 1181 -229 c 0
 1067 -229 996 -211 935 -188 c 0
 776 -129 652 -93 515 -33 c 0
353 650 m 0
 206 650 128 527 128 400 c 0
 128 249 195 48 357 48 c 0
 500 48 597 126 597 327 c 0
 597 489 483 650 353 650 c 0
EndSplineSet
EndChar

StartChar: Q.002
Encoding: 65539 -1 94
Width: 809
VWidth: 0
Flags: W
HStem: -232 40<1164.4 1323.05> 22 26<294.214 414.457> 650 34<269.338 421.182>
VStem: 40 88<248.91 475.693> 597 92<227.322 445.521>
DStem2: 592 26 515 -33 0.945236 -0.326389<-79.3669 589.641>
AnchorPoint: "r;o" 809 210 basechar 0
AnchorPoint: "r;hi" 809 660 basechar 0
AnchorPoint: "r;x" 809 380 basechar 0
AnchorPoint: "r;bl" 809 10 basechar 0
AnchorPoint: "l;o" 0 210 basechar 0
AnchorPoint: "l;hi" 0 660 basechar 0
AnchorPoint: "l;x" 0 380 basechar 0
AnchorPoint: "l;bl" 0 10 basechar 0
LayerCount: 3
Fore
SplineSet
515 -33 m 0
 476 -16 438 2 387 21 c 0
 385 22 383 22 381 22 c 0
 376 22 370 20 344 20 c 0
 145 20 40 180 40 345 c 0
 40 567 194 684 381 684 c 0
 588 684 689 522 689 351 c 0
 689 185 600 120 554 86 c 0
 531 69 519 64 519 58 c 0
 519 54 543 42 592 26 c 0
 701 -10 800 -46 911 -86 c 0
 965 -105 1089 -154 1177 -176 c 0
 1218 -186 1242 -191 1279 -192 c 0
 1321 -193 1325 -195 1325 -207 c 0
 1325 -220 1292 -226 1261 -232 c 0
 1219 -239 1167 -242 1125 -242 c 0
 1089 -242 996 -211 935 -188 c 0
 776 -129 652 -93 515 -33 c 0
353 650 m 0
 206 650 128 527 128 400 c 0
 128 249 195 48 357 48 c 0
 500 48 597 126 597 327 c 0
 597 489 483 650 353 650 c 0
EndSplineSet
EndChar

StartChar: section
Encoding: 167 167 95
Width: 449
VWidth: 0
Flags: W
HStem: -205 63<55.4095 197.889> 610 53<236.725 363.237>
VStem: 42 53<314.626 423.258> 355 54<28.7809 153.493>
AnchorPoint: "l;bl" 40 10 basechar 0
AnchorPoint: "l;x" 0 380 basechar 0
AnchorPoint: "l;o" 0 210 basechar 0
AnchorPoint: "l;lo" 0 -200 basechar 0
AnchorPoint: "r;bl" 449 10 basechar 0
AnchorPoint: "r;x" 409 380 basechar 0
AnchorPoint: "r;hi" 409 660 basechar 0
AnchorPoint: "r;o" 449 210 basechar 0
AnchorPoint: "r;lo" 409 -200 basechar 0
LayerCount: 3
Fore
SplineSet
130 480 m 0
 115 455 95 422 95 389 c 0
 95 313 245 74 293 -2 c 0
 301 -14 307 -23 310 -23 c 0
 314 -23 318 -17 328 -2 c 0
 340 16 355 45 355 87 c 0
 355 116 325 173 293 232 c 0
 256 300 215 373 191 413 c 0
 180 431 167 458 158 478 c 0
 152 490 149 494 145 494 c 0
 141 494 136 490 130 480 c 0
301 663 m 0
 333 663 378 654 378 628 c 0
 378 602 373 591 354 591 c 0
 345 591 307 600 293 604 c 0
 281 607 273 610 257 610 c 0
 249 610 238 603 222 587 c 0
 209 574 207 565 207 556 c 2
 207 546 l 2
 207 513 291 389 350 279 c 0
 381 222 409 176 409 111 c 0
 409 68 385 8 341 -43 c 0
 319 -68 294 -96 267 -123 c 0
 221 -167 193 -205 108 -205 c 0
 77 -205 40 -195 40 -164 c 0
 40 -146 45 -132 64 -132 c 0
 75 -132 138 -142 168 -142 c 0
 188 -142 200 -140 218 -125 c 0
 240 -105 244 -96 244 -80 c 0
 244 -18 42 216 42 341 c 0
 42 429 141 555 225 631 c 0
 246 650 264 663 301 663 c 0
EndSplineSet
EndChar

StartChar: paragraph
Encoding: 182 182 96
Width: 713
VWidth: 0
Flags: W
HStem: -181 49<235.273 427.212> -152 45<85.8535 290.705> 98 14<432 487> 583 51<575.733 702.677> 603 28<390.93 502.952 552.268 645.783>
VStem: 38 236<218.745 444.65> 494 47<-58.6562 97.9956 122.759 228.208> 505 45<368.273 601.471>
AnchorPoint: "l;bl" 0 10 basechar 0
AnchorPoint: "l;x" 0 380 basechar 0
AnchorPoint: "l;o" 0 210 basechar 0
AnchorPoint: "l;lo" 0 -200 basechar 0
AnchorPoint: "r;bl" 633 10 basechar 0
AnchorPoint: "r;x" 633 380 basechar 0
AnchorPoint: "r;hi" 713 660 basechar 0
AnchorPoint: "r;o" 633 210 basechar 0
LayerCount: 3
Fore
SplineSet
372 -181 m 0xb6
 296 -181 256 -152 147 -152 c 0
 107 -152 99 -177 66 -178 c 24
 49 -178 30 -170 30 -154 c 0
 30 -116 79 -107 123 -107 c 0x66
 205 -107 257 -132 344 -132 c 0
 454 -132 494 -59 494 54 c 2
 494 79 l 2
 494 92 493 98 487 98 c 0
 486 98 462 87 454 83 c 0
 427 72 383 52 315 52 c 0
 159 52 38 164 38 337 c 0
 38 515 191 630 379 631 c 0xae
 466 631 545 634 633 634 c 2
 660 634 l 2
 670 634 673 633 683 632 c 0
 698 630 703 620 703 609 c 0
 703 596 694 583 676 583 c 0
 646 583 632 602 573 602 c 0
 554 602 550 589 550 574 c 0x35
 546 351 547 213 541 15 c 0
 537 -87 504 -181 372 -181 c 0xb6
447 603 m 2x2d
 339 603 274 463 274 342 c 0
 274 236 313 112 432 112 c 0
 460 112 495 131 495 146 c 2
 505 579 l 2
 505 602 480 603 463 603 c 2
 447 603 l 2x2d
EndSplineSet
EndChar

StartChar: dagger
Encoding: 8224 8224 97
Width: 409
VWidth: 0
Flags: W
HStem: 448 53<242.48 367.148> 458 38<232.625 319.951> 468 49<43.4761 180.969> 638 20G<202 215.5>
VStem: 169 67<-124.544 174.75> 181 50<234.347 457.788 511.457 657.364>
AnchorPoint: "l;bl" 0 10 basechar 0
AnchorPoint: "l;x" 0 380 basechar 0
AnchorPoint: "l;hi" 0 660 basechar 0
AnchorPoint: "l;o" 0 210 basechar 0
AnchorPoint: "l;lo" 0 -200 basechar 0
AnchorPoint: "r;bl" 409 10 basechar 0
AnchorPoint: "r;x" 409 380 basechar 0
AnchorPoint: "r;hi" 409 660 basechar 0
AnchorPoint: "r;o" 409 210 basechar 0
AnchorPoint: "r;lo" 409 -200 basechar 0
LayerCount: 3
Fore
SplineSet
187 -130 m 0x58
 172 -130 169 -116 169 -99 c 0x58
 169 -96 171 -67 171 -55 c 0
 174 61 177 274 181 448 c 0x94
 181 465 139 468 109 468 c 0
 73 468 53 453 43 453 c 0
 32 453 26 464 26 475 c 0
 26 502 58 517 83 517 c 0x34
 119 517 136 511 167 511 c 0
 177 511 181 520 181 530 c 0
 181 572 184 593 184 634 c 0
 184 647 196 658 208 658 c 0
 223 658 231 649 231 637 c 0
 231 601 230 573 230 537 c 0
 230 512 235 496 266 496 c 0x54
 324 496 336 501 358 501 c 0
 365 501 369 494 369 484 c 0
 369 453 351 448 322 448 c 0x94
 278 448 252 458 242 458 c 0
 232 458 231 448 231 439 c 2
 231 305 l 2x54
 231 189 236 95 236 -28 c 2
 236 -80 l 2
 236 -113 222 -130 187 -130 c 0x58
EndSplineSet
EndChar

StartChar: daggerdbl
Encoding: 8225 8225 98
Width: 461
VWidth: 0
Flags: W
HStem: 406 38<155.342 207.979 256.314 303.178> 631 21G<159 170.5 300 306>
VStem: 193 67<-121.21 132.615> 212 44<191.857 403.93 445.135 517.449> 287 30<610.125 650.952>
DStem2: 170 456 37 480 0.908995 -0.416806<-136.463 -9.4395> 59 397 177 400 0.956264 0.292504<-23.2762 91.4035 242.348 262.241 310.192 373.708> 329 415 318 390 0.946271 -0.323375<-29.7035 96.9877>
AnchorPoint: "l;bl" 0 10 basechar 0
AnchorPoint: "l;x" 0 380 basechar 0
AnchorPoint: "l;hi" 0 660 basechar 0
AnchorPoint: "l;o" 0 210 basechar 0
AnchorPoint: "l;lo" 0 -200 basechar 0
AnchorPoint: "r;bl" 461 10 basechar 0
AnchorPoint: "r;x" 461 380 basechar 0
AnchorPoint: "r;hi" 461 660 basechar 0
AnchorPoint: "r;o" 461 210 basechar 0
AnchorPoint: "r;lo" 461 -200 basechar 0
LayerCount: 3
Fore
SplineSet
227 530 m 2xd8
 231 521 232 518 234 518 c 0
 238 518 242 528 247 544 c 0
 257 572 269 604 287 641 c 1
 287 642 l 1
 290 647 297 651 303 651 c 0
 309 651 317 647 317 636 c 0
 317 613 274 536 262 501 c 0
 258 490 256 480 256 472 c 0xd8
 256 447 260 444 268 444 c 0
 274 444 281 447 291 451 c 0
 312 460 368 488 399 501 c 0
 406 504 412 505 417 505 c 0
 428 505 432 498 432 491 c 0
 432 481 423 475 410 469 c 0
 376 453 338 442 321 437 c 0
 302 431 302 431 302 428 c 0
 302 425 308 422 329 415 c 0
 346 409 384 399 409 388 c 0
 421 383 427 378 427 365 c 0
 427 355 419 351 410 351 c 0
 402 351 393 354 387 357 c 0
 371 365 342 380 318 390 c 0
 302 397 286 401 270 405 c 0
 268 406 265 406 263 406 c 0
 258 406 255 404 255 389 c 2
 255 305 l 2
 255 189 260 95 260 -28 c 2
 260 -80 l 2xe8
 260 -113 247 -125 212 -125 c 0xd8
 196 -125 193 -116 193 -99 c 0xe8
 193 -53 203 -9 208 398 c 0
 208 403 205 404 199 404 c 0
 191 404 181 401 177 400 c 0
 126 386 71 356 46 356 c 0
 36 356 26 362 26 373 c 0
 26 386 41 393 59 397 c 0
 85 403 142 422 146 426 c 1
 146 432 130 438 119 443 c 0
 95 453 62 469 37 480 c 0
 30 482 28 490 28 495 c 0
 28 504 35 511 45 511 c 0
 47 511 50 511 52 510 c 0
 92 493 135 471 170 456 c 0
 178 452 191 445 201 445 c 0
 208 445 212 448 212 458 c 0
 212 467 210 480 204 495 c 0
 189 532 149 613 149 634 c 0
 149 642 152 652 166 652 c 0
 175 652 182 646 184 642 c 2
 227 530 l 2xd8
EndSplineSet
EndChar

StartChar: bullet
Encoding: 8226 8226 99
Width: 306
VWidth: 0
Flags: W
HStem: 152 146<101.5 204.5>
VStem: 80 146<173.5 276.5>
AnchorPoint: "l;bl" 0 10 basechar 0
AnchorPoint: "l;x" 0 380 basechar 0
AnchorPoint: "l;hi" 0 660 basechar 0
AnchorPoint: "l;o" 0 210 basechar 0
AnchorPoint: "l;lo" 0 -200 basechar 0
AnchorPoint: "r;bl" 306 10 basechar 0
AnchorPoint: "r;x" 306 380 basechar 0
AnchorPoint: "r;hi" 306 660 basechar 0
AnchorPoint: "r;o" 306 210 basechar 0
AnchorPoint: "r;lo" 306 -200 basechar 0
LayerCount: 3
Fore
SplineSet
80 225 m 0
 80 265 113 298 153 298 c 0
 193 298 226 265 226 225 c 0
 226 185 193 152 153 152 c 0
 113 152 80 185 80 225 c 0
EndSplineSet
EndChar

StartChar: asterisk
Encoding: 42 42 100
Width: 384
VWidth: 0
Flags: W
HStem: 386 20<212.125 215> 421 73<45.7856 133.883> 496 22<190 226>
VStem: 137 74<344.333 385.78> 146 39<276.07 347.473> 234 32<429.947 474.1>
AnchorPoint: "l;x" 0 380 basechar 0
AnchorPoint: "l;hi" 0 660 basechar 0
AnchorPoint: "l;o" 0 210 basechar 0
AnchorPoint: "r;x" 384 380 basechar 0
AnchorPoint: "r;hi" 384 660 basechar 0
AnchorPoint: "r;o" 384 210 basechar 0
LayerCount: 3
Fore
SplineSet
185 289 m 0xec
 182 279 171 276 164 276 c 0
 156 276 147 282 146 293 c 0xec
 143 319 140 344 137 370 c 0
 133 408 137 417 104 421 c 0
 79 424 57 426 32 432 c 0
 24 434 20 441 20 449 c 0
 20 456 22 464 29 466 c 0
 62 479 92 487 117 494 c 1
 118 494 l 1
 133 497 135 503 135 514 c 2
 135 528 l 2
 135 544 133 563 133 581 c 0
 133 594 134 618 152 618 c 0
 161 618 170 610 173 602 c 0
 181 586 196 555 208 535 c 0
 216 523 222 518 226 518 c 0
 230 518 238 521 250 528 c 0
 271 538 292 552 318 552 c 0
 331 552 333 540 333 534 c 0
 333 520 288 481 277 470 c 0
 270 463 266 458 266 452 c 0
 266 449 268 445 272 440 c 0
 285 425 344 364 344 348 c 0
 344 335 334 329 322 329 c 0
 303 329 267 358 248 370 c 0
 232 381 223 386 217 386 c 0
 215 386 213 383 211 370 c 1
 211 369 l 1xf4
 204 346 194 312 185 289 c 0xec
146 450 m 0
 146 427 169 406 194 406 c 0
 215 406 234 429 234 452 c 0
 234 481 212 496 190 496 c 0
 168 496 146 481 146 450 c 0
EndSplineSet
EndChar

StartChar: at
Encoding: 64 64 101
Width: 989
VWidth: 20
Flags: W
HStem: -201 36<330.627 580.456> 8 59<311.907 431.325> 8 38<497.5 636.238> 408 26<497.949 584.867> 640 36<459.748 709.898>
VStem: 60 43<50.4651 301.702> 253 84<77.4052 193.54> 465 82<25 125.936> 573 115<361 455.5> 892 37<266.641 473.684>
AnchorPoint: "l;bl" 0 10 basechar 0
AnchorPoint: "l;x" 0 380 basechar 0
AnchorPoint: "l;hi" 0 660 basechar 0
AnchorPoint: "l;o" 0 210 basechar 0
AnchorPoint: "l;lo" 0 -200 basechar 0
AnchorPoint: "r;bl" 989 10 basechar 0
AnchorPoint: "r;x" 989 380 basechar 0
AnchorPoint: "r;hi" 989 660 basechar 0
AnchorPoint: "r;o" 989 210 basechar 0
AnchorPoint: "r;lo" 989 -200 basechar 0
LayerCount: 3
Fore
SplineSet
892 362 m 0xbfc0
 892 556 761 640 586 640 c 0
 330 640 103 442 103 167 c 0
 103 -38 265 -165 443 -165 c 0
 614 -165 725 -102 830 -5 c 0
 831 -4 843 6 847 6 c 0
 858 6 864 -8 864 -12 c 0
 864 -17 863 -22 859 -26 c 0
 755 -138 601 -201 439 -201 c 0
 243 -201 60 -70 60 174 c 0
 60 459 323 676 583 676 c 0
 761 676 929 595 929 370 c 0
 929 130 693 8 509 8 c 0
 486 8 465 15 465 35 c 0
 465 53 473 94 473 94 c 1
 473 94 396 11 325 11 c 0
 276 11 253 60 253 114 c 0
 253 197 386 434 565 434 c 0
 582 434 600 427 604 427 c 0
 607 427 610 430 622 445 c 0
 634 460 639 465 656 465 c 0
 672 465 688 462 688 449 c 0
 688 444 686 437 684 432 c 0
 651 362 547 127 547 84 c 0
 547 64 547 46 572 46 c 0
 641 46 732 88 807 163 c 0
 859 215 892 288 892 362 c 0xbfc0
337 124 m 0
 337 95 357 67 389 67 c 0xdfc0
 475 67 573 344 573 378 c 0
 573 397 552 408 533 408 c 0
 471 408 337 260 337 124 c 0
EndSplineSet
EndChar

StartChar: guillemotleft
Encoding: 171 171 102
Width: 407
VWidth: 488
Flags: W
HStem: 84 258<181 191 331 341>
VStem: 50 84<185.699 240.301> 200 84<185.699 240.301>
AnchorPoint: "l;bl" 0 10 basechar 0
AnchorPoint: "l;x" 0 380 basechar 0
AnchorPoint: "l;o" 0 210 basechar 0
AnchorPoint: "r;bl" 407 10 basechar 0
AnchorPoint: "r;x" 407 380 basechar 0
AnchorPoint: "r;o" 407 210 basechar 0
LayerCount: 3
Fore
SplineSet
223 242 m 2
 323 336 l 2
 326 339 331 342 336 342 c 0
 341 342 347 339 347 332 c 0
 347 329 345 325 343 321 c 2
 294 236 l 2
 288 226 284 219 284 213 c 0
 284 207 288 200 294 190 c 2
 343 105 l 2
 345 101 347 97 347 94 c 0
 347 87 341 84 336 84 c 0
 331 84 326 87 323 90 c 2
 223 184 l 2
 207 199 200 206 200 213 c 0
 200 220 207 227 223 242 c 2
73 242 m 2
 173 336 l 2
 176 339 181 342 186 342 c 0
 191 342 197 339 197 332 c 0
 197 329 195 325 193 321 c 2
 144 236 l 2
 138 226 134 219 134 213 c 0
 134 207 138 200 144 190 c 2
 193 105 l 2
 195 101 197 97 197 94 c 0
 197 87 191 84 186 84 c 0
 181 84 176 87 173 90 c 2
 73 184 l 2
 57 199 50 206 50 213 c 0
 50 220 57 227 73 242 c 2
EndSplineSet
EndChar

StartChar: guillemotright
Encoding: 187 187 103
Width: 407
VWidth: 488
Flags: W
HStem: 84 258<66 76 216 226>
VStem: 123 84<185.699 240.301> 273 84<185.699 240.301>
AnchorPoint: "l;bl" 0 10 basechar 0
AnchorPoint: "l;x" 0 380 basechar 0
AnchorPoint: "l;o" 0 210 basechar 0
AnchorPoint: "r;bl" 407 10 basechar 0
AnchorPoint: "r;x" 407 380 basechar 0
AnchorPoint: "r;o" 407 210 basechar 0
LayerCount: 3
Fore
SplineSet
184 184 m 2
 84 90 l 2
 81 87 76 84 71 84 c 0
 66 84 60 87 60 94 c 0
 60 97 62 101 64 105 c 2
 113 190 l 2
 119 200 123 207 123 213 c 0
 123 219 119 226 113 236 c 2
 64 321 l 2
 62 325 60 329 60 332 c 0
 60 339 66 342 71 342 c 0
 76 342 81 339 84 336 c 2
 184 242 l 2
 200 227 207 220 207 213 c 0
 207 206 200 199 184 184 c 2
334 184 m 2
 234 90 l 2
 231 87 226 84 221 84 c 0
 216 84 210 87 210 94 c 0
 210 97 212 101 214 105 c 2
 263 190 l 2
 269 200 273 207 273 213 c 0
 273 219 269 226 263 236 c 2
 214 321 l 2
 212 325 210 329 210 332 c 0
 210 339 216 342 221 342 c 0
 226 342 231 339 234 336 c 2
 334 242 l 2
 350 227 357 220 357 213 c 0
 357 206 350 199 334 184 c 2
EndSplineSet
EndChar

StartChar: guilsinglleft
Encoding: 8249 8249 104
Width: 257
VWidth: 488
Flags: W
HStem: 84 258<181 191>
VStem: 50 84<185.699 240.301>
AnchorPoint: "l;bl" 0 10 basechar 0
AnchorPoint: "l;x" 0 380 basechar 0
AnchorPoint: "l;o" 0 210 basechar 0
AnchorPoint: "r;bl" 257 10 basechar 0
AnchorPoint: "r;x" 257 380 basechar 0
AnchorPoint: "r;o" 257 210 basechar 0
LayerCount: 3
Fore
SplineSet
73 242 m 2
 173 336 l 2
 176 339 181 342 186 342 c 0
 191 342 197 339 197 332 c 0
 197 329 195 325 193 321 c 2
 144 236 l 2
 138 226 134 219 134 213 c 0
 134 207 138 200 144 190 c 2
 193 105 l 2
 195 101 197 97 197 94 c 0
 197 87 191 84 186 84 c 0
 181 84 176 87 173 90 c 2
 73 184 l 2
 57 199 50 206 50 213 c 0
 50 220 57 227 73 242 c 2
EndSplineSet
EndChar

StartChar: guilsinglright
Encoding: 8250 8250 105
Width: 243
VWidth: 488
Flags: W
HStem: 84 258<46 56>
VStem: 103 84<185.699 240.301>
AnchorPoint: "l;bl" 0 10 basechar 0
AnchorPoint: "l;x" 0 380 basechar 0
AnchorPoint: "l;o" 0 210 basechar 0
AnchorPoint: "r;bl" 243 10 basechar 0
AnchorPoint: "r;x" 243 380 basechar 0
AnchorPoint: "r;o" 243 210 basechar 0
LayerCount: 3
Fore
SplineSet
164 184 m 2
 64 90 l 2
 61 87 56 84 51 84 c 0
 46 84 40 87 40 94 c 0
 40 97 42 101 44 105 c 2
 93 190 l 2
 99 200 103 207 103 213 c 0
 103 219 99 226 93 236 c 2
 44 321 l 2
 42 325 40 329 40 332 c 0
 40 339 46 342 51 342 c 0
 56 342 61 339 64 336 c 2
 164 242 l 2
 180 227 187 220 187 213 c 0
 187 206 180 199 164 184 c 2
EndSplineSet
EndChar

StartChar: slash
Encoding: 47 47 106
Width: 466
VWidth: 488
Flags: W
DStem2: 59 -163 98 -202 0.346165 0.938174<-59.6435 929.712>
AnchorPoint: "l;bl" 0 10 basechar 0
AnchorPoint: "l;x" 80 380 basechar 0
AnchorPoint: "l;hi" 160 660 basechar 0
AnchorPoint: "l;o" 40 210 basechar 0
AnchorPoint: "l;lo" 0 -200 basechar 0
AnchorPoint: "r;bl" 366 10 basechar 0
AnchorPoint: "r;x" 466 380 basechar 0
AnchorPoint: "r;hi" 466 660 basechar 0
AnchorPoint: "r;o" 426 210 basechar 0
AnchorPoint: "r;lo" 306 -200 basechar 0
LayerCount: 3
Fore
SplineSet
40 -220 m 0
 40 -211 51 -186 59 -163 c 2
 59 -163 374 680 376 687 c 0
 381 702 387 705 405 705 c 0
 414 705 426 703 426 693 c 0
 426 684 417 662 412 649 c 2
 98 -202 l 2
 87 -233 81 -233 66 -233 c 0
 54 -233 40 -233 40 -220 c 0
EndSplineSet
EndChar

StartChar: backslash
Encoding: 92 92 107
Width: 466
VWidth: 488
Flags: W
DStem2: 90 687 54 649 0.346165 -0.938174<-22.5304 966.825>
AnchorPoint: "l;lo" 160 -200 basechar 0
AnchorPoint: "l;o" 40 210 basechar 0
AnchorPoint: "l;hi" 0 660 basechar 0
AnchorPoint: "l;x" 0 380 basechar 0
AnchorPoint: "l;bl" 100 10 basechar 0
AnchorPoint: "r;lo" 466 -200 basechar 0
AnchorPoint: "r;o" 426 210 basechar 0
AnchorPoint: "r;hi" 306 660 basechar 0
AnchorPoint: "r;x" 386 380 basechar 0
AnchorPoint: "r;bl" 466 10 basechar 0
LayerCount: 3
Fore
SplineSet
426 -220 m 0
 426 -233 412 -233 400 -233 c 0
 385 -233 379 -233 368 -202 c 2
 54 649 l 2
 49 662 40 684 40 693 c 0
 40 703 52 705 61 705 c 0
 79 705 85 702 90 687 c 0
 92 680 407 -163 407 -163 c 2
 415 -186 426 -211 426 -220 c 0
EndSplineSet
EndChar

StartChar: plus
Encoding: 43 43 108
Width: 527
VWidth: 488
Flags: W
HStem: -22 21G<256 271.5> 188 44<31.0031 241 286.086 495.999>
VStem: 241 45<-21.9956 187.996 232 441.995>
LayerCount: 3
Fore
SplineSet
31 212 m 0
 31 225 31 232 49 232 c 2
 219 232 l 2
 238 232 241 240 241 251 c 2
 241 427 l 2
 241 442 248 442 262 442 c 0
 276 442 286 442 286 422 c 2
 286 259 l 2
 286 245 287 232 303 232 c 2
 480 232 l 2
 496 232 496 225 496 211 c 0
 496 194 496 188 475 188 c 2
 303 188 l 2
 286 188 286 182 286 170 c 2
 286 -5 l 2
 286 -22 277 -22 266 -22 c 0
 246 -22 241 -22 241 -4 c 2
 241 170 l 2
 241 188 234 188 217 188 c 2
 48 188 l 2
 30 188 31 195 31 212 c 0
EndSplineSet
EndChar

StartChar: less
Encoding: 60 60 109
Width: 527
VWidth: 488
Flags: W
LayerCount: 3
Fore
SplineSet
41 211 m 0
 41 221 41 225 56 231 c 0
 463 379 462 381 468 381 c 0
 477 381 487 377 487 356 c 0
 487 347 479 342 471 340 c 2
 166 229 l 2
 147 222 124 213 124 208 c 0
 124 203 146 197 166 190 c 2
 476 78 l 2
 482 76 487 72 487 65 c 0
 487 57 481 41 463 41 c 0
 457 41 460 41 55 188 c 0
 41 193 41 197 41 211 c 0
EndSplineSet
EndChar

StartChar: equal
Encoding: 61 61 110
Width: 527
VWidth: 488
Flags: W
HStem: 110 45<31.0031 495.998> 266 44<31.0031 495.999>
LayerCount: 3
Fore
SplineSet
31 134 m 0
 31 147 31 155 49 155 c 2
 480 155 l 2
 496 155 496 148 496 134 c 0
 496 117 496 110 475 110 c 2
 48 110 l 2
 30 110 31 117 31 134 c 0
31 290 m 0
 31 303 31 310 49 310 c 2
 480 310 l 2
 496 310 496 303 496 289 c 0
 496 272 496 266 475 266 c 2
 48 266 l 2
 30 266 31 273 31 290 c 0
EndSplineSet
EndChar

StartChar: greater
Encoding: 62 62 111
Width: 527
VWidth: 488
Flags: W
LayerCount: 3
Fore
SplineSet
41 65 m 0
 41 72 45 76 51 78 c 2
 362 190 l 2
 382 197 404 203 404 208 c 0
 404 213 381 222 362 229 c 2
 56 340 l 2
 48 342 41 347 41 356 c 0
 41 377 50 381 59 381 c 0
 65 381 64 379 471 231 c 0
 486 225 487 221 487 211 c 0
 487 197 486 193 472 188 c 0
 67 41 70 41 64 41 c 0
 46 41 41 57 41 65 c 0
EndSplineSet
EndChar

StartChar: multiply
Encoding: 215 215 112
Width: 527
VWidth: 488
Flags: W
HStem: 173 76<237.625 289.453>
VStem: 226 74<185.547 236.234>
DStem2: 130 376 95 347 0.705945 -0.708267<-15.4149 185.018 237.802 439.726> 97 74 127 42 0.705945 0.708267<-14.7207 187.138 242.646 441.773>
LayerCount: 3
Fore
SplineSet
429 344 m 2
 308 223 l 2
 303 218 300 213 300 210 c 0
 300 206 304 202 308 198 c 2
 432 74 l 2
 437 69 438 65 438 62 c 0
 438 54 419 35 412 35 c 0
 409 35 404 37 399 42 c 2
 276 166 l 2
 271 171 267 173 263 173 c 0
 258 173 254 169 247 162 c 2
 127 42 l 2
 122 37 118 35 115 35 c 0
 108 35 89 53 89 61 c 0
 89 65 92 69 97 74 c 2
 217 195 l 2
 223 201 226 206 226 210 c 0
 226 215 223 219 219 223 c 2
 95 347 l 2
 91 351 88 355 88 358 c 0
 88 365 107 384 116 384 c 0
 120 384 125 381 130 376 c 2
 246 261 l 2
 252 255 258 249 265 249 c 0
 268 249 272 250 276 254 c 2
 401 379 l 2
 405 383 410 385 413 385 c 0
 419 385 438 368 438 358 c 0
 438 355 435 350 429 344 c 2
EndSplineSet
Layer: 2
SplineSet
88 358 m 4
 88 365 107 384 116 384 c 4
 120 384 125 381 130 376 c 6
 246 261 l 6
 252 255 258 249 265 249 c 4
 268 249 272 250 276 254 c 6
 401 379 l 6
 405 383 410 385 413 385 c 4
 420 385 438 367 438 359 c 4
 438 355 435 350 429 344 c 6
 308 223 l 6
 303 218 300 213 300 210 c 4
 300 206 304 202 308 198 c 6
 432 74 l 6
 437 69 438 65 438 62 c 4
 438 54 419 35 412 35 c 4
 409 35 404 37 399 42 c 6
 276 166 l 6
 271 171 267 173 263 173 c 4
 258 173 254 169 247 162 c 6
 127 42 l 6
 122 37 118 35 115 35 c 4
 108 35 89 53 89 61 c 4
 89 65 92 69 97 74 c 6
 217 195 l 6
 223 201 226 206 226 210 c 4
 226 215 223 219 219 223 c 6
 95 347 l 6
 91 351 88 355 88 358 c 4
EndSplineSet
EndChar

StartChar: divide
Encoding: 247 247 113
Width: 527
VWidth: 488
Flags: W
HStem: 60 81<222.31 293.681> 188 44<31.0031 495.999> 280 81<217.572 288.681>
VStem: 217 82<65.3547 135.681 288.56 353.256>
LayerCount: 3
Fore
SplineSet
31 212 m 0
 31 225 31 232 49 232 c 2
 480 232 l 2
 496 232 496 225 496 211 c 0
 496 194 496 188 475 188 c 2
 48 188 l 2
 30 188 31 195 31 212 c 0
212 320 m 0
 212 342 232 361 254 361 c 0
 276 361 294 343 294 321 c 0
 294 299 275 280 253 280 c 0
 231 280 212 298 212 320 c 0
217 101 m 0
 217 123 236 141 258 141 c 0
 280 141 299 122 299 100 c 0
 299 78 281 60 259 60 c 0
 237 60 217 78 217 101 c 0
EndSplineSet
EndChar

StartChar: minus
Encoding: 8722 8722 114
Width: 527
VWidth: 488
Flags: W
HStem: 188 44<31.0031 495.999>
LayerCount: 3
Fore
SplineSet
31 212 m 0
 31 225 31 232 49 232 c 2
 480 232 l 2
 496 232 496 225 496 211 c 0
 496 194 496 188 475 188 c 2
 48 188 l 2
 30 188 31 195 31 212 c 0
EndSplineSet
EndChar

StartChar: f_f
Encoding: 65542 -1 145
Width: 542
VWidth: 0
Flags: W
HStem: 0 27<26.008 83.0598 162.175 235.989 281.023 339.201 421.787 488.584> 340 26<30.5273 77.343> 353 27<158.545 326.508> 361 40<422.737 524> 361 34<169.249 345.734 412.127 510.401> 623 40<235 339.516> 630 52<482.741 593.474>
VStem: 95 63<33.0702 346.915 380.012 512.429> 345 68<34.6871 360.992 395.005 519.415>
AnchorPoint: "l;bl" 0 10 basechar 0
AnchorPoint: "l;x" 15 380 basechar 0
AnchorPoint: "l;o" 10 210 basechar 0
AnchorPoint: "r;bl" 512 10 basechar 0
AnchorPoint: "r;x" 542 380 basechar 0
AnchorPoint: "r;o" 527 210 basechar 0
LayerCount: 3
Fore
SplineSet
231 605 m 0x8d80
 193 581 158 503 158 399 c 0
 158 389 160 380 169 380 c 0xa580
 173 380 261 390 320 390 c 0
 335 390 348 391 348 395 c 0
 348 463 362 519 382 557 c 0
 385 563 390 572 390 574 c 0
 390 577 385 579 376 583 c 0
 369 586 360 590 352 595 c 0
 337 605 312 623 292 623 c 0
 269 623 249 616 231 605 c 0x8d80
559 682 m 0x8380
 581 682 625 674 625 648 c 0
 625 628 600 606 581 606 c 0
 553 606 534 630 517 630 c 0
 457 630 410 562 410 412 c 0
 410 402 413 395 422 395 c 0x8b80
 437 395 499 401 511 401 c 0
 518 401 524 398 524 389 c 2
 524 378 l 2
 524 364 521 361 511 361 c 2
 428 361 l 2x9180
 414 361 412 351 412 342 c 0
 412 332 413 254 413 211 c 2
 413 87 l 2
 413 27 425 35 464 33 c 0
 477 32 489 31 489 18 c 0
 489 6 483 1 472 1 c 0
 443 1 416 0 375 0 c 0
 344 0 325 -2 301 -2 c 0
 289 -2 281 3 281 13 c 0
 281 25 294 28 307 28 c 2
 317 28 l 2
 342 28 345 51 345 76 c 2
 346 336 l 2
 346 356 345 363 328 363 c 0
 297 363 212 359 170 353 c 0xa180
 152 351 155 348 155 337 c 0
 157 255 158 170 158 87 c 0
 158 27 159 34 204 30 c 0
 221 28 236 27 236 14 c 0
 236 2 224 0 213 0 c 0
 184 0 167 2 126 2 c 0
 97 2 71 0 47 0 c 0
 35 0 26 3 26 13 c 0
 26 25 37 26 47 27 c 0
 87 31 90 43 91 78 c 2
 96 329 l 2
 96 337 96 347 78 347 c 0
 64 347 49 340 39 340 c 0
 34 340 30 342 30 350 c 0
 30 359 42 364 48 366 c 0
 75 374 95 370 95 381 c 0
 95 530 161 663 338 663 c 0xc580
 360 663 384 660 408 646 c 0
 427 635 431 628 435 628 c 0
 438 628 439 632 451 640 c 0
 477 657 508 682 559 682 c 0x8380
EndSplineSet
Ligature2: "'liga' Standard Ligatures in Latin lookup 3 subtable" f f
LCarets2: 1 0 
EndChar

StartChar: f_i
Encoding: 65543 -1 146
Width: 522
VWidth: 0
Flags: W
HStem: -2 30<23.0095 87.4091 175.38 252.956 290.149 353.161 440.871 500.748> 333 32<25.0964 78.2493> 364 28<164.552 349.899> 645 46<230.161 332>
VStem: 93 70<35.0193 341.995 392.006 544.281> 358 71<37.8719 356.551>
AnchorPoint: "l;o" 10 210 basechar 0
AnchorPoint: "l;x" 15 380 basechar 0
AnchorPoint: "l;bl" 0 10 basechar 0
AnchorPoint: "r;bl" 522 10 basechar 0
AnchorPoint: "r;x" 507 380 basechar 0
AnchorPoint: "r;o" 507 210 basechar 0
LayerCount: 3
Fore
SplineSet
257 364 m 2xbc
 227 364 l 2xbc
 197 364 163 362 163 344 c 2
 163 325 l 2
 163 253 168 177 168 105 c 2
 168 82 l 2
 168 40 178 33 201 32 c 2
 221 31 l 2
 238 30 253 27 253 14 c 0
 253 2 241 -1 230 -1 c 0
 201 -1 176 0 135 0 c 0
 97 0 63 -2 39 -2 c 0
 27 -2 23 3 23 13 c 0
 23 25 36 28 49 28 c 2
 59 28 l 2
 87 28 92 35 93 102 c 0
 94 177 94 253 94 328 c 0
 94 335 93 342 79 342 c 0
 63 342 46 333 36 333 c 0
 29 333 25 336 25 348 c 0
 25 357 40 363 46 365 c 0xdc
 72 374 93 375 93 386 c 0
 93 503 113 586 181 639 c 0
 204 657 257 691 316 691 c 0
 348 691 406 686 406 649 c 0
 406 627 384 607 359 607 c 0
 315 607 298 645 270 645 c 0
 188 645 163 528 163 410 c 0
 163 400 166 392 175 392 c 0
 211 392 288 398 328 401 c 0
 353 403 378 407 389 420 c 0
 395 428 404 445 416 445 c 0
 422 445 430 441 430 427 c 0
 430 418 429 242 429 84 c 0
 429 46 436 39 468 34 c 0
 487 31 501 28 501 17 c 0
 501 4 496 0 482 0 c 0
 458 0 421 1 398 1 c 0
 363 1 334 -2 314 -2 c 0
 303 -2 290 3 290 15 c 0
 290 27 298 29 310 30 c 0
 354 32 358 35 358 81 c 0
 358 149 356 263 356 334 c 0
 356 345 354 351 338 356 c 0
 318 362 284 364 257 364 c 2xbc
EndSplineSet
Ligature2: "'liga' Standard Ligatures in Latin lookup 3 subtable" f i
LCarets2: 1 0 
EndChar

StartChar: f_l
Encoding: 65544 -1 147
Width: 515
VWidth: 0
Flags: W
HStem: 0 31<25.0176 85.7427 156.526 232.988 276.046 335.942> 349 28<28.3358 71.5774> 362 34<155.002 264.682> 642 37<217.919 330.141> 666 20G<392 405.5>
VStem: 93 62<31.6563 353.692 396.003 533.604> 343 71<40.4732 630.863>
AnchorPoint: "l;bl" 0 10 basechar 0
AnchorPoint: "l;x" 15 380 basechar 0
AnchorPoint: "l;o" 10 210 basechar 0
AnchorPoint: "r;bl" 515 10 basechar 0
AnchorPoint: "r;x" 505 380 basechar 0
AnchorPoint: "r;hi" 505 660 basechar 0
AnchorPoint: "r;o" 505 210 basechar 0
LayerCount: 3
Fore
SplineSet
300 679 m 0xd6
 322 679 352 671 359 671 c 0
 374 671 383 686 401 686 c 0x8e
 410 686 415 678 415 668 c 0
 415 643 414 620 414 599 c 2
 414 73 l 2
 414 48 425 41 448 38 c 0
 469 35 489 36 489 19 c 0
 489 7 479 1 468 1 c 0
 445 1 442 2 384 2 c 0
 359 2 309 0 299 0 c 0
 282 0 276 6 276 17 c 0
 276 33 292 33 304 34 c 0
 339 37 340 48 340 70 c 0
 340 163 341 184 343 391 c 2
 344 540 l 2
 344 569 343 600 335 617 c 0
 327 634 299 642 271 642 c 0
 243 642 197 630 176 561 c 0
 164 522 155 487 155 410 c 0
 155 400 158 396 167 396 c 0
 179 396 213 399 235 399 c 0
 241 399 245 398 249 398 c 0
 258 397 265 398 265 383 c 0
 265 368 256 366 244 366 c 0
 218 366 199 366 170 362 c 0xb6
 158 361 155 354 155 346 c 0
 155 260 154 173 154 87 c 0
 154 28 157 32 199 31 c 0
 216 31 233 29 233 16 c 0
 233 4 222 -2 211 -2 c 0
 182 -2 158 1 117 1 c 0
 79 1 67 0 43 0 c 0
 31 0 25 6 25 16 c 0
 25 28 36 31 49 31 c 2
 59 31 l 2
 85 31 87 34 87 74 c 2
 88 337 l 2
 88 345 90 354 72 354 c 0
 63 354 53 351 44 349 c 0
 28 345 23 344 23 356 c 0
 23 362 40 372 57 377 c 0
 74 382 93 383 93 387 c 0
 93 494 117 555 153 607 c 0
 180 647 232 679 300 679 c 0xd6
EndSplineSet
Ligature2: "'liga' Standard Ligatures in Latin lookup 3 subtable" f l
LCarets2: 1 0 
EndChar

StartChar: f_f_i
Encoding: 65545 -1 148
Width: 772
VWidth: 0
Flags: W
HStem: -2 25<27.1446 86.4615> -1 31<161.755 240.902 281.149 342.035 418.756 495.991 543.023 607.779 683.338 747.985> 333 24<28.3016 77.3416> 352 28<161.314 309.673> 359 28<172.066 345.265 417.855 604.317> 361 34<429.717 605.317> 626 36<249.493 337.687> 641 41<489.892 576.84>
VStem: 94 65<69 342.689 380.554 498.464> 348 65<33.4516 356.92 387.077 525.614> 611 68<31.8252 359.55>
AnchorPoint: "r;o" 757 210 basechar 0
AnchorPoint: "r;x" 757 380 basechar 0
AnchorPoint: "r;bl" 772 10 basechar 0
AnchorPoint: "l;o" 10 210 basechar 0
AnchorPoint: "l;x" 15 380 basechar 0
AnchorPoint: "l;bl" 0 10 basechar 0
LayerCount: 3
Fore
SplineSet
78 343 m 0x80e0
 64 343 47 333 37 333 c 0
 32 333 28 335 28 343 c 0
 28 351 40 355 46 357 c 0
 60 363 73 366 83 369 c 0
 97 373 98 378 98 388 c 0
 98 483 134 572 203 620 c 0
 235 642 283 662 330 662 c 0xa2e0
 355 662 374 658 396 645 c 0
 416 633 423 614 427 614 c 0
 430 614 440 628 451 637 c 0
 477 657 515 682 574 682 c 0
 606 682 661 674 661 644 c 0
 661 628 643 606 618 606 c 0
 585 606 559 641 531 641 c 0
 458 641 417 539 417 410 c 0
 417 400 419 387 428 387 c 0x09e0
 464 387 541 392 581 395 c 0
 606 397 627 397 644 420 c 0
 650 428 660 445 669 445 c 0
 675 445 681 441 681 427 c 0
 680 381 679 324 679 256 c 2
 679 184 l 2
 679 147 680 106 681 64 c 0
 682 30 693 31 713 30 c 2
 731 29 l 2
 743 28 748 22 748 15 c 0
 748 2 737 -1 730 -1 c 0
 706 -1 674 0 651 0 c 0
 616 0 597 -1 577 -1 c 0
 566 -1 543 3 543 15 c 0
 543 27 551 30 563 30 c 0
 607 31 611 34 611 80 c 2
 611 274 l 2
 611 296 611 316 608 334 c 0
 604 357 593 361 575 361 c 2
 546 361 l 2x44e0
 517 361 480 360 453 359 c 0
 419 358 413 357 413 325 c 0
 413 245 414 161 414 81 c 0
 414 39 424 30 447 29 c 2
 467 28 l 2
 484 27 496 28 496 15 c 0
 496 3 485 1 474 1 c 0
 445 1 428 2 387 2 c 2
 297 2 l 2
 285 2 281 7 281 17 c 0
 281 29 294 32 307 32 c 0
 345 32 346 37 346 101 c 0
 346 176 348 253 348 328 c 0
 348 335 347 357 330 357 c 0x28e0
 295 357 214 356 172 352 c 0
 159 351 159 337 159 329 c 2
 159 287 l 2
 159 221 158 153 158 86 c 0
 158 26 167 29 209 27 c 0
 226 26 241 26 241 13 c 0
 241 1 229 -1 218 -1 c 0x50e0
 189 -1 167 0 126 0 c 0
 97 0 71 -2 47 -2 c 0
 35 -2 27 -1 27 9 c 0
 27 18 37 22 47 23 c 0
 87 27 91 28 91 69 c 2
 94 329 l 2
 94 339 88 343 78 343 c 0x80e0
161 399 m 0
 161 389 162 380 172 380 c 2x12e0
 172 380 263 386 312 386 c 0
 330 386 348 387 348 395 c 0x04e0
 348 463 362 519 382 557 c 0
 385 563 390 572 390 574 c 0
 390 577 385 579 376 583 c 0
 351 594 326 626 292 626 c 0
 212 625 161 529 161 399 c 0
EndSplineSet
Ligature2: "'liga' Standard Ligatures in Latin lookup 3 subtable" f f i
LCarets2: 2 0 0 
EndChar

StartChar: f_f_l
Encoding: 65546 -1 149
Width: 781
VWidth: 0
Flags: W
HStem: 0 31<27.8329 91.0894 161.421 228.928 308 351.483 -nan 494.694 535.123 600.673> 3 35<675.599 756.885> 338 24<23.3644 74.1548> 354 29<156.089 330.731> 363 29<167.349 350.991 413.195 502.409> 367 32<425.654 521.992> 625 40<235.787 334.968> 644 42<476.606 607.828>
VStem: 94 62<31.4042 346.984 383.004 510.555> 351 62<119.293 362.98 397.182 548.254> 352 70<31.6262 321.788> 596 73<357.394 636.558> 605 69<38.6118 303.832>
AnchorPoint: "r;o" 771 210 basechar 0
AnchorPoint: "r;hi" 771 660 basechar 0
AnchorPoint: "r;x" 771 380 basechar 0
AnchorPoint: "r;bl" 781 10 basechar 0
AnchorPoint: "l;bl" 0 10 basechar 0
AnchorPoint: "l;x" 15 380 basechar 0
AnchorPoint: "l;o" 10 210 basechar 0
LayerCount: 3
Fore
SplineSet
223 607 m 0x0ac0
 185 583 156 503 156 399 c 0x06c0
 156 389 158 383 167 383 c 0x10c0
 173 383 272 392 341 392 c 0
 348 392 351 393 351 404 c 0
 352 468 358 521 377 557 c 0
 380 563 385 572 385 574 c 0
 385 577 380 579 371 583 c 0
 350 592 335 608 312 619 c 0
 303 623 294 625 284 625 c 0
 253 625 235 614 223 607 c 0x0ac0
332 363 m 0x88c0
 306 363 211 358 169 354 c 0x10c0
 151 352 154 348 154 337 c 0
 156 255 158 170 158 87 c 0
 158 38 163 30 192 30 c 2
 205 30 l 2
 223 30 229 24 229 14 c 0
 229 4 223 0 212 0 c 0
 183 0 166 1 125 1 c 0
 96 1 69 -2 45 -2 c 0
 33 -2 27 1 27 11 c 0
 27 20 34 23 44 24 c 2
 72 28 l 2
 80 29 93 44 93 54 c 2
 92 329 l 2
 92 337 92 347 75 347 c 0
 57 347 37 338 31 338 c 0
 27 338 22 338 22 346 c 0
 22 355 39 360 45 362 c 0
 72 370 94 369 94 377 c 0
 94 502 137 590 215 634 c 0
 244 651 276 665 329 665 c 0xa2c0
 360 665 381 658 403 646 c 0
 412 641 421 629 425 629 c 0
 428 629 433 634 440 640 c 0
 469 666 510 686 564 686 c 0
 591 686 617 679 624 679 c 0
 639 679 647 690 660 690 c 0
 669 690 672 683 672 673 c 0
 672 648 669 577 669 556 c 2x01d0
 674 74 l 2
 674 49 678 39 700 38 c 2
 734 36 l 2
 746 35 757 30 757 19 c 0
 757 7 747 3 736 3 c 2x4188
 646 2 l 2
 621 2 571 0 561 0 c 0
 544 0 535 6 535 17 c 0
 535 33 554 30 566 31 c 0
 574 31 581 31 586 33 c 0
 602 39 605 54 605 71 c 0x8088
 605 198 599 439 596 591 c 0
 596 604 595 615 592 623 c 0
 587 636 558 644 530 644 c 0
 499 644 453 630 432 561 c 0
 420 522 413 487 413 410 c 0
 413 400 416 397 425 397 c 0
 439 397 449 399 505 399 c 0x85d0
 514 399 522 396 522 383 c 0x10d0
 522 370 511 367 501 367 c 0
 475 366 457 367 428 364 c 0
 416 363 413 354 413 346 c 0x04d0
 415 260 418 173 422 87 c 0
 425 34 428 31 458 31 c 2
 480 31 l 2
 490 31 495 29 495 19 c 0
 495 5 483 2 472 2 c 0
 443 2 420 1 379 1 c 0
 341 1 326 0 302 0 c 0
 290 0 284 6 284 16 c 0
 284 28 295 29 308 30 c 2
 324 31 l 2
 350 33 352 33 352 61 c 2x84a0
 351 347 l 2
 351 358 350 363 332 363 c 0x88c0
EndSplineSet
Ligature2: "'liga' Standard Ligatures in Latin lookup 3 subtable" f f l
LCarets2: 2 0 0 
EndChar

StartChar: exclamdown
Encoding: 161 161 150
Width: 258
VWidth: 0
Flags: W
HStem: -13 21G<88 122.5> 555 94<71.3939 150.606>
VStem: 64 94<22.6253 257.659 562.394 641.606> 94 36<258.103 488.909>
AnchorPoint: "l;bl" 0 10 basechar 0
AnchorPoint: "l;x" 0 380 basechar 0
AnchorPoint: "l;hi" 0 660 basechar 0
AnchorPoint: "l;o" 0 210 basechar 0
AnchorPoint: "l;lo" 0 -200 basechar 0
AnchorPoint: "r;bl" 258 10 basechar 0
AnchorPoint: "r;x" 258 380 basechar 0
AnchorPoint: "r;hi" 258 660 basechar 0
AnchorPoint: "r;o" 258 210 basechar 0
AnchorPoint: "r;lo" 258 -200 basechar 0
LayerCount: 3
Fore
SplineSet
152 73 m 2xd0
 152 27 146 -13 99 -13 c 0
 77 -13 60 2 60 22 c 0
 60 35 68 70 69 82 c 0
 84 207 89 273 94 459 c 0
 94 475 95 489 110 489 c 0
 126 489 129 476 130 459 c 0
 139 316 152 172 152 90 c 2
 152 73 l 2xd0
158 602 m 0xe0
 158 576 137 555 111 555 c 0
 85 555 64 576 64 602 c 0
 64 628 85 649 111 649 c 0
 137 649 158 628 158 602 c 0xe0
EndSplineSet
EndChar

StartChar: questiondown
Encoding: 191 191 151
Width: 383
VWidth: 250
Flags: W
HStem: -13 38<160.357 257.5> 292 57<141.512 235.109> 508 94<156.394 235.606>
VStem: 40 58<114.985 252.506> 149 94<515.394 594.606> 237 43<314.5 434.418>
AnchorPoint: "l;bl" 0 10 basechar 0
AnchorPoint: "l;x" 0 380 basechar 0
AnchorPoint: "l;hi" 0 660 basechar 0
AnchorPoint: "l;o" 0 210 basechar 0
AnchorPoint: "l;lo" 0 -200 basechar 0
AnchorPoint: "r;bl" 383 10 basechar 0
AnchorPoint: "r;x" 383 380 basechar 0
AnchorPoint: "r;hi" 383 660 basechar 0
AnchorPoint: "r;o" 383 210 basechar 0
AnchorPoint: "r;lo" 383 -200 basechar 0
LayerCount: 3
Fore
SplineSet
303 34 m 0xf4
 303 4 274 -13 241 -13 c 0
 115 -13 40 104 40 223 c 0
 40 315 117 349 223 349 c 0
 233 349 237 368 237 378 c 0
 237 412 226 437 220 452 c 0
 216 461 217 469 228 469 c 0
 232 469 236 468 239 465 c 0
 272 430 280 363 280 331 c 0
 280 298 253 296 215 292 c 0
 116 281 98 239 98 179 c 0
 98 99 150 25 192 25 c 0
 228 25 244 68 270 68 c 0
 287 68 303 54 303 34 c 0xf4
243 555 m 0xf8
 243 529 222 508 196 508 c 0
 170 508 149 529 149 555 c 0
 149 581 170 602 196 602 c 0
 222 602 243 581 243 555 c 0xf8
EndSplineSet
EndChar

StartChar: afii00208
Encoding: 8213 8213 152
Width: 770
VWidth: 250
Flags: W
HStem: 189 50<5.04044 764.918>
AnchorPoint: "l;bl" 20 10 basechar 0
AnchorPoint: "l;x" 20 380 basechar 0
AnchorPoint: "l;o" 0 210 basechar 0
AnchorPoint: "r;bl" 750 10 basechar 0
AnchorPoint: "r;x" 750 380 basechar 0
AnchorPoint: "r;o" 770 210 basechar 0
LayerCount: 3
Fore
SplineSet
19 239 m 2
 751 239 l 2
 763 239 765 227 765 213 c 0
 765 199 763 189 751 189 c 2
 19 189 l 2
 6 189 5 200 5 215 c 0
 5 229 7 239 19 239 c 2
EndSplineSet
EndChar

StartChar: quotesinglbase
Encoding: 8218 8218 153
Width: 221
VWidth: 0
Flags: W
HStem: -93 170<90 127.693>
VStem: 111 60<-47.3385 29>
AnchorPoint: "l;bl" 0 10 basechar 0
AnchorPoint: "l;o" 0 210 basechar 0
AnchorPoint: "l;lo" 0 -200 basechar 0
AnchorPoint: "r;bl" 221 10 basechar 0
AnchorPoint: "r;o" 221 210 basechar 0
AnchorPoint: "r;lo" 221 -200 basechar 0
LayerCount: 3
Fore
SplineSet
111 77 m 0
 148 77 171 49 171 9 c 0
 171 -40 111 -93 95 -93 c 0
 90 -93 84 -90 84 -82 c 0
 84 -71 97 -59 105 -46 c 0
 108 -40 111 -34 111 -28 c 0
 111 -13 99 -5 88 3 c 0
 75 12 70 26 70 39 c 0
 70 59 84 77 111 77 c 0
EndSplineSet
EndChar

StartChar: quotereversed
Encoding: 8219 8219 154
Width: 221
VWidth: 0
Flags: W
HStem: 507 170<83.3073 121>
VStem: 40 60<552.662 629>
AnchorPoint: "l;x" 0 380 basechar 0
AnchorPoint: "l;hi" 0 660 basechar 0
AnchorPoint: "l;o" 0 210 basechar 0
AnchorPoint: "r;x" 221 380 basechar 0
AnchorPoint: "r;hi" 221 660 basechar 0
AnchorPoint: "r;o" 221 210 basechar 0
LayerCount: 3
Fore
SplineSet
100 677 m 0
 127 677 141 659 141 639 c 0
 141 626 136 612 123 603 c 0
 112 595 100 587 100 572 c 0
 100 566 103 560 106 554 c 0
 114 541 127 529 127 518 c 0
 127 510 121 507 116 507 c 0
 100 507 40 560 40 609 c 0
 40 649 63 677 100 677 c 0
EndSplineSet
EndChar

StartChar: quotedblbase
Encoding: 8222 8222 155
Width: 371
VWidth: 0
Flags: W
HStem: -93 170<90 127.693 240 277.693>
VStem: 111 60<-47.3385 29> 261 60<-47.3385 29>
AnchorPoint: "r;lo" 371 -200 basechar 0
AnchorPoint: "r;o" 371 210 basechar 0
AnchorPoint: "r;bl" 371 10 basechar 0
AnchorPoint: "l;lo" 0 -200 basechar 0
AnchorPoint: "l;o" 0 210 basechar 0
AnchorPoint: "l;bl" 0 10 basechar 0
LayerCount: 3
Fore
SplineSet
261 77 m 0
 298 77 321 49 321 9 c 0
 321 -40 261 -93 245 -93 c 0
 240 -93 234 -90 234 -82 c 0
 234 -71 247 -59 255 -46 c 0
 258 -40 261 -34 261 -28 c 0
 261 -13 249 -5 238 3 c 0
 225 12 220 26 220 39 c 0
 220 59 234 77 261 77 c 0
111 77 m 0
 148 77 171 49 171 9 c 0
 171 -40 111 -93 95 -93 c 0
 90 -93 84 -90 84 -82 c 0
 84 -71 97 -59 105 -46 c 0
 108 -40 111 -34 111 -28 c 0
 111 -13 99 -5 88 3 c 0
 75 12 70 26 70 39 c 0
 70 59 84 77 111 77 c 0
EndSplineSet
EndChar

StartChar: uni201F
Encoding: 8223 8223 156
Width: 371
VWidth: 0
Flags: W
HStem: 507 170<83.3073 121 233.307 271>
VStem: 40 60<552.662 629> 190 60<552.662 629>
AnchorPoint: "l;o" 0 210 basechar 0
AnchorPoint: "l;hi" 0 660 basechar 0
AnchorPoint: "l;x" 0 380 basechar 0
AnchorPoint: "r;o" 371 210 basechar 0
AnchorPoint: "r;hi" 371 660 basechar 0
AnchorPoint: "r;x" 371 380 basechar 0
LayerCount: 3
Fore
SplineSet
250 677 m 0
 277 677 291 659 291 639 c 0
 291 626 286 612 273 603 c 0
 262 595 250 587 250 572 c 0
 250 566 253 560 256 554 c 0
 264 541 277 529 277 518 c 0
 277 510 271 507 266 507 c 0
 250 507 190 560 190 609 c 0
 190 649 213 677 250 677 c 0
100 677 m 0
 127 677 141 659 141 639 c 0
 141 626 136 612 123 603 c 0
 112 595 100 587 100 572 c 0
 100 566 103 560 106 554 c 0
 114 541 127 529 127 518 c 0
 127 510 121 507 116 507 c 0
 100 507 40 560 40 609 c 0
 40 649 63 677 100 677 c 0
EndSplineSet
EndChar

StartChar: figuredash
Encoding: 8210 8210 157
Width: 440
VWidth: 250
Flags: W
HStem: 189 50<25.0404 414.918>
AnchorPoint: "l;bl" 0 10 basechar 0
AnchorPoint: "l;x" 0 380 basechar 0
AnchorPoint: "l;hi" 0 660 basechar 0
AnchorPoint: "l;lo" 0 -200 basechar 0
AnchorPoint: "r;bl" 440 10 basechar 0
AnchorPoint: "r;x" 440 380 basechar 0
AnchorPoint: "r;hi" 440 660 basechar 0
AnchorPoint: "r;o" 440 210 basechar 0
AnchorPoint: "r;lo" 440 -200 basechar 0
AnchorPoint: "l;o" 0 210 basechar 0
LayerCount: 3
Fore
SplineSet
39 239 m 2
 401 239 l 2
 413 239 415 227 415 213 c 0
 415 199 413 189 401 189 c 2
 39 189 l 2
 26 189 25 200 25 215 c 0
 25 229 27 239 39 239 c 2
EndSplineSet
EndChar

StartChar: dotlessi
Encoding: 305 305 158
Width: 272
VWidth: 0
Flags: W
HStem: -1 27<26.0094 92.6339 176.516 245.751> 342 28<47.0058 95.013>
VStem: 105 63<30.8226 302.875>
AnchorPoint: "top" 130 459 basechar 0
AnchorPoint: "r;o" 257 210 basechar 0
AnchorPoint: "r;x" 257 380 basechar 0
AnchorPoint: "r;bl" 272 10 basechar 0
AnchorPoint: "l;o" 0 210 basechar 0
AnchorPoint: "l;x" 0 380 basechar 0
AnchorPoint: "l;bl" 0 10 basechar 0
LayerCount: 3
Fore
SplineSet
178 417 m 0
 178 408 168 235 168 77 c 0
 168 39 178 28 211 28 c 2
 227 28 l 2
 239 28 246 25 246 17 c 0
 246 7 244 0 228 0 c 2
 46 -1 l 2
 35 -1 26 0 26 13 c 0
 26 25 39 26 43 26 c 2
 68 26 l 2
 86 26 100 38 102 76 c 0
 105 141 105 222 105 288 c 0
 105 318 103 335 66 342 c 0
 55 344 47 349 47 356 c 0
 47 361 52 368 66 370 c 0
 105 376 126 398 146 421 c 0
 152 429 161 436 168 436 c 0
 174 436 178 431 178 417 c 0
EndSplineSet
EndChar

StartChar: gravecomb
Encoding: 768 768 163
Width: 0
VWidth: 0
Flags: W
HStem: 480 182
VStem: -330 149
AnchorPoint: "top" -220 459 mark 0
LayerCount: 3
Fore
SplineSet
-330 636 m 0
 -330 657 -281 662 -277 662 c 0
 -273 662 -264 659 -257 643 c 0
 -205 518 -181 505 -181 491 c 0
 -181 485 -187 480 -193 480 c 0
 -201 480 -217 495 -232 511 c 0
 -273 554 -330 615 -330 636 c 0
EndSplineSet
EndChar

StartChar: uni0237
Encoding: 567 567 168
Width: 217
VWidth: 0
Flags: W
HStem: -234 21G<16 24>
VStem: 81 69<-97.6011 419>
AnchorPoint: "top" 95 459 basechar 0
AnchorPoint: "r;lo" 117 -200 basechar 0
AnchorPoint: "r;o" 217 210 basechar 0
AnchorPoint: "r;x" 217 380 basechar 0
AnchorPoint: "r;bl" 217 10 basechar 0
AnchorPoint: "l;lo" 0 -200 basechar 0
AnchorPoint: "l;o" 0 210 basechar 0
AnchorPoint: "l;x" 0 380 basechar 0
AnchorPoint: "l;bl" 0 10 basechar 0
LayerCount: 3
Fore
SplineSet
150 419 m 0
 150 295 148 59 146 -1 c 0
 141 -123 83 -200 42 -226 c 0
 35 -230 27 -234 21 -234 c 0
 11 -234 7 -230 7 -224 c 0
 7 -220 9 -213 14 -209 c 0
 30 -194 49 -177 59 -150 c 0
 69 -123 78 -95 79 -23 c 0
 80 53 81 276 81 289 c 0
 81 328 80 345 53 353 c 0
 41 357 25 361 25 372 c 0
 25 375 26 380 38 385 c 0
 50 390 69 397 81 404 c 0
 99 414 112 425 121 432 c 0
 127 436 132 439 137 439 c 0
 144 439 150 433 150 419 c 0
EndSplineSet
EndChar

StartChar: gravecomb.cap
Encoding: 65548 -1 169
Width: 0
VWidth: 0
Flags: W
HStem: 480 182
VStem: -330 149
AnchorPoint: "top" -220 459 mark 0
LayerCount: 3
Fore
SplineSet
-330 636 m 0
 -330 657 -281 662 -277 662 c 0
 -273 662 -264 659 -257 643 c 0
 -205 518 -181 505 -181 491 c 0
 -181 485 -187 480 -193 480 c 0
 -201 480 -217 495 -232 511 c 0
 -273 554 -330 615 -330 636 c 0
EndSplineSet
EndChar

StartChar: acutecomb
Encoding: 769 769 175
Width: 0
VWidth: 0
Flags: W
HStem: 480 182
VStem: -258 148
AnchorPoint: "top" -220 459 mark 0
LayerCount: 3
Fore
SplineSet
-258 491 m 0
 -258 505 -235 518 -183 643 c 0
 -176 659 -166 662 -162 662 c 0
 -158 662 -110 657 -110 636 c 0
 -110 615 -166 554 -207 511 c 0
 -222 495 -238 480 -246 480 c 0
 -252 480 -258 485 -258 491 c 0
EndSplineSet
EndChar

StartChar: acutecomb.cap
Encoding: 65549 -1 176
Width: 0
VWidth: 0
Flags: W
HStem: 480 182
VStem: -258 148
AnchorPoint: "top" -220 459 mark 0
LayerCount: 3
Fore
SplineSet
-258 491 m 0
 -258 505 -235 518 -183 643 c 0
 -176 659 -166 662 -162 662 c 0
 -158 662 -110 657 -110 636 c 0
 -110 615 -166 554 -207 511 c 0
 -222 495 -238 480 -246 480 c 0
 -252 480 -258 485 -258 491 c 0
EndSplineSet
EndChar

StartChar: uni0302
Encoding: 770 770 177
Width: 0
VWidth: 0
Flags: W
HStem: 577 71<-248.477 -193.719>
VStem: -332 226<494 501>
AnchorPoint: "top" -220 459 mark 0
LayerCount: 3
Fore
SplineSet
-332 499 m 0
 -332 501 -330 504 -328 508 c 0
 -241 635 -251 648 -234 648 c 2
 -209 648 l 2
 -203 648 -198 648 -192 637 c 0
 -154 569 -106 510 -106 500 c 0
 -106 492 -114 492 -117 492 c 0
 -130 492 -213 577 -220 577 c 0
 -233 577 -308 493 -322 493 c 0
 -325 493 -332 494 -332 499 c 0
EndSplineSet
EndChar

StartChar: uni0302.cap
Encoding: 65550 -1 201
Width: 0
VWidth: 0
Flags: W
HStem: 576 60<-252.329 -190.212>
VStem: -332 226<506 511>
AnchorPoint: "top" -220 469 mark 0
LayerCount: 3
Fore
SplineSet
-332 510 m 0
 -332 511 -330 514 -328 517 c 0
 -241 625 -251 636 -234 636 c 2
 -209 636 l 2
 -203 636 -198 635 -192 626 c 0
 -154 568 -106 518 -106 510 c 0
 -106 503 -114 503 -117 503 c 0
 -130 503 -213 576 -220 576 c 0
 -233 576 -308 504 -322 504 c 0
 -325 504 -332 506 -332 510 c 0
EndSplineSet
EndChar

StartChar: uni0302.ascend
Encoding: 65551 -1 202
Width: 0
VWidth: 0
Flags: W
HStem: 576 60<-252.329 -190.212>
VStem: -332 226<506 511>
AnchorPoint: "top" -220 469 mark 0
LayerCount: 3
Fore
SplineSet
-332 510 m 0
 -332 511 -330 514 -328 517 c 0
 -241 625 -251 636 -234 636 c 2
 -209 636 l 2
 -203 636 -198 635 -192 626 c 0
 -154 568 -106 518 -106 510 c 0
 -106 503 -114 503 -117 503 c 0
 -130 503 -213 576 -220 576 c 0
 -233 576 -308 504 -322 504 c 0
 -325 504 -332 506 -332 510 c 0
EndSplineSet
EndChar

StartChar: uni0308
Encoding: 776 776 227
Width: 0
VWidth: 0
Flags: W
HStem: 546 80<-332.891 -259.789 -185.891 -112.789>
VStem: -338 82<551.355 621.15> -191 82<551.355 621.15>
AnchorPoint: "top" -220 459 mark 0
LayerCount: 3
Fore
SplineSet
-191 587 m 0
 -191 610 -172 626 -149 626 c 0
 -126 626 -109 609 -109 587 c 0
 -109 558 -126 546 -149 546 c 0
 -172 546 -191 564 -191 587 c 0
-338 587 m 0
 -338 610 -319 626 -296 626 c 0
 -273 626 -256 609 -256 587 c 0
 -256 558 -273 546 -296 546 c 0
 -319 546 -338 564 -338 587 c 0
EndSplineSet
Layer: 2
SplineSet
-336 591 m 4
 -336 608 -311 642 -289 642 c 4
 -266 642 -241 611 -241 591 c 4
 -241 567 -275 538 -284 538 c 4
 -313 538 -336 575 -336 591 c 4
-176 591 m 4
 -176 608 -151 642 -129 642 c 4
 -106 642 -81 611 -81 591 c 4
 -81 567 -116 538 -125 538 c 4
 -154 538 -176 575 -176 591 c 4
EndSplineSet
EndChar

StartChar: uni0307
Encoding: 775 775 228
Width: 0
VWidth: 0
Flags: W
HStem: 546 80<-252.891 -179.789>
VStem: -258 82<551.355 621.15>
AnchorPoint: "top" -220 459 mark 0
LayerCount: 3
Fore
SplineSet
-258 587 m 0
 -258 610 -239 626 -216 626 c 0
 -193 626 -176 609 -176 587 c 0
 -176 558 -193 546 -216 546 c 0
 -239 546 -258 564 -258 587 c 0
EndSplineSet
Layer: 2
SplineSet
-266 590 m 4
 -266 603 -238 645 -216 645 c 4
 -193 645 -169 608 -169 588 c 4
 -169 564 -208 533 -217 533 c 4
 -246 533 -266 574 -266 590 c 4
EndSplineSet
EndChar

StartChar: uni0306
Encoding: 774 774 229
Width: 0
VWidth: 0
Flags: W
HStem: 501 59<-274.345 -149.946>
VStem: -333 237<585 629>
AnchorPoint: "top" -220 459 mark 0
LayerCount: 3
Fore
SplineSet
-333 627 m 0
 -333 629 -327 630 -322 630 c 2
 -317 630 l 2
 -304 630 -293 560 -209 560 c 0
 -128 560 -124 630 -111 630 c 2
 -107 630 l 2
 -102 630 -96 629 -96 627 c 0
 -96 585 -132 501 -215 501 c 0
 -298 501 -333 580 -333 627 c 0
EndSplineSet
EndChar

StartChar: uni0304
Encoding: 772 772 230
Width: 0
VWidth: -2
Flags: W
HStem: 559 44<-325.942 -114.209>
VStem: -326 212<559.034 600.943>
AnchorPoint: "top" -220 459 mark 0
LayerCount: 3
Fore
SplineSet
-326 584 m 0
 -326 599 -317 603 -310 603 c 0
 -170 603 -216 601 -129 601 c 0
 -117 601 -114 599 -114 572 c 0
 -114 560 -126 558 -128 558 c 0
 -146 558 -280 559 -316 559 c 0
 -320 559 -326 561 -326 584 c 0
EndSplineSet
EndChar

StartChar: tildecomb
Encoding: 771 771 231
Width: 0
VWidth: 0
Flags: W
HStem: 530 58<-203.765 -124.984> 578 58<-312.693 -238.276>
VStem: -367 294
AnchorPoint: "top" -220 459 mark 0
LayerCount: 3
Fore
SplineSet
-367 530 m 0xa0
 -367 546 -315 636 -270 636 c 0x60
 -221 636 -194 588 -145 588 c 0
 -112 588 -92 644 -83 644 c 0
 -79 644 -73 642 -73 632 c 0
 -73 614 -124 530 -169 530 c 0xa0
 -219 530 -251 578 -295 578 c 0x60
 -330 578 -348 522 -357 522 c 0
 -361 522 -367 523 -367 530 c 0xa0
EndSplineSet
EndChar

StartChar: tildecomb.cap
Encoding: 65552 -1 232
Width: 0
VWidth: 0
Flags: W
HStem: 530 58<-203.765 -124.984> 578 58<-312.693 -238.276>
VStem: -367 294
AnchorPoint: "top" -220 459 mark 0
LayerCount: 3
Fore
SplineSet
-367 530 m 0xa0
 -367 546 -315 636 -270 636 c 0x60
 -221 636 -194 588 -145 588 c 0
 -112 588 -92 644 -83 644 c 0
 -79 644 -73 642 -73 632 c 0
 -73 614 -124 530 -169 530 c 0xa0
 -219 530 -251 578 -295 578 c 0x60
 -330 578 -348 522 -357 522 c 0
 -361 522 -367 523 -367 530 c 0xa0
EndSplineSet
EndChar

StartChar: uni030C
Encoding: 780 780 243
Width: 0
VWidth: 0
Flags: W
HStem: 492 71<-245.028 -190.27> 628 20G<-322.5 -314.5 -123 -114.5>
VStem: -332 226<639 646>
AnchorPoint: "top" -220 459 mark 0
LayerCount: 3
Fore
SplineSet
-332 640 m 0
 -332 648 -324 648 -321 648 c 0
 -308 648 -226 563 -219 563 c 0
 -206 563 -130 647 -116 647 c 0
 -113 647 -106 646 -106 641 c 0
 -106 639 -108 636 -110 632 c 0
 -197 505 -187 492 -204 492 c 2
 -229 492 l 2
 -235 492 -241 492 -247 503 c 0
 -285 571 -332 630 -332 640 c 0
EndSplineSet
EndChar

StartChar: uni030C.cap
Encoding: 65553 -1 244
Width: 0
VWidth: 0
Flags: W
HStem: 503 61<-248.788 -186.377>
VStem: -332 226<629 634>
AnchorPoint: "top" -220 469 mark 0
LayerCount: 3
Fore
SplineSet
-332 629 m 0
 -332 636 -324 636 -321 636 c 0
 -308 636 -226 564 -219 564 c 0
 -206 564 -130 635 -116 635 c 0
 -113 635 -106 634 -106 630 c 0
 -106 629 -108 626 -110 623 c 0
 -197 515 -187 503 -204 503 c 2
 -229 503 l 2
 -235 503 -241 504 -247 513 c 0
 -285 571 -332 621 -332 629 c 0
EndSplineSet
EndChar

StartChar: uni0304.cap
Encoding: 65554 -1 259
Width: 0
VWidth: -2
Flags: W
HStem: 559 44<-325.942 -114.209>
VStem: -326 212<559.034 600.943>
AnchorPoint: "top" -220 459 mark 0
LayerCount: 3
Fore
SplineSet
-326 584 m 0
 -326 599 -317 603 -310 603 c 0
 -170 603 -216 601 -129 601 c 0
 -117 601 -114 599 -114 572 c 0
 -114 560 -126 558 -128 558 c 0
 -146 558 -280 559 -316 559 c 0
 -320 559 -326 561 -326 584 c 0
EndSplineSet
EndChar

StartChar: uni0306.cap
Encoding: 65555 -1 270
Width: 0
VWidth: 0
Flags: W
HStem: 501 59<-274.345 -149.946>
VStem: -333 237<585 629>
AnchorPoint: "top" -220 459 mark 0
LayerCount: 3
Fore
SplineSet
-333 627 m 0
 -333 629 -327 630 -322 630 c 2
 -317 630 l 2
 -304 630 -293 560 -209 560 c 0
 -128 560 -124 630 -111 630 c 2
 -107 630 l 2
 -102 630 -96 629 -96 627 c 0
 -96 585 -132 501 -215 501 c 0
 -298 501 -333 580 -333 627 c 0
EndSplineSet
EndChar

StartChar: uni0307.cap
Encoding: 65556 -1 287
Width: 0
VWidth: 0
Flags: W
HStem: 546 80<-252.891 -179.789>
VStem: -258 82<551.355 621.15>
AnchorPoint: "top" -220 459 mark 0
LayerCount: 3
Fore
SplineSet
-258 587 m 0
 -258 610 -239 626 -216 626 c 0
 -193 626 -176 609 -176 587 c 0
 -176 558 -193 546 -216 546 c 0
 -239 546 -258 564 -258 587 c 0
EndSplineSet
EndChar

StartChar: uni0308.cap
Encoding: 65557 -1 293
Width: 0
VWidth: 0
Flags: W
HStem: 546 80<-332.891 -259.789 -185.891 -112.789>
VStem: -338 82<551.355 621.15> -191 82<551.355 621.15>
AnchorPoint: "top" -220 459 mark 0
LayerCount: 3
Fore
SplineSet
-191 587 m 0
 -191 610 -172 626 -149 626 c 0
 -126 626 -109 609 -109 587 c 0
 -109 558 -126 546 -149 546 c 0
 -172 546 -191 564 -191 587 c 0
-338 587 m 0
 -338 610 -319 626 -296 626 c 0
 -273 626 -256 609 -256 587 c 0
 -256 558 -273 546 -296 546 c 0
 -319 546 -338 564 -338 587 c 0
EndSplineSet
EndChar

StartChar: uni030A
Encoding: 778 778 294
Width: 0
VWidth: 0
Flags: W
HStem: 510 39<-252.025 -187.157> 629 39<-251.71 -186.609>
VStem: -296 38<554.701 621.94> -182 38<554.889 625.063>
AnchorPoint: "top" -220 459 mark 0
LayerCount: 3
Fore
SplineSet
-296 591 m 0
 -296 623 -264 668 -218 668 c 0
 -163 668 -144 615 -144 587 c 0
 -144 531 -205 510 -219 510 c 0
 -287 510 -296 568 -296 591 c 0
-258 590 m 0
 -258 566 -242 549 -219 549 c 0
 -212 549 -182 555 -182 588 c 0
 -182 603 -187 629 -219 629 c 0
 -237 629 -258 612 -258 590 c 0
EndSplineSet
EndChar

StartChar: uni030A.cap
Encoding: 65558 -1 295
Width: 0
VWidth: 0
Flags: W
HStem: 510 39<-252.025 -187.157> 629 39<-251.71 -186.609>
VStem: -296 38<554.701 621.94> -182 38<554.889 625.063>
AnchorPoint: "top" -220 459 mark 0
LayerCount: 3
Fore
SplineSet
-296 591 m 0
 -296 623 -264 668 -218 668 c 0
 -163 668 -144 615 -144 587 c 0
 -144 531 -205 510 -219 510 c 0
 -287 510 -296 568 -296 591 c 0
-258 590 m 0
 -258 566 -242 549 -219 549 c 0
 -212 549 -182 555 -182 588 c 0
 -182 603 -187 629 -219 629 c 0
 -237 629 -258 612 -258 590 c 0
EndSplineSet
EndChar

StartChar: uni030B
Encoding: 779 779 300
Width: 0
VWidth: 0
Flags: W
HStem: 480 182
VStem: -327 307
AnchorPoint: "top" -220 459 mark 0
LayerCount: 3
Fore
SplineSet
-327 491 m 0
 -327 505 -303 518 -251 643 c 0
 -244 659 -234 662 -230 662 c 0
 -226 662 -178 657 -178 636 c 0
 -178 615 -234 554 -275 511 c 0
 -290 495 -306 480 -314 480 c 0
 -320 480 -327 485 -327 491 c 0
-168 491 m 0
 -168 505 -144 518 -92 643 c 0
 -85 659 -76 662 -72 662 c 0
 -68 662 -20 657 -20 636 c 0
 -20 615 -76 554 -117 511 c 0
 -132 495 -148 480 -156 480 c 0
 -162 480 -168 485 -168 491 c 0
EndSplineSet
EndChar

StartChar: uni030B.cap
Encoding: 65559 -1 301
Width: 0
VWidth: 0
Flags: W
HStem: 480 182
VStem: -327 307
AnchorPoint: "top" -220 459 mark 0
LayerCount: 3
Fore
SplineSet
-327 491 m 0
 -327 505 -303 518 -251 643 c 0
 -244 659 -234 662 -230 662 c 0
 -226 662 -178 657 -178 636 c 0
 -178 615 -234 554 -275 511 c 0
 -290 495 -306 480 -314 480 c 0
 -320 480 -327 485 -327 491 c 0
-168 491 m 0
 -168 505 -144 518 -92 643 c 0
 -85 659 -76 662 -72 662 c 0
 -68 662 -20 657 -20 636 c 0
 -20 615 -76 554 -117 511 c 0
 -132 495 -148 480 -156 480 c 0
 -162 480 -168 485 -168 491 c 0
EndSplineSet
EndChar

StartChar: uni0308.narrow
Encoding: 65560 -1 302
Width: 0
VWidth: 0
Flags: W
HStem: 546 80<-325.891 -252.789 -198.891 -125.789>
VStem: -331 82<551.355 621.15> -204 82<551.355 621.15>
AnchorPoint: "top" -220 459 mark 0
LayerCount: 3
Fore
SplineSet
-204 587 m 0
 -204 610 -185 626 -162 626 c 0
 -139 626 -122 609 -122 587 c 0
 -122 558 -139 546 -162 546 c 0
 -185 546 -204 564 -204 587 c 0
-331 587 m 0
 -331 610 -312 626 -289 626 c 0
 -266 626 -249 609 -249 587 c 0
 -249 558 -266 546 -289 546 c 0
 -312 546 -331 564 -331 587 c 0
EndSplineSet
EndChar

StartChar: uni0327
Encoding: 807 807 319
Width: 0
Flags: W
HStem: -216 26<-270.032 -189.993>
VStem: -247 38<-84.5 -30.6721> -176 52<-182.823 -98.5794>
AnchorPoint: "cedilla" -210 -79 mark 0
LayerCount: 3
Fore
SplineSet
-227 -190 m 4
 -186 -190 -176 -162 -176 -142 c 4
 -176 -110 -194 -90 -241 -87 c 4
 -242 -87 -247 -86 -247 -83 c 4
 -247 -81 -225 -23 -216 5 c 5
 -197 5 l 5
 -201 -11 -209 -44 -209 -45 c 4
 -209 -47 -200 -49 -200 -49 c 5
 -143 -59 -124 -98 -124 -133 c 4
 -124 -155 -142 -216 -219 -216 c 4
 -254 -216 -280 -202 -280 -189 c 4
 -280 -188 -281 -178 -271 -178 c 4
 -270 -178 -246 -190 -227 -190 c 4
EndSplineSet
Layer: 2
SplineSet
-199 -199 m 4
 -231 -199 -273 -190 -278 -186 c 4
 -280 -184 -281 -182 -281 -179 c 4
 -281 -178 -278 -155 -267 -155 c 4
 -266 -155 -235 -163 -216 -163 c 4
 -193 -163 -178 -150 -178 -130 c 4
 -178 -104 -207 -82 -249 -79 c 4
 -250 -79 -254 -79 -254 -76 c 4
 -254 -74 -233 -22 -222 5 c 5
 -191 5 l 5
 -196 -11 -207 -43 -207 -44 c 4
 -207 -46 -207 -47 -203 -47 c 6
 -201 -47 l 6
 -153 -47 -117 -73 -117 -123 c 4
 -117 -156 -133 -199 -199 -199 c 4
EndSplineSet
EndChar

StartChar: ccedilla
Encoding: 231 231 320
Width: 411
VWidth: 0
Flags: W
HStem: -216 26<165.968 246.007> -17 61<177 213 228.533 301.328> 392 41<166.342 282.48>
VStem: 30 71<124.846 292.911> 260 52<-182.823 -98.5794>
AnchorPoint: "l;x" 20 380 basechar 0
AnchorPoint: "r;bl" 401 10 basechar 0
AnchorPoint: "r;o" 411 210 basechar 0
AnchorPoint: "l;o" 0 210 basechar 0
AnchorPoint: "l;bl" 20 10 basechar 0
AnchorPoint: "r;x" 411 380 basechar 0
LayerCount: 3
Fore
SplineSet
209 -190 m 0
 250 -190 260 -162 260 -142 c 0
 260 -110 242 -90 195 -87 c 0
 194 -87 189 -86 189 -83 c 0
 189 -81 203 -46 213 -17 c 1
 115 -11 30 64 30 192 c 0
 30 315 119 433 254 433 c 0
 337 433 367 401 367 365 c 0
 367 348 352 341 342 341 c 0
 290 341 289 392 232 392 c 0
 144 392 101 307 101 217 c 0
 101 122 159 44 248 44 c 0
 267 44 287 48 307 55 c 0
 337 67 355 86 363 99 c 0
 365 101 368 102 371 102 c 0
 378 102 381 98 381 89 c 0
 381 57 309 -12 234 -17 c 1
 231 -31 227 -44 227 -45 c 0
 227 -47 236 -49 236 -49 c 1
 293 -59 312 -98 312 -133 c 0
 312 -155 294 -216 217 -216 c 0
 182 -216 156 -202 156 -189 c 0
 156 -188 155 -178 165 -178 c 0
 166 -178 190 -190 209 -190 c 0
EndSplineSet
EndChar

StartChar: Ccedilla
Encoding: 199 199 321
Width: 678
VWidth: 0
Flags: W
HStem: -216 26<300.968 381.007> -13 48<279.162 349 364.361 487.491> 626 42<295.903 483.408>
VStem: 40 100<196.67 436.108> 395 52<-182.823 -98.5794> 532 34<551.396 582.894>
AnchorPoint: "r;hi" 678 660 basechar 0
AnchorPoint: "l;x" 0 380 basechar 0
AnchorPoint: "r;bl" 678 10 basechar 0
AnchorPoint: "r;o" 678 210 basechar 0
AnchorPoint: "l;o" 0 210 basechar 0
AnchorPoint: "l;hi" 0 660 basechar 0
AnchorPoint: "l;bl" 0 10 basechar 0
AnchorPoint: "r;x" 658 380 basechar 0
LayerCount: 3
Fore
SplineSet
344 -190 m 0
 385 -190 395 -162 395 -142 c 0
 395 -110 377 -90 330 -87 c 0
 329 -87 324 -86 324 -83 c 0
 324 -81 339 -42 349 -13 c 1
 152 -9 40 143 40 310 c 0
 40 472 145 668 396 668 c 0
 464 668 506 659 542 644 c 0
 558 638 563 630 566 611 c 0
 569 596 577 559 577 551 c 0
 577 540 569 536 562 536 c 0
 551 536 538 557 532 565 c 0
 513 591 468 626 394 626 c 0
 235 626 140 491 140 345 c 0
 140 108 261 35 386 35 c 0
 446 35 473 46 499 62 c 0
 527 79 545 91 566 134 c 2
 575 152 l 2
 581 162 586 174 595 174 c 0
 603 174 608 168 608 156 c 0
 608 138 599 103 596 62 c 0
 594 40 577 35 546 21 c 0
 481 -8 410 -12 370 -13 c 1
 366 -28 362 -44 362 -45 c 0
 362 -47 371 -49 371 -49 c 1
 428 -59 447 -98 447 -133 c 0
 447 -155 429 -216 352 -216 c 0
 317 -216 291 -202 291 -189 c 0
 291 -188 290 -178 300 -178 c 0
 301 -178 325 -190 344 -190 c 0
EndSplineSet
EndChar

StartChar: Scedilla
Encoding: 350 350 322
Width: 512
VWidth: 0
Flags: W
HStem: -216 26<195.968 276.007> -19 45<168.245 242 257.863 344> 629 44<174.895 317.081>
VStem: 62 30<107.609 192.939> 71 59<463.331 581.81> 290 52<-182.823 -98.5794> 362 34<502.731 576.958> 398 54<85.353 204.176>
AnchorPoint: "r;hi" 512 660 basechar 0
AnchorPoint: "l;x" 0 380 basechar 0
AnchorPoint: "r;bl" 512 10 basechar 0
AnchorPoint: "r;o" 512 210 basechar 0
AnchorPoint: "l;o" 0 210 basechar 0
AnchorPoint: "l;hi" 0 660 basechar 0
AnchorPoint: "l;bl" 0 10 basechar 0
AnchorPoint: "r;x" 512 380 basechar 0
LayerCount: 3
Fore
SplineSet
239 -190 m 0xef
 280 -190 290 -162 290 -142 c 0
 290 -110 272 -90 225 -87 c 0
 224 -87 219 -86 219 -83 c 0
 219 -81 232 -48 242 -19 c 1
 187 -18 123 -4 93 6 c 0
 67 14 60 15 60 25 c 0
 60 51 62 74 62 96 c 2
 62 160 l 2
 62 172 64 193 76 193 c 0
 91 193 90 172 92 158 c 0xf7
 97 123 105 106 123 83 c 0
 152 46 206 26 266 26 c 0
 351 26 398 86 398 142 c 0
 398 230 296 264 208 310 c 0
 133 349 71 409 71 500 c 0
 71 594 148 673 263 673 c 0
 312 673 348 663 386 648 c 0
 395 644 396 635 396 624 c 0
 396 613 395 601 395 590 c 0
 395 565 396 534 396 527 c 0
 396 509 394 501 386 501 c 0
 370 501 365 522 362 536 c 0
 346 604 296 629 247 629 c 0
 191 629 130 596 130 514 c 0
 130 452 208 419 288 378 c 0
 370 336 452 284 452 174 c 0
 452 81 385 -13 263 -19 c 1
 260 -32 257 -44 257 -45 c 0
 257 -47 266 -49 266 -49 c 1
 323 -59 342 -98 342 -133 c 0
 342 -155 324 -216 247 -216 c 0
 212 -216 186 -202 186 -189 c 0
 186 -188 185 -178 195 -178 c 0
 196 -178 220 -190 239 -190 c 0xef
EndSplineSet
EndChar

StartChar: scedilla
Encoding: 351 351 323
Width: 335
VWidth: 0
Flags: W
HStem: -229 26<110.968 191.007> -15 33<111.069 163 178.676 215.008> 386 28<113.186 210.668>
VStem: 40 53<282.158 370.181> 40 27<69.5251 124.863> 205 52<-195.823 -111.579> 247 62<46.5045 130.096>
AnchorPoint: "l;x" 5 380 basechar 0
AnchorPoint: "r;bl" 335 10 basechar 0
AnchorPoint: "r;o" 335 210 basechar 0
AnchorPoint: "l;o" 0 210 basechar 0
AnchorPoint: "l;bl" 0 10 basechar 0
AnchorPoint: "r;x" 330 380 basechar 0
LayerCount: 3
Fore
SplineSet
154 -203 m 0xe4
 195 -203 205 -175 205 -155 c 0
 205 -123 187 -103 140 -100 c 0
 139 -100 134 -99 134 -96 c 0
 134 -94 153 -45 163 -15 c 1
 159 -15 154 -15 150 -15 c 0
 135 -15 91 -11 72 -4 c 0
 50 4 40 11 40 23 c 2
 40 100 l 2
 40 114 46 125 52 125 c 0
 61 125 64 113 67 103 c 0xec
 84 40 123 18 169 18 c 0
 207 18 247 52 247 92 c 0
 247 132 185 159 131 188 c 0
 82 214 40 246 40 302 c 0
 40 367 84 414 169 414 c 0
 188 414 225 409 253 401 c 0
 273 395 278 383 278 368 c 2
 279 334 l 2
 280 315 275 305 268 305 c 0
 263 305 257 311 253 321 c 0
 239 357 207 386 158 386 c 0
 117 386 93 362 93 330 c 0
 93 288 133 264 182 239 c 0
 240 209 309 183 309 114 c 0xf2
 309 55 264 -1 183 -13 c 1
 179 -30 172 -57 172 -58 c 0
 172 -60 181 -62 181 -62 c 1
 238 -72 257 -111 257 -146 c 0
 257 -168 239 -229 162 -229 c 0
 127 -229 101 -215 101 -202 c 0
 101 -201 100 -191 110 -191 c 0
 111 -191 135 -203 154 -203 c 0xe4
EndSplineSet
AlternateSubs2: "'aalt' Access All Alternates in Latin lookup 0 subtable" uni0219
Substitution2: "romanian subtable" uni0219
EndChar

StartChar: uni0162
Encoding: 354 354 324
Width: 629
VWidth: 0
Flags: W
HStem: -216 26<245.968 326.007> -8 43<163.578 256.472> 0 38<351.137 470.861> 604 52<85.7942 266.374> 604 44<358.56 539.167> 666 20G<53 72.5 570.5 588>
VStem: 10 39<501.347 564.87> 262 89<39.826 325.292> 270 82<325.292 603.863> 340 52<-182.823 -98.5794>
AnchorPoint: "r;hi" 629 660 basechar 0
AnchorPoint: "l;x" 70 380 basechar 0
AnchorPoint: "r;bl" 504 10 basechar 0
AnchorPoint: "r;o" 544 210 basechar 0
AnchorPoint: "l;o" 90 210 basechar 0
AnchorPoint: "l;hi" 0 660 basechar 0
AnchorPoint: "l;bl" 130 10 basechar 0
AnchorPoint: "r;x" 564 380 basechar 0
LayerCount: 3
Fore
SplineSet
289 -190 m 0xa640
 330 -190 340 -162 340 -142 c 0
 340 -110 322 -90 275 -87 c 0
 274 -87 269 -86 269 -83 c 0
 269 -81 288 -29 298 0 c 1xa640
 249 -1 207 -8 182 -8 c 0
 171 -8 162 -2 162 7 c 0
 162 27 196 30 220 35 c 0
 243 40 260 40 262 78 c 0xc7
 268 191 270 437 270 571 c 0
 270 604 264 604 253 604 c 0
 198 604 140 604 98 589 c 0
 75 580 59 555 49 534 c 0
 40 516 35 500 25 500 c 0
 11 500 10 509 10 516 c 0
 10 549 22 587 36 640 c 0
 38 647 44 686 62 686 c 0
 83 686 83 656 96 656 c 0xd680
 246 655 544 648 544 648 c 2
 570 648 561 684 580 684 c 0
 596 684 600 663 600 647 c 0
 600 636 598 611 598 603 c 0
 598 586 604 539 604 527 c 0
 604 520 602 504 590 504 c 0
 558 504 580 566 533 585 c 0
 503 597 390 604 379 604 c 0
 353 604 352 597 352 565 c 0x8e80
 352 421 351 182 351 68 c 0
 351 40 351 40 387 38 c 2xaf
 435 35 l 2xc7
 455 34 471 32 471 17 c 0
 471 3 459 -1 442 -1 c 0
 436 -1 368 0 318 0 c 1
 314 -17 307 -44 307 -45 c 0
 307 -47 316 -49 316 -49 c 1
 373 -59 392 -98 392 -133 c 0
 392 -155 374 -216 297 -216 c 0
 262 -216 236 -202 236 -189 c 0
 236 -188 235 -178 245 -178 c 0
 246 -178 270 -190 289 -190 c 0xa640
EndSplineSet
EndChar

StartChar: uni0163
Encoding: 355 355 325
Width: 317
VWidth: 0
Flags: W
HStem: -216 26<120.968 201.007> -11 53<184.586 256.788> 350 34<32.4016 86.7925> 355 54<167.528 302.223> 355 46<157.037 282.287>
VStem: 81 72<52.5535 328.244> 91 64<108.77 351.957> 215 52<-182.823 -98.5794>
AnchorPoint: "l;x" 5 380 basechar 0
AnchorPoint: "r;bl" 317 10 basechar 0
AnchorPoint: "r;o" 317 210 basechar 0
AnchorPoint: "l;o" 0 210 basechar 0
AnchorPoint: "l;bl" 5 10 basechar 0
AnchorPoint: "r;x" 312 380 basechar 0
LayerCount: 3
Fore
SplineSet
164 -190 m 0xd5
 205 -190 215 -162 215 -142 c 0
 215 -110 197 -90 150 -87 c 0
 149 -87 144 -86 144 -83 c 0
 144 -81 161 -40 173 -11 c 1
 99 -8 81 36 81 103 c 0xd5
 81 227 91 293 91 330 c 0
 91 348 88 352 76 352 c 0
 67 352 53 350 48 350 c 0
 37 350 31 354 31 361 c 0
 31 374 47 379 57 384 c 0xe3
 94 402 112 416 133 452 c 2
 140 464 l 2
 144 472 150 479 156 479 c 0
 161 479 165 474 165 463 c 0
 165 449 157 417 157 410 c 0
 157 404 158 401 167 401 c 0xcb
 177 401 269 409 283 409 c 0
 298 409 303 398 303 389 c 0
 303 362 294 355 280 355 c 2
 176 355 l 2
 163 355 155 351 155 341 c 0xd3
 154 272 153 196 153 130 c 0
 153 72 164 42 210 42 c 0
 255 42 284 75 295 75 c 0
 301 75 303 71 303 65 c 0
 303 36 248 -8 187 -11 c 1
 184 -27 182 -44 182 -45 c 0
 182 -47 191 -49 191 -49 c 1
 248 -59 267 -98 267 -133 c 0
 267 -155 249 -216 172 -216 c 0
 137 -216 111 -202 111 -189 c 0
 111 -188 110 -178 120 -178 c 0
 121 -178 145 -190 164 -190 c 0xd5
EndSplineSet
AlternateSubs2: "'aalt' Access All Alternates in Latin lookup 0 subtable" uni021B
Substitution2: "romanian subtable" uni021B
EndChar

StartChar: uni0326
Encoding: 806 806 326
Width: 0
VWidth: 0
Flags: W
HStem: -214 170<-240 -202.307>
VStem: -219 60<-168.338 -92>
AnchorPoint: "cedilla" -220 -79 mark 0
LayerCount: 3
Fore
SplineSet
-219 -44 m 0
 -182 -44 -159 -72 -159 -112 c 0
 -159 -161 -219 -214 -235 -214 c 0
 -240 -214 -246 -211 -246 -203 c 0
 -246 -192 -233 -180 -225 -167 c 0
 -222 -161 -219 -155 -219 -149 c 0
 -219 -134 -231 -126 -242 -118 c 0
 -255 -109 -260 -95 -260 -82 c 0
 -260 -62 -246 -44 -219 -44 c 0
EndSplineSet
EndChar

StartChar: Thorn
Encoding: 222 222 353
Width: 549
VWidth: 0
Flags: W
HStem: -6 34<10.0349 103.904 245.625 304.578> 131 47<234.593 368.278> 483 40<204.2 344.971> 619 38<15.1429 113.016 216.122 303.747>
VStem: 109 91<41.0781 163.998 189.188 321> 118 86<530.048 607.72> 426 93<245.363 406.997>
AnchorPoint: "l;bl" 0 10 basechar 0
AnchorPoint: "l;x" 0 380 basechar 0
AnchorPoint: "l;hi" 0 660 basechar 0
AnchorPoint: "l;o" 0 210 basechar 0
AnchorPoint: "r;x" 549 380 basechar 0
AnchorPoint: "r;hi" 549 660 basechar 0
AnchorPoint: "r;o" 529 210 basechar 0
LayerCount: 3
Fore
SplineSet
222 523 m 0xf6
 249 523 274 525 309 525 c 0
 389 525 519 503 519 349 c 0
 519 252 464 131 319 131 c 0
 285 131 254 144 234 153 c 0
 224 158 214 164 208 164 c 0
 203 164 200 161 200 152 c 0
 200 117 199 68 199 68 c 2
 199 46 219 40 243 36 c 2
 264 33 l 2
 284 30 305 26 305 14 c 0
 305 3 293 0 276 0 c 0
 269 0 217 2 166 2 c 0
 114 2 54 -6 28 -6 c 0
 17 -6 10 1 10 10 c 0
 10 25 22 27 38 28 c 2
 66 30 l 2
 97 32 107 34 109 65 c 0xfa
 111 94 118 547 118 580 c 0
 118 614 89 618 60 619 c 0
 37 620 15 623 15 640 c 0
 15 654 25 657 39 657 c 0
 68 657 78 652 164 652 c 0
 233 652 253 654 268 654 c 0
 290 654 304 650 304 635 c 0
 304 619 291 617 275 616 c 0
 226 614 204 611 204 552 c 2
 204 540 l 2
 204 527 206 523 222 523 c 0xf6
200 212 m 2
 200 198 205 193 212 189 c 0
 228 181 268 178 287 178 c 0
 376 178 426 232 426 328 c 0
 426 419 359 483 257 483 c 0
 207 483 203 477 203 446 c 2
 200 212 l 2
EndSplineSet
EndChar

StartChar: thorn
Encoding: 254 254 354
Width: 506
VWidth: 0
Flags: W
HStem: -265 30<158.176 246.991> -2 32<185.572 337.51> 370 12<163 240> 659 20G<139 145.5>
VStem: 77 78<401.607 617.513> 78 72<-228.188 11.9876 55.383 356.64 382.001 617.118> 412 64<112.859 269.526>
AnchorPoint: "l;k;hi" 1 660 basechar 0
AnchorPoint: "l;bl" 0 10 basechar 0
AnchorPoint: "l;o" 0 210 basechar 0
AnchorPoint: "l;lo" 0 -200 basechar 0
AnchorPoint: "r;bl" 466 10 basechar 0
AnchorPoint: "r;x" 486 380 basechar 0
AnchorPoint: "r;o" 506 210 basechar 0
AnchorPoint: "l;x" 0 380 basechar 0
LayerCount: 3
Fore
SplineSet
240 370 m 0xf6
 178 370 153 356 150 312 c 0
 149 292 148 261 148 230 c 0
 148 169 150 79 166 61 c 0
 185 40 219 30 272 30 c 0
 371 30 412 111 412 174 c 0
 412 273 349 370 240 370 c 0xf6
82 -182 m 0
 82 -42 78 250 78 408 c 0xf6
 78 456 77 513 77 583 c 0
 77 610 69 613 41 623 c 0
 29 627 22 632 22 638 c 0
 22 643 27 649 38 652 c 0
 53 656 74 661 91 666 c 0
 116 673 137 679 141 679 c 0
 150 679 155 671 155 661 c 0xfa
 153 549 151 496 150 397 c 1
 151 384 158 382 163 382 c 0
 166 382 170 384 175 388 c 0
 212 415 247 424 286 424 c 0
 381 424 476 362 476 217 c 0
 476 97 404 -2 265 -2 c 0
 217 -2 182 7 167 14 c 0
 156 19 151 15 151 10 c 2
 153 -206 l 2
 153 -224 169 -233 217 -235 c 0
 235 -236 247 -239 247 -250 c 0
 247 -256 241 -265 223 -265 c 0
 190 -264 160 -261 128 -261 c 0
 97 -261 73 -266 40 -266 c 0
 23 -266 14 -263 14 -252 c 0
 14 -230 82 -260 82 -182 c 0
EndSplineSet
EndChar

StartChar: Eth
Encoding: 208 208 355
Width: 769
VWidth: 0
Flags: W
HStem: -4 41<30.8697 121.041 206.366 459.905> 311 48<32 118.885 209 411> 614 41<32.0095 124.711 211 384.472>
VStem: 122 87<66.0925 311 359 612.191> 612 102<210.255 426.593>
AnchorPoint: "l;bl" 0 10 basechar 0
AnchorPoint: "l;x" 0 380 basechar 0
AnchorPoint: "l;hi" 0 660 basechar 0
AnchorPoint: "l;o" 0 210 basechar 0
AnchorPoint: "r;bl" 769 10 basechar 0
AnchorPoint: "r;x" 769 380 basechar 0
AnchorPoint: "r;hi" 769 660 basechar 0
AnchorPoint: "r;o" 769 210 basechar 0
LayerCount: 3
Fore
SplineSet
30 12 m 0
 30 29 55 29 84 34 c 0
 117 39 122 43 122 74 c 0
 122 89 118 119 118 152 c 0
 118 193 119 244 119 295 c 0
 119 310 117 311 102 311 c 2
 46 311 l 2
 33 311 32 313 32 321 c 2
 32 344 l 2
 32 358 32 359 46 359 c 2
 104 359 l 2
 118 359 120 360 120 378 c 0
 121 455 123 529 125 581 c 1
 125 588 l 2
 125 613 115 610 64 617 c 0
 45 620 32 622 32 635 c 0
 32 650 44 653 61 653 c 0
 92 653 142 651 162 651 c 0
 216 651 229 655 282 655 c 0
 378 655 463 649 530 617 c 0
 642 563 714 472 714 315 c 0
 714 243 665 59 494 15 c 0
 440 1 417 -4 325 -4 c 0
 280 -4 208 2 166 2 c 0
 124 2 81 -5 66 -5 c 0
 35 -5 30 2 30 12 c 0
373 37 m 0
 432 37 483 64 524 99 c 0
 587 153 612 232 612 310 c 0
 612 527 430 614 235 614 c 0
 213 614 211 606 211 594 c 0
 210 522 209 450 209 378 c 2
 209 370 l 2
 209 360 210 359 225 359 c 2
 391 359 l 2
 406 359 411 359 411 346 c 2
 411 330 l 2
 411 311 410 311 393 311 c 2
 225 311 l 2
 210 311 209 310 209 299 c 2
 209 211 l 2
 209 168 209 110 219 82 c 0
 232 47 305 37 373 37 c 0
EndSplineSet
EndChar

StartChar: bar.DONT_KEEP
Encoding: 65561 -1 356
Width: 769
VWidth: 0
Flags: W
HStem: 303 48<227 516>
VStem: 227 289<303 351>
LayerCount: 3
Fore
SplineSet
516 303 m 1
 227 303 l 1
 227 351 l 1
 516 351 l 1
 516 303 l 1
EndSplineSet
EndChar

StartChar: eth
Encoding: 240 240 358
Width: 482
VWidth: 0
Flags: W
HStem: -21 30<201.691 309.758> 393 32<174.663 295.538> 536 56<281.9 297.919> 654 22<95.0073 149.928>
VStem: 30 79<112.297 304.612> 376 71<110.016 309.095>
DStem2: 107 522 156 497 0.949022 0.315211<10.7451 138.11 233.753 344.238>
AnchorPoint: "l;bl" 0 10 basechar 0
AnchorPoint: "l;x" 0 380 basechar 0
AnchorPoint: "l;o" 0 210 basechar 0
AnchorPoint: "r;bl" 482 10 basechar 0
AnchorPoint: "r;x" 482 380 basechar 0
AnchorPoint: "r;hi" 482 660 basechar 0
AnchorPoint: "r;o" 482 210 basechar 0
LayerCount: 3
Fore
SplineSet
235 -21 m 0
 149 -21 30 41 30 196 c 0
 30 311 93 425 237 425 c 0
 277 425 307 407 333 389 c 0
 342 382 348 380 351 380 c 0
 353 380 354 381 354 383 c 0
 354 386 352 391 350 398 c 0
 339 437 319 487 290 525 c 0
 284 533 281 536 276 536 c 0
 272 536 268 534 261 532 c 2
 156 497 l 2
 142 493 135 489 129 489 c 0
 123 489 119 492 110 502 c 0
 103 510 96 515 107 522 c 0
 117 528 139 534 162 542 c 2
 235 567 l 2
 243 570 244 572 235 582 c 0
 219 599 206 612 187 625 c 0
 167 638 145 646 113 654 c 0
 105 656 95 656 95 665 c 0
 95 670 100 676 107 676 c 2
 158 676 l 2
 210 676 208 670 251 639 c 0
 267 627 279 617 294 602 c 0
 301 595 304 592 309 592 c 0
 312 592 317 594 324 596 c 2
 422 627 l 2
 427 629 431 630 434 630 c 0
 441 630 444 628 452 619 c 0
 456 614 460 610 460 606 c 0
 460 597 448 594 436 590 c 2
 350 562 l 2
 334 557 339 553 347 541 c 0
 396 468 447 328 447 225 c 0
 447 70 355 -21 235 -21 c 0
248 9 m 0
 374 9 376 130 376 205 c 0
 376 310 323 393 237 393 c 0
 149 393 109 329 109 219 c 0
 109 97 183 9 248 9 c 0
EndSplineSet
Layer: 2
SplineSet
235 -21 m 4
 149 -21 30 41 30 196 c 4
 30 311 93 425 237 425 c 4
 277 425 307 407 333 389 c 4
 342 382 348 380 351 380 c 4
 353 380 354 381 354 383 c 4
 354 386 352 391 350 398 c 4
 339 437 320 484 291 522 c 4
 285 530 282 533 277 533 c 4
 273 533 269 531 262 529 c 6
 157 494 l 6
 144 490 137 486 131 486 c 4
 122 486 119 492 113 499 c 4
 105 508 96 515 107 522 c 4
 117 528 139 534 162 542 c 6
 235 567 l 6
 243 570 244 572 235 582 c 4
 219 599 206 612 187 625 c 4
 167 638 145 646 113 654 c 4
 105 656 95 656 95 665 c 4
 95 670 100 676 107 676 c 6
 158 676 l 6
 210 676 208 670 251 639 c 4
 267 627 279 617 294 602 c 4
 301 595 304 592 309 592 c 4
 312 592 317 594 324 596 c 6
 422 627 l 6
 427 629 431 630 434 630 c 4
 441 630 446 625 454 616 c 4
 458 611 462 607 462 603 c 4
 462 594 448 591 436 587 c 6
 351 559 l 6
 335 554 339 553 347 541 c 4
 396 468 447 328 447 225 c 4
 447 70 355 -21 235 -21 c 4
248 9 m 4
 374 9 376 130 376 205 c 4
 376 310 323 393 237 393 c 4
 149 393 109 329 109 219 c 4
 109 97 183 9 248 9 c 4
EndSplineSet
EndChar

StartChar: germandbls
Encoding: 223 223 359
Width: 505
VWidth: 0
Flags: W
HStem: -15 33<298.969 390.941> -2 29<16.0118 95.6891> 333 32<35.0964 85.2515> 656 32<229.585 324.621>
VStem: 105 67<31.3857 338.993 372.734 523.178> 234 52<233.047 349.987> 235 27<62.2969 124.863> 360 69<495.009 625.909> 418 61<42.0643 123.17>
AnchorPoint: "l;o" 10 210 basechar 0
AnchorPoint: "l;x" 20 380 basechar 0
AnchorPoint: "l;bl" 0 10 basechar 0
AnchorPoint: "r;bl" 505 10 basechar 0
AnchorPoint: "r;x" 480 380 basechar 0
AnchorPoint: "r;hi" 480 660 basechar 0
AnchorPoint: "r;o" 505 210 basechar 0
LayerCount: 3
Fore
SplineSet
360 551 m 0xbd
 360 635 310 656 277 656 c 0
 183 656 174 525 174 410 c 0
 174 301 172 195 172 87 c 0
 172 40 178 33 186 29 c 0
 195 25 201 24 201 12 c 0
 201 0 189 -1 182 -1 c 0
 175 -1 143 0 135 0 c 0
 97 0 56 -2 32 -2 c 0
 20 -2 16 3 16 13 c 0
 16 25 29 27 42 27 c 2
 52 27 l 2
 94 27 105 35 105 102 c 2
 104 322 l 2
 104 330 104 339 86 339 c 0
 70 339 56 333 46 333 c 0
 39 333 35 336 35 348 c 0
 35 357 50 363 56 365 c 0
 82 374 110 376 110 387 c 0
 110 479 129 557 161 610 c 0
 185 649 222 688 288 688 c 0
 352 688 429 642 429 565 c 0
 429 504 383 464 351 425 c 0
 315 381 286 348 286 320 c 0x7d
 286 244 479 201 479 110 c 0
 479 46 427 -15 330 -15 c 0
 310 -15 235 -7 235 23 c 2
 235 100 l 2
 235 114 241 125 247 125 c 0
 256 125 261 113 262 103 c 0
 271 38 314 18 349 18 c 0
 383 18 418 50 418 84 c 0xba80
 418 156 234 189 234 279 c 0
 234 328 266 370 303 415 c 0
 338 458 360 495 360 551 c 0xbd
EndSplineSet
EndChar

StartChar: uni0312
Encoding: 786 786 361
Width: 0
VWidth: 0
Flags: W
HStem: 499 170<-235.693 -198>
VStem: -279 60<547 623.338>
AnchorPoint: "top" -220 459 mark 0
LayerCount: 3
Fore
SplineSet
-219 499 m 0
 -256 499 -279 527 -279 567 c 0
 -279 616 -219 669 -203 669 c 0
 -198 669 -192 666 -192 658 c 0
 -192 647 -205 635 -213 622 c 0
 -216 616 -219 610 -219 604 c 0
 -219 589 -207 581 -196 573 c 0
 -183 564 -178 550 -178 537 c 0
 -178 517 -192 499 -219 499 c 0
EndSplineSet
EndChar

StartChar: uni0315
Encoding: 789 789 363
Width: 0
VWidth: 0
Flags: W
HStem: 470 195
VStem: -241 105
AnchorPoint: "right" -220 459 mark 0
AnchorPoint: "r;k;hi" -130 660 basechar 0
LayerCount: 3
Fore
SplineSet
-168 665 m 0
 -155 665 -136 663 -136 645 c 0
 -136 621 -168 556 -198 508 c 0
 -209.910244858 488.943608227 -219 470 -229 470 c 0
 -235 470 -241 475 -241 482 c 0
 -241 496 -228 517 -196 640 c 0
 -190 662 -183 665 -168 665 c 0
EndSplineSet
EndChar

StartChar: oslash
Encoding: 248 248 369
Width: 495
VWidth: 0
Flags: W
HStem: -21 30<189.897 306.484> 400 28<186.844 293.025>
VStem: 30 75<101.256 307.85> 383 82<104.009 305.193>
DStem2: 113 -18 142 -57 0.421528 0.906816<-55.025 24.4361 89.1746 425.412 491.014 577.877>
AnchorPoint: "r;o" 495 210 basechar 0
AnchorPoint: "r;x" 475 380 basechar 0
AnchorPoint: "r;bl" 475 10 basechar 0
AnchorPoint: "l;o" 0 210 basechar 0
AnchorPoint: "l;x" 20 380 basechar 0
AnchorPoint: "l;bl" 20 10 basechar 0
LayerCount: 3
Fore
SplineSet
246 9 m 0
 365 9 383 132 383 203 c 0
 383 252 369 299 346 334 c 0
 340 343 338 348 335 348 c 0
 332 348 330 344 325 334 c 2
 190 46 l 2
 187 39 185 35 185 31 c 0
 185 27 188 24 197 20 c 0
 212 13 228 9 246 9 c 0
370 509 m 0
 377 509 392 502 392 490 c 0
 392 481 385 462 378 448 c 2
 367 425 l 2
 363 417 361 412 361 408 c 0
 361 403 366 400 377 393 c 0
 429 359 465 299 465 212 c 0
 465 46 349 -21 240 -21 c 0
 221 -21 201 -18 182 -13 c 0
 165 -9 165 -8 158 -23 c 2
 142 -57 l 2
 133 -76 130 -89 121 -89 c 0
 103 -89 93 -80 93 -70 c 0
 93 -57 104 -38 113 -18 c 0
 118 -6 122 0 122 5 c 0
 122 11 117 15 105 25 c 0
 61 61 30 118 30 201 c 0
 30 334 116 428 252 428 c 0
 265 428 278 427 290 425 c 0
 298 424 304 423 308 423 c 0
 319 423 321 429 329 446 c 2
 351 494 l 2
 355 503 360 509 370 509 c 0
158 79 m 2
 291 364 l 2
 294 371 297 376 297 380 c 0
 297 384 293 387 284 391 c 0
 271 397 257 400 242 400 c 0
 162 400 105 330 105 224 c 0
 105 167 116 117 137 79 c 0
 142 69 145 64 148 64 c 0
 151 64 153 69 158 79 c 2
EndSplineSet
EndChar

